solid OpenSCAD_Model
  facet normal 1 0 0
    outer loop
      vertex 20 0 10
      vertex 20 15 0
      vertex 20 15 10
    endloop
  endfacet
  facet normal 1 0 0
    outer loop
      vertex 20 15 0
      vertex 20 0 10
      vertex 20 0 0
    endloop
  endfacet
  facet normal 0 0 1
    outer loop
      vertex 20 15 10
      vertex 18 13 10
      vertex 20 0 10
    endloop
  endfacet
  facet normal 0 0 1
    outer loop
      vertex 20 15 10
      vertex 2 13 10
      vertex 18 13 10
    endloop
  endfacet
  facet normal 0 0 1
    outer loop
      vertex 2 13 10
      vertex 0 15 10
      vertex 2 2 10
    endloop
  endfacet
  facet normal 0 0 1
    outer loop
      vertex 0 15 10
      vertex 2 13 10
      vertex 20 15 10
    endloop
  endfacet
  facet normal 0 0 1
    outer loop
      vertex 18 2 10
      vertex 20 0 10
      vertex 18 13 10
    endloop
  endfacet
  facet normal 0 0 1
    outer loop
      vertex 2 2 10
      vertex 20 0 10
      vertex 18 2 10
    endloop
  endfacet
  facet normal 0 0 1
    outer loop
      vertex 2 2 10
      vertex 0 0 10
      vertex 20 0 10
    endloop
  endfacet
  facet normal 0 0 1
    outer loop
      vertex 0 0 10
      vertex 2 2 10
      vertex 0 15 10
    endloop
  endfacet
  facet normal 0 0 -1
    outer loop
      vertex 0 0 0
      vertex 20 15 0
      vertex 20 0 0
    endloop
  endfacet
  facet normal 0 0 -1
    outer loop
      vertex 20 15 0
      vertex 0 0 0
      vertex 0 15 0
    endloop
  endfacet
  facet normal -1 0 0
    outer loop
      vertex 0 0 0
      vertex 0 15 10
      vertex 0 15 0
    endloop
  endfacet
  facet normal -1 0 0
    outer loop
      vertex 0 15 10
      vertex 0 0 0
      vertex 0 0 10
    endloop
  endfacet
  facet normal 0 1 0
    outer loop
      vertex 20 15 0
      vertex 0 15 10
      vertex 20 15 10
    endloop
  endfacet
  facet normal 0 1 0
    outer loop
      vertex 0 15 10
      vertex 20 15 0
      vertex 0 15 0
    endloop
  endfacet
  facet normal 0 -1 0
    outer loop
      vertex 0 0 0
      vertex 20 0 10
      vertex 0 0 10
    endloop
  endfacet
  facet normal 0 -1 0
    outer loop
      vertex 20 0 10
      vertex 0 0 0
      vertex 20 0 0
    endloop
  endfacet
  facet normal -1 0 0
    outer loop
      vertex 18 2 2
      vertex 18 13 10
      vertex 18 13 2
    endloop
  endfacet
  facet normal -1 0 0
    outer loop
      vertex 18 13 10
      vertex 18 2 2
      vertex 18 2 10
    endloop
  endfacet
  facet normal 0 0 1
    outer loop
      vertex 2 13 2
      vertex 18 2 2
      vertex 18 13 2
    endloop
  endfacet
  facet normal 0 0 1
    outer loop
      vertex 18 2 2
      vertex 2 13 2
      vertex 2 2 2
    endloop
  endfacet
  facet normal 1 0 0
    outer loop
      vertex 2 2 10
      vertex 2 13 2
      vertex 2 13 10
    endloop
  endfacet
  facet normal 1 0 0
    outer loop
      vertex 2 13 2
      vertex 2 2 10
      vertex 2 2 2
    endloop
  endfacet
  facet normal 0 -1 0
    outer loop
      vertex 2 13 2
      vertex 18 13 10
      vertex 2 13 10
    endloop
  endfacet
  facet normal 0 -1 0
    outer loop
      vertex 18 13 10
      vertex 2 13 2
      vertex 18 13 2
    endloop
  endfacet
  facet normal 0 1 0
    outer loop
      vertex 18 2 2
      vertex 2 2 10
      vertex 18 2 10
    endloop
  endfacet
  facet normal 0 1 0
    outer loop
      vertex 2 2 10
      vertex 18 2 2
      vertex 2 2 2
    endloop
  endfacet
endsolid OpenSCAD_Model
