solid OpenSCAD_Model
  facet normal 0.8833843327227973 0.09284743473651169 0.4593598530158546
    outer loop
      vertex 15 0 0
      vertex 1.9562952014676114 0.4158233816355187 25
      vertex 2 0 25
    endloop
  endfacet
  facet normal 0.8833843327227974 0.09284743473650978 0.45935985301585464
    outer loop
      vertex 1.9562952014676114 0.4158233816355187 25
      vertex 15 0 0
      vertex 14.672214011007085 3.1186753622663903 0
    endloop
  endfacet
  facet normal 0.8447761984344788 0.27448442578012056 0.4593598530158547
    outer loop
      vertex 1.8270909152852017 0.8134732861516004 25
      vertex 14.672214011007085 3.1186753622663903 0
      vertex 13.703181864639014 6.101049646137003 0
    endloop
  endfacet
  facet normal 0.8447761984344786 0.2744844257801211 0.45935985301585475
    outer loop
      vertex 14.672214011007085 3.1186753622663903 0
      vertex 1.8270909152852017 0.8134732861516004 25
      vertex 1.9562952014676114 0.4158233816355187 25
    endloop
  endfacet
  facet normal 0.7692472905886245 0.444125130294732 0.4593598530158547
    outer loop
      vertex 1.618033988749895 1.1755705045849463 25
      vertex 13.703181864639014 6.101049646137003 0
      vertex 12.135254915624213 8.816778784387097 0
    endloop
  endfacet
  facet normal 0.7692472905886246 0.444125130294731 0.4593598530158553
    outer loop
      vertex 13.703181864639014 6.101049646137003 0
      vertex 1.618033988749895 1.1755705045849463 25
      vertex 1.8270909152852017 0.8134732861516004 25
    endloop
  endfacet
  facet normal 0.6600985848860077 0.5943554354666426 0.45935985301585464
    outer loop
      vertex 1.3382612127177165 1.4862896509547885 25
      vertex 12.135254915624213 8.816778784387097 0
      vertex 10.036959095382873 11.147172382160914 0
    endloop
  endfacet
  facet normal 0.660098584886008 0.5943554354666423 0.459359853015855
    outer loop
      vertex 12.135254915624213 8.816778784387097 0
      vertex 1.3382612127177165 1.4862896509547885 25
      vertex 1.618033988749895 1.1755705045849463 25
    endloop
  endfacet
  facet normal 0.5221004035194334 0.7186095560748529 0.4593598530158546
    outer loop
      vertex 7.5 12.990381056766578 0
      vertex 1.3382612127177165 1.4862896509547885 25
      vertex 10.036959095382873 11.147172382160914 0
    endloop
  endfacet
  facet normal 0.5221004035194334 0.718609556074853 0.45935985301585464
    outer loop
      vertex 1.3382612127177165 1.4862896509547885 25
      vertex 7.5 12.990381056766578 0
      vertex 1 1.7320508075688772 25
    endloop
  endfacet
  facet normal 0.3612839292033639 0.8114569908113622 0.4593598530158547
    outer loop
      vertex 4.635254915624211 14.265847744427303 0
      vertex 1 1.7320508075688772 25
      vertex 7.5 12.990381056766578 0
    endloop
  endfacet
  facet normal 0.36128392920336366 0.8114569908113624 0.4593598530158546
    outer loop
      vertex 1 1.7320508075688772 25
      vertex 4.635254915624211 14.265847744427303 0
      vertex 0.6180339887498948 1.902113032590307 25
    endloop
  endfacet
  facet normal 0.18467761354847123 0.8688398612467628 0.4593598530158547
    outer loop
      vertex 1.567926949014802 14.9178284305241 0
      vertex 0.6180339887498948 1.902113032590307 25
      vertex 4.635254915624211 14.265847744427303 0
    endloop
  endfacet
  facet normal 0.18467761354847104 0.8688398612467628 0.45935985301585464
    outer loop
      vertex 0.6180339887498948 1.902113032590307 25
      vertex 1.567926949014802 14.9178284305241 0
      vertex 0.20905692653530694 1.9890437907365466 25
    endloop
  endfacet
  facet normal 0 0.8882502605894651 0.45935985301585447
    outer loop
      vertex 1.567926949014802 14.9178284305241 0
      vertex -0.20905692653530694 1.9890437907365466 25
      vertex 0.20905692653530694 1.9890437907365466 25
    endloop
  endfacet
  facet normal 0 0.888250260589465 0.4593598530158545
    outer loop
      vertex -0.20905692653530694 1.9890437907365466 25
      vertex 1.567926949014802 14.9178284305241 0
      vertex -1.567926949014802 14.9178284305241 0
    endloop
  endfacet
  facet normal -0.1846776135484736 0.8688398612467623 0.4593598530158545
    outer loop
      vertex -1.567926949014802 14.9178284305241 0
      vertex -0.6180339887498948 1.902113032590307 25
      vertex -0.20905692653530694 1.9890437907365466 25
    endloop
  endfacet
  facet normal -0.18467761354847115 0.8688398612467628 0.4593598530158547
    outer loop
      vertex -0.6180339887498948 1.902113032590307 25
      vertex -1.567926949014802 14.9178284305241 0
      vertex -4.635254915624211 14.265847744427303 0
    endloop
  endfacet
  facet normal -0.36128392920336266 0.8114569908113626 0.45935985301585514
    outer loop
      vertex -4.635254915624211 14.265847744427303 0
      vertex -1 1.7320508075688772 25
      vertex -0.6180339887498948 1.902113032590307 25
    endloop
  endfacet
  facet normal -0.3612839292033636 0.8114569908113624 0.4593598530158547
    outer loop
      vertex -1 1.7320508075688772 25
      vertex -4.635254915624211 14.265847744427303 0
      vertex -7.5 12.990381056766578 0
    endloop
  endfacet
  facet normal -0.5221004035194312 0.7186095560748537 0.4593598530158561
    outer loop
      vertex -7.5 12.990381056766578 0
      vertex -1.3382612127177165 1.4862896509547885 25
      vertex -1 1.7320508075688772 25
    endloop
  endfacet
  facet normal -0.5221004035194332 0.718609556074853 0.45935985301585475
    outer loop
      vertex -1.3382612127177165 1.4862896509547885 25
      vertex -7.5 12.990381056766578 0
      vertex -10.036959095382873 11.147172382160914 0
    endloop
  endfacet
  facet normal -0.6600985848860077 0.5943554354666427 0.45935985301585464
    outer loop
      vertex -12.135254915624213 8.816778784387097 0
      vertex -1.3382612127177165 1.4862896509547885 25
      vertex -10.036959095382873 11.147172382160914 0
    endloop
  endfacet
  facet normal -0.6600985848860079 0.5943554354666425 0.45935985301585464
    outer loop
      vertex -1.3382612127177165 1.4862896509547885 25
      vertex -12.135254915624213 8.816778784387097 0
      vertex -1.618033988749895 1.1755705045849463 25
    endloop
  endfacet
  facet normal -0.7692472905886244 0.4441251302947323 0.45935985301585464
    outer loop
      vertex -13.703181864639014 6.101049646137003 0
      vertex -1.618033988749895 1.1755705045849463 25
      vertex -12.135254915624213 8.816778784387097 0
    endloop
  endfacet
  facet normal -0.7692472905886244 0.44412513029473233 0.4593598530158547
    outer loop
      vertex -1.618033988749895 1.1755705045849463 25
      vertex -13.703181864639014 6.101049646137003 0
      vertex -1.8270909152852017 0.8134732861516004 25
    endloop
  endfacet
  facet normal -0.8447761984344788 0.27448442578012044 0.45935985301585464
    outer loop
      vertex -14.672214011007085 3.1186753622663903 0
      vertex -1.8270909152852017 0.8134732861516004 25
      vertex -13.703181864639014 6.101049646137003 0
    endloop
  endfacet
  facet normal -0.8447761984344788 0.2744844257801206 0.45935985301585464
    outer loop
      vertex -1.8270909152852017 0.8134732861516004 25
      vertex -14.672214011007085 3.1186753622663903 0
      vertex -1.9562952014676114 0.4158233816355187 25
    endloop
  endfacet
  facet normal -0.8833843327227974 0.09284743473650929 0.4593598530158547
    outer loop
      vertex -15 0 0
      vertex -1.9562952014676114 0.4158233816355187 25
      vertex -14.672214011007085 3.1186753622663903 0
    endloop
  endfacet
  facet normal -0.8833843327227975 0.0928474347365093 0.45935985301585464
    outer loop
      vertex -1.9562952014676114 0.4158233816355187 25
      vertex -15 0 0
      vertex -2 0 25
    endloop
  endfacet
  facet normal -0.8833843327227973 -0.09284743473651169 0.4593598530158546
    outer loop
      vertex -15 0 0
      vertex -1.9562952014676114 -0.4158233816355187 25
      vertex -2 0 25
    endloop
  endfacet
  facet normal -0.8833843327227974 -0.09284743473650978 0.45935985301585464
    outer loop
      vertex -1.9562952014676114 -0.4158233816355187 25
      vertex -15 0 0
      vertex -14.672214011007085 -3.1186753622663903 0
    endloop
  endfacet
  facet normal -0.8447761984344786 -0.2744844257801211 0.45935985301585475
    outer loop
      vertex -14.672214011007085 -3.1186753622663903 0
      vertex -1.8270909152852017 -0.8134732861516004 25
      vertex -1.9562952014676114 -0.4158233816355187 25
    endloop
  endfacet
  facet normal -0.8447761984344788 -0.27448442578012056 0.4593598530158547
    outer loop
      vertex -1.8270909152852017 -0.8134732861516004 25
      vertex -14.672214011007085 -3.1186753622663903 0
      vertex -13.703181864639014 -6.101049646137003 0
    endloop
  endfacet
  facet normal -0.7692472905886246 -0.444125130294731 0.4593598530158553
    outer loop
      vertex -13.703181864639014 -6.101049646137003 0
      vertex -1.618033988749895 -1.1755705045849463 25
      vertex -1.8270909152852017 -0.8134732861516004 25
    endloop
  endfacet
  facet normal -0.7692472905886245 -0.444125130294732 0.4593598530158547
    outer loop
      vertex -1.618033988749895 -1.1755705045849463 25
      vertex -13.703181864639014 -6.101049646137003 0
      vertex -12.135254915624213 -8.816778784387097 0
    endloop
  endfacet
  facet normal -0.660098584886008 -0.5943554354666423 0.459359853015855
    outer loop
      vertex -12.135254915624213 -8.816778784387097 0
      vertex -1.3382612127177165 -1.4862896509547885 25
      vertex -1.618033988749895 -1.1755705045849463 25
    endloop
  endfacet
  facet normal -0.6600985848860077 -0.5943554354666426 0.45935985301585464
    outer loop
      vertex -1.3382612127177165 -1.4862896509547885 25
      vertex -12.135254915624213 -8.816778784387097 0
      vertex -10.036959095382873 -11.147172382160914 0
    endloop
  endfacet
  facet normal -0.5221004035194334 -0.7186095560748529 0.4593598530158546
    outer loop
      vertex -7.5 -12.990381056766578 0
      vertex -1.3382612127177165 -1.4862896509547885 25
      vertex -10.036959095382873 -11.147172382160914 0
    endloop
  endfacet
  facet normal -0.5221004035194334 -0.718609556074853 0.45935985301585464
    outer loop
      vertex -1.3382612127177165 -1.4862896509547885 25
      vertex -7.5 -12.990381056766578 0
      vertex -1 -1.7320508075688772 25
    endloop
  endfacet
  facet normal -0.3612839292033639 -0.8114569908113622 0.4593598530158547
    outer loop
      vertex -4.635254915624211 -14.265847744427303 0
      vertex -1 -1.7320508075688772 25
      vertex -7.5 -12.990381056766578 0
    endloop
  endfacet
  facet normal -0.36128392920336366 -0.8114569908113624 0.4593598530158546
    outer loop
      vertex -1 -1.7320508075688772 25
      vertex -4.635254915624211 -14.265847744427303 0
      vertex -0.6180339887498948 -1.902113032590307 25
    endloop
  endfacet
  facet normal -0.18467761354847123 -0.8688398612467628 0.4593598530158547
    outer loop
      vertex -1.567926949014802 -14.9178284305241 0
      vertex -0.6180339887498948 -1.902113032590307 25
      vertex -4.635254915624211 -14.265847744427303 0
    endloop
  endfacet
  facet normal -0.18467761354847104 -0.8688398612467628 0.45935985301585464
    outer loop
      vertex -0.6180339887498948 -1.902113032590307 25
      vertex -1.567926949014802 -14.9178284305241 0
      vertex -0.20905692653530694 -1.9890437907365466 25
    endloop
  endfacet
  facet normal 0 -0.8882502605894651 0.45935985301585447
    outer loop
      vertex -1.567926949014802 -14.9178284305241 0
      vertex 0.20905692653530694 -1.9890437907365466 25
      vertex -0.20905692653530694 -1.9890437907365466 25
    endloop
  endfacet
  facet normal 0 -0.888250260589465 0.4593598530158545
    outer loop
      vertex 0.20905692653530694 -1.9890437907365466 25
      vertex -1.567926949014802 -14.9178284305241 0
      vertex 1.567926949014802 -14.9178284305241 0
    endloop
  endfacet
  facet normal 0.1846776135484736 -0.8688398612467623 0.4593598530158545
    outer loop
      vertex 1.567926949014802 -14.9178284305241 0
      vertex 0.6180339887498948 -1.902113032590307 25
      vertex 0.20905692653530694 -1.9890437907365466 25
    endloop
  endfacet
  facet normal 0.18467761354847115 -0.8688398612467628 0.4593598530158547
    outer loop
      vertex 0.6180339887498948 -1.902113032590307 25
      vertex 1.567926949014802 -14.9178284305241 0
      vertex 4.635254915624211 -14.265847744427303 0
    endloop
  endfacet
  facet normal 0.36128392920336266 -0.8114569908113626 0.45935985301585514
    outer loop
      vertex 4.635254915624211 -14.265847744427303 0
      vertex 1 -1.7320508075688772 25
      vertex 0.6180339887498948 -1.902113032590307 25
    endloop
  endfacet
  facet normal 0.3612839292033636 -0.8114569908113624 0.4593598530158547
    outer loop
      vertex 1 -1.7320508075688772 25
      vertex 4.635254915624211 -14.265847744427303 0
      vertex 7.5 -12.990381056766578 0
    endloop
  endfacet
  facet normal 0.5221004035194312 -0.7186095560748537 0.4593598530158561
    outer loop
      vertex 7.5 -12.990381056766578 0
      vertex 1.3382612127177165 -1.4862896509547885 25
      vertex 1 -1.7320508075688772 25
    endloop
  endfacet
  facet normal 0.5221004035194332 -0.718609556074853 0.45935985301585475
    outer loop
      vertex 1.3382612127177165 -1.4862896509547885 25
      vertex 7.5 -12.990381056766578 0
      vertex 10.036959095382873 -11.147172382160914 0
    endloop
  endfacet
  facet normal 0.6600985848860079 -0.5943554354666425 0.45935985301585464
    outer loop
      vertex 1.3382612127177165 -1.4862896509547885 25
      vertex 12.135254915624213 -8.816778784387097 0
      vertex 1.618033988749895 -1.1755705045849463 25
    endloop
  endfacet
  facet normal 0.6600985848860077 -0.5943554354666427 0.45935985301585464
    outer loop
      vertex 12.135254915624213 -8.816778784387097 0
      vertex 1.3382612127177165 -1.4862896509547885 25
      vertex 10.036959095382873 -11.147172382160914 0
    endloop
  endfacet
  facet normal 0.7692472905886244 -0.44412513029473233 0.4593598530158547
    outer loop
      vertex 1.618033988749895 -1.1755705045849463 25
      vertex 13.703181864639014 -6.101049646137003 0
      vertex 1.8270909152852017 -0.8134732861516004 25
    endloop
  endfacet
  facet normal 0.7692472905886244 -0.4441251302947323 0.45935985301585464
    outer loop
      vertex 13.703181864639014 -6.101049646137003 0
      vertex 1.618033988749895 -1.1755705045849463 25
      vertex 12.135254915624213 -8.816778784387097 0
    endloop
  endfacet
  facet normal 0.8447761984344788 -0.2744844257801206 0.45935985301585464
    outer loop
      vertex 1.8270909152852017 -0.8134732861516004 25
      vertex 14.672214011007085 -3.1186753622663903 0
      vertex 1.9562952014676114 -0.4158233816355187 25
    endloop
  endfacet
  facet normal 0.8447761984344788 -0.27448442578012044 0.45935985301585464
    outer loop
      vertex 14.672214011007085 -3.1186753622663903 0
      vertex 1.8270909152852017 -0.8134732861516004 25
      vertex 13.703181864639014 -6.101049646137003 0
    endloop
  endfacet
  facet normal 0.8833843327227975 -0.0928474347365093 0.45935985301585464
    outer loop
      vertex 1.9562952014676114 -0.4158233816355187 25
      vertex 15 0 0
      vertex 2 0 25
    endloop
  endfacet
  facet normal 0.8833843327227974 -0.09284743473650929 0.4593598530158547
    outer loop
      vertex 15 0 0
      vertex 1.9562952014676114 -0.4158233816355187 25
      vertex 14.672214011007085 -3.1186753622663903 0
    endloop
  endfacet
  facet normal 0 0 -1
    outer loop
      vertex 14.672214011007085 -3.1186753622663903 0
      vertex 14.672214011007085 3.1186753622663903 0
      vertex 15 0 0
    endloop
  endfacet
  facet normal 0 0 -1
    outer loop
      vertex 13.703181864639014 -6.101049646137003 0
      vertex 14.672214011007085 3.1186753622663903 0
      vertex 14.672214011007085 -3.1186753622663903 0
    endloop
  endfacet
  facet normal 0 0 -1
    outer loop
      vertex 13.703181864639014 -6.101049646137003 0
      vertex 13.703181864639014 6.101049646137003 0
      vertex 14.672214011007085 3.1186753622663903 0
    endloop
  endfacet
  facet normal 0 0 -1
    outer loop
      vertex 12.135254915624213 -8.816778784387097 0
      vertex 13.703181864639014 6.101049646137003 0
      vertex 13.703181864639014 -6.101049646137003 0
    endloop
  endfacet
  facet normal 0 0 -1
    outer loop
      vertex 12.135254915624213 -8.816778784387097 0
      vertex 12.135254915624213 8.816778784387097 0
      vertex 13.703181864639014 6.101049646137003 0
    endloop
  endfacet
  facet normal 0 0 -1
    outer loop
      vertex 10.036959095382873 -11.147172382160914 0
      vertex 12.135254915624213 8.816778784387097 0
      vertex 12.135254915624213 -8.816778784387097 0
    endloop
  endfacet
  facet normal 0 0 -1
    outer loop
      vertex 10.036959095382873 -11.147172382160914 0
      vertex 10.036959095382873 11.147172382160914 0
      vertex 12.135254915624213 8.816778784387097 0
    endloop
  endfacet
  facet normal 0 0 -1
    outer loop
      vertex 7.5 -12.990381056766578 0
      vertex 10.036959095382873 11.147172382160914 0
      vertex 10.036959095382873 -11.147172382160914 0
    endloop
  endfacet
  facet normal 0 0 -1
    outer loop
      vertex 7.5 -12.990381056766578 0
      vertex 7.5 12.990381056766578 0
      vertex 10.036959095382873 11.147172382160914 0
    endloop
  endfacet
  facet normal 0 0 -1
    outer loop
      vertex 4.635254915624211 -14.265847744427303 0
      vertex 7.5 12.990381056766578 0
      vertex 7.5 -12.990381056766578 0
    endloop
  endfacet
  facet normal 0 0 -1
    outer loop
      vertex 4.635254915624211 -14.265847744427303 0
      vertex 4.635254915624211 14.265847744427303 0
      vertex 7.5 12.990381056766578 0
    endloop
  endfacet
  facet normal 0 0 -1
    outer loop
      vertex 1.567926949014802 -14.9178284305241 0
      vertex 4.635254915624211 14.265847744427303 0
      vertex 4.635254915624211 -14.265847744427303 0
    endloop
  endfacet
  facet normal 0 0 -1
    outer loop
      vertex 1.567926949014802 -14.9178284305241 0
      vertex 1.567926949014802 14.9178284305241 0
      vertex 4.635254915624211 14.265847744427303 0
    endloop
  endfacet
  facet normal 0 0 -1
    outer loop
      vertex -1.567926949014802 -14.9178284305241 0
      vertex 1.567926949014802 14.9178284305241 0
      vertex 1.567926949014802 -14.9178284305241 0
    endloop
  endfacet
  facet normal 0 0 -1
    outer loop
      vertex -1.567926949014802 -14.9178284305241 0
      vertex -1.567926949014802 14.9178284305241 0
      vertex 1.567926949014802 14.9178284305241 0
    endloop
  endfacet
  facet normal 0 0 -1
    outer loop
      vertex -4.635254915624211 -14.265847744427303 0
      vertex -1.567926949014802 14.9178284305241 0
      vertex -1.567926949014802 -14.9178284305241 0
    endloop
  endfacet
  facet normal 0 0 -1
    outer loop
      vertex -4.635254915624211 -14.265847744427303 0
      vertex -4.635254915624211 14.265847744427303 0
      vertex -1.567926949014802 14.9178284305241 0
    endloop
  endfacet
  facet normal 0 0 -1
    outer loop
      vertex -7.5 -12.990381056766578 0
      vertex -4.635254915624211 14.265847744427303 0
      vertex -4.635254915624211 -14.265847744427303 0
    endloop
  endfacet
  facet normal 0 0 -1
    outer loop
      vertex -7.5 -12.990381056766578 0
      vertex -7.5 12.990381056766578 0
      vertex -4.635254915624211 14.265847744427303 0
    endloop
  endfacet
  facet normal 0 0 -1
    outer loop
      vertex -10.036959095382873 -11.147172382160914 0
      vertex -7.5 12.990381056766578 0
      vertex -7.5 -12.990381056766578 0
    endloop
  endfacet
  facet normal 0 0 -1
    outer loop
      vertex -10.036959095382873 -11.147172382160914 0
      vertex -10.036959095382873 11.147172382160914 0
      vertex -7.5 12.990381056766578 0
    endloop
  endfacet
  facet normal 0 0 -1
    outer loop
      vertex -12.135254915624213 -8.816778784387097 0
      vertex -10.036959095382873 11.147172382160914 0
      vertex -10.036959095382873 -11.147172382160914 0
    endloop
  endfacet
  facet normal 0 0 -1
    outer loop
      vertex -12.135254915624213 -8.816778784387097 0
      vertex -12.135254915624213 8.816778784387097 0
      vertex -10.036959095382873 11.147172382160914 0
    endloop
  endfacet
  facet normal 0 0 -1
    outer loop
      vertex -13.703181864639014 -6.101049646137003 0
      vertex -12.135254915624213 8.816778784387097 0
      vertex -12.135254915624213 -8.816778784387097 0
    endloop
  endfacet
  facet normal 0 0 -1
    outer loop
      vertex -13.703181864639014 -6.101049646137003 0
      vertex -13.703181864639014 6.101049646137003 0
      vertex -12.135254915624213 8.816778784387097 0
    endloop
  endfacet
  facet normal 0 0 -1
    outer loop
      vertex -14.672214011007085 -3.1186753622663903 0
      vertex -13.703181864639014 6.101049646137003 0
      vertex -13.703181864639014 -6.101049646137003 0
    endloop
  endfacet
  facet normal 0 0 -1
    outer loop
      vertex -14.672214011007085 -3.1186753622663903 0
      vertex -14.672214011007085 3.1186753622663903 0
      vertex -13.703181864639014 6.101049646137003 0
    endloop
  endfacet
  facet normal 0 0 -1
    outer loop
      vertex -14.672214011007085 3.1186753622663903 0
      vertex -14.672214011007085 -3.1186753622663903 0
      vertex -15 0 0
    endloop
  endfacet
  facet normal 0 0 1
    outer loop
      vertex 1.9562952014676114 0.4158233816355187 25
      vertex 1.9562952014676114 -0.4158233816355187 25
      vertex 2 0 25
    endloop
  endfacet
  facet normal 0 0 1
    outer loop
      vertex 1.8270909152852017 0.8134732861516004 25
      vertex 1.9562952014676114 -0.4158233816355187 25
      vertex 1.9562952014676114 0.4158233816355187 25
    endloop
  endfacet
  facet normal 0 0 1
    outer loop
      vertex 1.8270909152852017 0.8134732861516004 25
      vertex 1.8270909152852017 -0.8134732861516004 25
      vertex 1.9562952014676114 -0.4158233816355187 25
    endloop
  endfacet
  facet normal 0 0 1
    outer loop
      vertex 1.618033988749895 1.1755705045849463 25
      vertex 1.8270909152852017 -0.8134732861516004 25
      vertex 1.8270909152852017 0.8134732861516004 25
    endloop
  endfacet
  facet normal 0 0 1
    outer loop
      vertex 1.618033988749895 1.1755705045849463 25
      vertex 1.618033988749895 -1.1755705045849463 25
      vertex 1.8270909152852017 -0.8134732861516004 25
    endloop
  endfacet
  facet normal 0 0 1
    outer loop
      vertex 1.3382612127177165 1.4862896509547885 25
      vertex 1.618033988749895 -1.1755705045849463 25
      vertex 1.618033988749895 1.1755705045849463 25
    endloop
  endfacet
  facet normal 0 0 1
    outer loop
      vertex 1.3382612127177165 1.4862896509547885 25
      vertex 1.3382612127177165 -1.4862896509547885 25
      vertex 1.618033988749895 -1.1755705045849463 25
    endloop
  endfacet
  facet normal 0 0 1
    outer loop
      vertex 1 1.7320508075688772 25
      vertex 1.3382612127177165 -1.4862896509547885 25
      vertex 1.3382612127177165 1.4862896509547885 25
    endloop
  endfacet
  facet normal 0 0 1
    outer loop
      vertex 1 1.7320508075688772 25
      vertex 1 -1.7320508075688772 25
      vertex 1.3382612127177165 -1.4862896509547885 25
    endloop
  endfacet
  facet normal 0 0 1
    outer loop
      vertex 0.6180339887498948 1.902113032590307 25
      vertex 1 -1.7320508075688772 25
      vertex 1 1.7320508075688772 25
    endloop
  endfacet
  facet normal 0 0 1
    outer loop
      vertex 0.6180339887498948 1.902113032590307 25
      vertex 0.6180339887498948 -1.902113032590307 25
      vertex 1 -1.7320508075688772 25
    endloop
  endfacet
  facet normal 0 0 1
    outer loop
      vertex 0.20905692653530694 1.9890437907365466 25
      vertex 0.6180339887498948 -1.902113032590307 25
      vertex 0.6180339887498948 1.902113032590307 25
    endloop
  endfacet
  facet normal 0 0 1
    outer loop
      vertex 0.20905692653530694 1.9890437907365466 25
      vertex 0.20905692653530694 -1.9890437907365466 25
      vertex 0.6180339887498948 -1.902113032590307 25
    endloop
  endfacet
  facet normal 0 0 1
    outer loop
      vertex -0.20905692653530694 1.9890437907365466 25
      vertex 0.20905692653530694 -1.9890437907365466 25
      vertex 0.20905692653530694 1.9890437907365466 25
    endloop
  endfacet
  facet normal 0 0 1
    outer loop
      vertex -0.20905692653530694 1.9890437907365466 25
      vertex -0.20905692653530694 -1.9890437907365466 25
      vertex 0.20905692653530694 -1.9890437907365466 25
    endloop
  endfacet
  facet normal 0 0 1
    outer loop
      vertex -0.6180339887498948 1.902113032590307 25
      vertex -0.20905692653530694 -1.9890437907365466 25
      vertex -0.20905692653530694 1.9890437907365466 25
    endloop
  endfacet
  facet normal 0 0 1
    outer loop
      vertex -0.6180339887498948 1.902113032590307 25
      vertex -0.6180339887498948 -1.902113032590307 25
      vertex -0.20905692653530694 -1.9890437907365466 25
    endloop
  endfacet
  facet normal 0 0 1
    outer loop
      vertex -1 1.7320508075688772 25
      vertex -0.6180339887498948 -1.902113032590307 25
      vertex -0.6180339887498948 1.902113032590307 25
    endloop
  endfacet
  facet normal 0 0 1
    outer loop
      vertex -1 1.7320508075688772 25
      vertex -1 -1.7320508075688772 25
      vertex -0.6180339887498948 -1.902113032590307 25
    endloop
  endfacet
  facet normal 0 0 1
    outer loop
      vertex -1.3382612127177165 1.4862896509547885 25
      vertex -1 -1.7320508075688772 25
      vertex -1 1.7320508075688772 25
    endloop
  endfacet
  facet normal 0 0 1
    outer loop
      vertex -1.3382612127177165 1.4862896509547885 25
      vertex -1.3382612127177165 -1.4862896509547885 25
      vertex -1 -1.7320508075688772 25
    endloop
  endfacet
  facet normal 0 0 1
    outer loop
      vertex -1.618033988749895 1.1755705045849463 25
      vertex -1.3382612127177165 -1.4862896509547885 25
      vertex -1.3382612127177165 1.4862896509547885 25
    endloop
  endfacet
  facet normal 0 0 1
    outer loop
      vertex -1.618033988749895 1.1755705045849463 25
      vertex -1.618033988749895 -1.1755705045849463 25
      vertex -1.3382612127177165 -1.4862896509547885 25
    endloop
  endfacet
  facet normal 0 0 1
    outer loop
      vertex -1.8270909152852017 0.8134732861516004 25
      vertex -1.618033988749895 -1.1755705045849463 25
      vertex -1.618033988749895 1.1755705045849463 25
    endloop
  endfacet
  facet normal 0 0 1
    outer loop
      vertex -1.8270909152852017 0.8134732861516004 25
      vertex -1.8270909152852017 -0.8134732861516004 25
      vertex -1.618033988749895 -1.1755705045849463 25
    endloop
  endfacet
  facet normal 0 0 1
    outer loop
      vertex -1.9562952014676114 0.4158233816355187 25
      vertex -1.8270909152852017 -0.8134732861516004 25
      vertex -1.8270909152852017 0.8134732861516004 25
    endloop
  endfacet
  facet normal 0 0 1
    outer loop
      vertex -1.9562952014676114 0.4158233816355187 25
      vertex -1.9562952014676114 -0.4158233816355187 25
      vertex -1.8270909152852017 -0.8134732861516004 25
    endloop
  endfacet
  facet normal 0 0 1
    outer loop
      vertex -1.9562952014676114 -0.4158233816355187 25
      vertex -1.9562952014676114 0.4158233816355187 25
      vertex -2 0 25
    endloop
  endfacet
endsolid OpenSCAD_Model
