solid OpenSCAD_Model
  facet normal 1 0 0
    outer loop
      vertex 30 0 20
      vertex 30 15 0
      vertex 30 15 20
    endloop
  endfacet
  facet normal 1 0 0
    outer loop
      vertex 30 15 0
      vertex 30 0 20
      vertex 30 0 0
    endloop
  endfacet
  facet normal 0 0 1
    outer loop
      vertex 30 15 20
      vertex 28 13 20
      vertex 30 0 20
    endloop
  endfacet
  facet normal 0 0 1
    outer loop
      vertex 30 15 20
      vertex 2 13 20
      vertex 28 13 20
    endloop
  endfacet
  facet normal 0 0 1
    outer loop
      vertex 2 13 20
      vertex 0 15 20
      vertex 2 2 20
    endloop
  endfacet
  facet normal 0 0 1
    outer loop
      vertex 0 15 20
      vertex 2 13 20
      vertex 30 15 20
    endloop
  endfacet
  facet normal 0 0 1
    outer loop
      vertex 28 2 20
      vertex 30 0 20
      vertex 28 13 20
    endloop
  endfacet
  facet normal 0 0 1
    outer loop
      vertex 2 2 20
      vertex 30 0 20
      vertex 28 2 20
    endloop
  endfacet
  facet normal 0 0 1
    outer loop
      vertex 2 2 20
      vertex 0 0 20
      vertex 30 0 20
    endloop
  endfacet
  facet normal 0 0 1
    outer loop
      vertex 0 0 20
      vertex 2 2 20
      vertex 0 15 20
    endloop
  endfacet
  facet normal 0 0 -1
    outer loop
      vertex 0 0 0
      vertex 30 15 0
      vertex 30 0 0
    endloop
  endfacet
  facet normal 0 0 -1
    outer loop
      vertex 30 15 0
      vertex 0 0 0
      vertex 0 15 0
    endloop
  endfacet
  facet normal -1 0 0
    outer loop
      vertex 0 0 0
      vertex 0 15 20
      vertex 0 15 0
    endloop
  endfacet
  facet normal -1 0 0
    outer loop
      vertex 0 15 20
      vertex 0 0 0
      vertex 0 0 20
    endloop
  endfacet
  facet normal 0 1 0
    outer loop
      vertex 30 15 0
      vertex 0 15 20
      vertex 30 15 20
    endloop
  endfacet
  facet normal 0 1 0
    outer loop
      vertex 0 15 20
      vertex 30 15 0
      vertex 0 15 0
    endloop
  endfacet
  facet normal 0 -1 0
    outer loop
      vertex 0 0 0
      vertex 30 0 20
      vertex 0 0 20
    endloop
  endfacet
  facet normal 0 -1 0
    outer loop
      vertex 30 0 20
      vertex 0 0 0
      vertex 30 0 0
    endloop
  endfacet
  facet normal -1 0 0
    outer loop
      vertex 28 2 2
      vertex 28 13 20
      vertex 28 13 2
    endloop
  endfacet
  facet normal -1 0 0
    outer loop
      vertex 28 13 20
      vertex 28 2 2
      vertex 28 2 20
    endloop
  endfacet
  facet normal 0 0 1
    outer loop
      vertex 2 13 2
      vertex 28 2 2
      vertex 28 13 2
    endloop
  endfacet
  facet normal 0 0 1
    outer loop
      vertex 28 2 2
      vertex 2 13 2
      vertex 2 2 2
    endloop
  endfacet
  facet normal 1 0 0
    outer loop
      vertex 2 2 20
      vertex 2 13 2
      vertex 2 13 20
    endloop
  endfacet
  facet normal 1 0 0
    outer loop
      vertex 2 13 2
      vertex 2 2 20
      vertex 2 2 2
    endloop
  endfacet
  facet normal 0 -1 0
    outer loop
      vertex 2 13 2
      vertex 28 13 20
      vertex 2 13 20
    endloop
  endfacet
  facet normal 0 -1 0
    outer loop
      vertex 28 13 20
      vertex 2 13 2
      vertex 28 13 2
    endloop
  endfacet
  facet normal 0 1 0
    outer loop
      vertex 28 2 2
      vertex 2 2 20
      vertex 28 2 20
    endloop
  endfacet
  facet normal 0 1 0
    outer loop
      vertex 2 2 20
      vertex 28 2 2
      vertex 2 2 2
    endloop
  endfacet
  facet normal 1 0 0
    outer loop
      vertex 30 20 2
      vertex 30 35 0
      vertex 30 35 2
    endloop
  endfacet
  facet normal 1 0 0
    outer loop
      vertex 30 35 0
      vertex 30 20 2
      vertex 30 20 0
    endloop
  endfacet
  facet normal 0 0 1
    outer loop
      vertex 0 35 2
      vertex 30 20 2
      vertex 30 35 2
    endloop
  endfacet
  facet normal 0 0 1
    outer loop
      vertex 30 20 2
      vertex 0 35 2
      vertex 0 20 2
    endloop
  endfacet
  facet normal 0 0 -1
    outer loop
      vertex 0 20 0
      vertex 30 35 0
      vertex 30 20 0
    endloop
  endfacet
  facet normal 0 0 -1
    outer loop
      vertex 30 35 0
      vertex 0 20 0
      vertex 0 35 0
    endloop
  endfacet
  facet normal -1 0 0
    outer loop
      vertex 0 20 0
      vertex 0 35 2
      vertex 0 35 0
    endloop
  endfacet
  facet normal -1 0 0
    outer loop
      vertex 0 35 2
      vertex 0 20 0
      vertex 0 20 2
    endloop
  endfacet
  facet normal 0 1 0
    outer loop
      vertex 30 35 0
      vertex 0 35 2
      vertex 30 35 2
    endloop
  endfacet
  facet normal 0 1 0
    outer loop
      vertex 0 35 2
      vertex 30 35 0
      vertex 0 35 0
    endloop
  endfacet
  facet normal 0 -1 0
    outer loop
      vertex 0 20 0
      vertex 30 20 2
      vertex 0 20 2
    endloop
  endfacet
  facet normal 0 -1 0
    outer loop
      vertex 30 20 2
      vertex 0 20 0
      vertex 30 20 0
    endloop
  endfacet
endsolid OpenSCAD_Model
