solid OpenSCAD_Model
  facet normal 0 0 -1
    outer loop
      vertex -15 -15 -15
      vertex -11 -8 -15
      vertex -11 -15 -15
    endloop
  endfacet
  facet normal 0 0 -1
    outer loop
      vertex -11 -8 -15
      vertex -15 -15 -15
      vertex -15 -8 -15
    endloop
  endfacet
  facet normal -1 0 0
    outer loop
      vertex -15 -15 -15
      vertex -15 -8 -8
      vertex -15 -8 -15
    endloop
  endfacet
  facet normal -1 0 0
    outer loop
      vertex -15 -8 -8
      vertex -15 -15 -15
      vertex -15 -15 -8
    endloop
  endfacet
  facet normal 0 -1 0
    outer loop
      vertex -15 -15 -15
      vertex -11 -15 -8
      vertex -15 -15 -8
    endloop
  endfacet
  facet normal 0 -1 0
    outer loop
      vertex -11 -15 -8
      vertex -15 -15 -15
      vertex -11 -15 -15
    endloop
  endfacet
  facet normal 1 0 0
    outer loop
      vertex 25 -10 23
      vertex 25 20 -7
      vertex 25 20 23
    endloop
  endfacet
  facet normal 1 0 0
    outer loop
      vertex 25 20 -7
      vertex 25 -10 23
      vertex 25 -10 -7
    endloop
  endfacet
  facet normal 0 0 1
    outer loop
      vertex 25 20 23
      vertex 8 18 23
      vertex 25 -10 23
    endloop
  endfacet
  facet normal 0 0 1
    outer loop
      vertex -5 20 23
      vertex 8 18 23
      vertex 25 20 23
    endloop
  endfacet
  facet normal 0 0 1
    outer loop
      vertex 8 18 23
      vertex -5 20 23
      vertex -5 18 23
    endloop
  endfacet
  facet normal 0 0 1
    outer loop
      vertex 25 -10 23
      vertex 8 18 23
      vertex 8 -10 23
    endloop
  endfacet
  facet normal 0 0 -1
    outer loop
      vertex 25 -10 -7
      vertex 23 -7 -7
      vertex 25 20 -7
    endloop
  endfacet
  facet normal 0 0 -1
    outer loop
      vertex 21 -10 -7
      vertex 23 -7 -7
      vertex 25 -10 -7
    endloop
  endfacet
  facet normal 0 0 -1
    outer loop
      vertex 23 -7 -7
      vertex 21 -10 -7
      vertex 21 -7 -7
    endloop
  endfacet
  facet normal 0 0 -1
    outer loop
      vertex 25 20 -7
      vertex 23 -7 -7
      vertex 23 20 -7
    endloop
  endfacet
  facet normal -1 0 0
    outer loop
      vertex -5 18 10
      vertex -5 20 23
      vertex -5 20 10
    endloop
  endfacet
  facet normal -1 0 0
    outer loop
      vertex -5 20 23
      vertex -5 18 10
      vertex -5 18 23
    endloop
  endfacet
  facet normal 0 1 0
    outer loop
      vertex 25 20 23
      vertex 2.249999761581421 20 10
      vertex -5 20 23
    endloop
  endfacet
  facet normal 0 1 0
    outer loop
      vertex 25 20 23
      vertex 23 20 7
      vertex 2.249999761581421 20 10
    endloop
  endfacet
  facet normal 0 1 0
    outer loop
      vertex 25 20 -7
      vertex 23 20 7
      vertex 25 20 23
    endloop
  endfacet
  facet normal 0 1 0
    outer loop
      vertex 23 20 7
      vertex 25 20 -7
      vertex 23 20 -7
    endloop
  endfacet
  facet normal 0 1 0
    outer loop
      vertex -5 20 23
      vertex 2.249999761581421 20 10
      vertex -5 20 10
    endloop
  endfacet
  facet normal 0 1 0
    outer loop
      vertex 2.249999761581421 20 10
      vertex 23 20 7
      vertex 1.9999998807907104 20 7
    endloop
  endfacet
  facet normal 0 -1 0
    outer loop
      vertex 10 -10 22
      vertex 8 -10 23
      vertex 8 -10 22
    endloop
  endfacet
  facet normal 0 -1 0
    outer loop
      vertex 8 -10 23
      vertex 10 -10 22
      vertex 25 -10 23
    endloop
  endfacet
  facet normal 0 -1 0
    outer loop
      vertex 21 -10 18
      vertex 10 -10 22
      vertex 10 -10 18
    endloop
  endfacet
  facet normal 0 -1 0
    outer loop
      vertex 10 -10 22
      vertex 21 -10 18
      vertex 25 -10 23
    endloop
  endfacet
  facet normal 0 -1 0
    outer loop
      vertex 25 -10 -7
      vertex 21 -10 18
      vertex 21 -10 -7
    endloop
  endfacet
  facet normal 0 -1 0
    outer loop
      vertex 21 -10 18
      vertex 25 -10 -7
      vertex 25 -10 23
    endloop
  endfacet
  facet normal 0.16718325902780792 -0.7244618786171385 0.6687336871515949
    outer loop
      vertex 3.8435373306274414 22 7.122448921203613
      vertex 3.6991868019104004 21.85365867614746 7
      vertex 4.333333492279053 22 7
    endloop
  endfacet
  facet normal 0.7357672246405808 -0.6744532600171029 -0.061313874424955755
    outer loop
      vertex 2.249999761581421 20 10
      vertex 3.8435373306274414 22 7.122448921203613
      vertex 4.0833330154418945 22 10
    endloop
  endfacet
  facet normal 0.7357672005584031 -0.674453283586922 -0.06131390414310517
    outer loop
      vertex 1.9999998807907104 20 7
      vertex 3.8435373306274414 22 7.122448921203613
      vertex 2.249999761581421 20 10
    endloop
  endfacet
  facet normal 0.7357671776352384 -0.6744531673033257 -0.061315458321599736
    outer loop
      vertex 3.8435373306274414 22 7.122448921203613
      vertex 1.9999998807907104 20 7
      vertex 3.6991868019104004 21.85365867614746 7
    endloop
  endfacet
  facet normal 0 0 1
    outer loop
      vertex 4.0833330154418945 22 10
      vertex -5 20 10
      vertex 2.249999761581421 20 10
    endloop
  endfacet
  facet normal 0 0 1
    outer loop
      vertex -5 20 10
      vertex -22 18 10
      vertex -5 18 10
    endloop
  endfacet
  facet normal 0 0 1
    outer loop
      vertex -23 22 10
      vertex -5 20 10
      vertex 4.0833330154418945 22 10
    endloop
  endfacet
  facet normal 0 0 1
    outer loop
      vertex -5 20 10
      vertex -23 22 10
      vertex -22 18 10
    endloop
  endfacet
  facet normal 0 0 1
    outer loop
      vertex -23 -8 10
      vertex -22 18 10
      vertex -23 22 10
    endloop
  endfacet
  facet normal 0 0 1
    outer loop
      vertex -22 18 10
      vertex -23 -8 10
      vertex -22 -8 10
    endloop
  endfacet
  facet normal 0 0 -1
    outer loop
      vertex -11 -8 -20
      vertex -23 -8 -20
      vertex -11 11 -20
    endloop
  endfacet
  facet normal 0 0 -1
    outer loop
      vertex -11 11 -20
      vertex -7 22 -20
      vertex -7 11 -20
    endloop
  endfacet
  facet normal 0 0 -1
    outer loop
      vertex -23 22 -20
      vertex -11 11 -20
      vertex -23 -8 -20
    endloop
  endfacet
  facet normal 0 0 -1
    outer loop
      vertex -11 11 -20
      vertex -23 22 -20
      vertex -7 22 -20
    endloop
  endfacet
  facet normal -1 0 0
    outer loop
      vertex -23 -8 -20
      vertex -23 22 10
      vertex -23 22 -20
    endloop
  endfacet
  facet normal -1 0 0
    outer loop
      vertex -23 22 10
      vertex -23 -8 -20
      vertex -23 -8 10
    endloop
  endfacet
  facet normal 0 1 0
    outer loop
      vertex -7 22 7
      vertex 4.0833330154418945 22 10
      vertex 3.8435373306274414 22 7.122448921203613
    endloop
  endfacet
  facet normal 0 1 0
    outer loop
      vertex -7 22 7
      vertex 3.8435373306274414 22 7.122448921203613
      vertex 4.333333492279053 22 7
    endloop
  endfacet
  facet normal 0 1 0
    outer loop
      vertex 4.0833330154418945 22 10
      vertex -7 22 7
      vertex -23 22 10
    endloop
  endfacet
  facet normal 0 1 0
    outer loop
      vertex -23 22 -20
      vertex -7 22 7
      vertex -7 22 -20
    endloop
  endfacet
  facet normal 0 1 0
    outer loop
      vertex -7 22 7
      vertex -23 22 -20
      vertex -23 22 10
    endloop
  endfacet
  facet normal 0 -1 0
    outer loop
      vertex -23 -8 10
      vertex -22 -8 -6
      vertex -22 -8 10
    endloop
  endfacet
  facet normal 0 -1 0
    outer loop
      vertex -22 -8 -6
      vertex -20 -8 -8
      vertex -20 -8 -6
    endloop
  endfacet
  facet normal 0 -1 0
    outer loop
      vertex -20 -8 -8
      vertex -15 -8 -15
      vertex -15 -8 -8
    endloop
  endfacet
  facet normal 0 -1 0
    outer loop
      vertex -23 -8 -20
      vertex -20 -8 -8
      vertex -22 -8 -6
    endloop
  endfacet
  facet normal 0 -1 0
    outer loop
      vertex -23 -8 -20
      vertex -22 -8 -6
      vertex -23 -8 10
    endloop
  endfacet
  facet normal 0 -1 0
    outer loop
      vertex -20 -8 -8
      vertex -23 -8 -20
      vertex -15 -8 -15
    endloop
  endfacet
  facet normal 0 -1 0
    outer loop
      vertex -11 -8 -20
      vertex -15 -8 -15
      vertex -23 -8 -20
    endloop
  endfacet
  facet normal 0 -1 0
    outer loop
      vertex -15 -8 -15
      vertex -11 -8 -20
      vertex -11 -8 -15
    endloop
  endfacet
  facet normal 1 0 0
    outer loop
      vertex 21 -10 18
      vertex 21 -24 18
      vertex 21 -10 -7
    endloop
  endfacet
  facet normal 1 0 0
    outer loop
      vertex 21 -10 -7
      vertex 21 -7 -12
      vertex 21 -7 -7
    endloop
  endfacet
  facet normal 1 0 0
    outer loop
      vertex 21 -10 -7
      vertex 21 -24 -12
      vertex 21 -7 -12
    endloop
  endfacet
  facet normal 1 0 0
    outer loop
      vertex 21 -24 -12
      vertex 21 -10 -7
      vertex 21 -24 18
    endloop
  endfacet
  facet normal 0 0 1
    outer loop
      vertex 10 -21 18
      vertex 21 -10 18
      vertex 10 -10 18
    endloop
  endfacet
  facet normal 0 0 1
    outer loop
      vertex 21 -10 18
      vertex 10 -21 18
      vertex 21 -24 18
    endloop
  endfacet
  facet normal 0 0 1
    outer loop
      vertex -9 -24 18
      vertex 10 -21 18
      vertex -9 -21 18
    endloop
  endfacet
  facet normal 0 0 1
    outer loop
      vertex 10 -21 18
      vertex -9 -24 18
      vertex 21 -24 18
    endloop
  endfacet
  facet normal 0 0 -1
    outer loop
      vertex 21 -24 -12
      vertex 19 -19 -12
      vertex 21 -7 -12
    endloop
  endfacet
  facet normal 0 0 -1
    outer loop
      vertex -9 -24 -12
      vertex 19 -19 -12
      vertex 21 -24 -12
    endloop
  endfacet
  facet normal 0 0 -1
    outer loop
      vertex 19 -19 -12
      vertex -9 -24 -12
      vertex -9 -19 -12
    endloop
  endfacet
  facet normal 0 0 -1
    outer loop
      vertex 21 -7 -12
      vertex 19 -19 -12
      vertex 19 -7 -12
    endloop
  endfacet
  facet normal -1 0 0
    outer loop
      vertex -9 -19 -12
      vertex -9 -21 -8
      vertex -9 -19 -8
    endloop
  endfacet
  facet normal -1 0 0
    outer loop
      vertex -9 -24 -12
      vertex -9 -21 -8
      vertex -9 -19 -12
    endloop
  endfacet
  facet normal -1 0 0
    outer loop
      vertex -9 -24 18
      vertex -9 -21 -8
      vertex -9 -24 -12
    endloop
  endfacet
  facet normal -1 0 0
    outer loop
      vertex -9 -21 -8
      vertex -9 -24 18
      vertex -9 -21 18
    endloop
  endfacet
  facet normal 0 -1 0
    outer loop
      vertex -9 -24 -12
      vertex 21 -24 18
      vertex -9 -24 18
    endloop
  endfacet
  facet normal 0 -1 0
    outer loop
      vertex 21 -24 18
      vertex -9 -24 -12
      vertex 21 -24 -12
    endloop
  endfacet
  facet normal 1 0 0
    outer loop
      vertex 10 -21 22
      vertex 10 -10 18
      vertex 10 -10 22
    endloop
  endfacet
  facet normal 1 0 0
    outer loop
      vertex 10 -10 18
      vertex 10 -21 22
      vertex 10 -21 18
    endloop
  endfacet
  facet normal 0 0 1
    outer loop
      vertex 8 -12 22
      vertex 10 -10 22
      vertex 8 -10 22
    endloop
  endfacet
  facet normal 0 0 1
    outer loop
      vertex 10 -10 22
      vertex 8 -12 22
      vertex 10 -21 22
    endloop
  endfacet
  facet normal 0 0 1
    outer loop
      vertex -20 -21 22
      vertex 8 -12 22
      vertex -20 -12 22
    endloop
  endfacet
  facet normal 0 0 1
    outer loop
      vertex 8 -12 22
      vertex -20 -21 22
      vertex 10 -21 22
    endloop
  endfacet
  facet normal 0 0 -1
    outer loop
      vertex -9 -21 -8
      vertex -11 -19 -8
      vertex -9 -19 -8
    endloop
  endfacet
  facet normal 0 0 -1
    outer loop
      vertex -11 -19 -8
      vertex -15 -15 -8
      vertex -11 -15 -8
    endloop
  endfacet
  facet normal 0 0 -1
    outer loop
      vertex -20 -21 -8
      vertex -11 -19 -8
      vertex -9 -21 -8
    endloop
  endfacet
  facet normal 0 0 -1
    outer loop
      vertex -11 -19 -8
      vertex -20 -21 -8
      vertex -15 -15 -8
    endloop
  endfacet
  facet normal 0 0 -1
    outer loop
      vertex -20 -8 -8
      vertex -15 -15 -8
      vertex -20 -21 -8
    endloop
  endfacet
  facet normal 0 0 -1
    outer loop
      vertex -15 -15 -8
      vertex -20 -8 -8
      vertex -15 -8 -8
    endloop
  endfacet
  facet normal -1 0 0
    outer loop
      vertex -20 -8 -8
      vertex -20 -12 -6
      vertex -20 -8 -6
    endloop
  endfacet
  facet normal -1 0 0
    outer loop
      vertex -20 -21 -8
      vertex -20 -12 -6
      vertex -20 -8 -8
    endloop
  endfacet
  facet normal -1 0 0
    outer loop
      vertex -20 -21 22
      vertex -20 -12 -6
      vertex -20 -21 -8
    endloop
  endfacet
  facet normal -1 0 0
    outer loop
      vertex -20 -12 -6
      vertex -20 -21 22
      vertex -20 -12 22
    endloop
  endfacet
  facet normal 0 -1 0
    outer loop
      vertex -20 -21 22
      vertex -9 -21 18
      vertex 10 -21 22
    endloop
  endfacet
  facet normal 0 -1 0
    outer loop
      vertex -20 -21 -8
      vertex -9 -21 18
      vertex -20 -21 22
    endloop
  endfacet
  facet normal 0 -1 0
    outer loop
      vertex -9 -21 18
      vertex -20 -21 -8
      vertex -9 -21 -8
    endloop
  endfacet
  facet normal 0 -1 0
    outer loop
      vertex 10 -21 22
      vertex -9 -21 18
      vertex 10 -21 18
    endloop
  endfacet
  facet normal -0.8320502943378436 -0.5547001962252291 0
    outer loop
      vertex -4.722179412841797 -7 -23
      vertex -7 -3.5832691192626953 -21
      vertex -7 -3.5832691192626953 -23
    endloop
  endfacet
  facet normal -0.8320502943378436 -0.5547001962252291 0
    outer loop
      vertex -7 -3.5832691192626953 -21
      vertex -4.722179412841797 -7 -23
      vertex -4.722179412841797 -7 -21
    endloop
  endfacet
  facet normal 1 0 0
    outer loop
      vertex 23 20 -7
      vertex 23 23 7
      vertex 23 20 7
    endloop
  endfacet
  facet normal 1 0 0
    outer loop
      vertex 23 23 7
      vertex 23 20 -7
      vertex 23 23 -23
    endloop
  endfacet
  facet normal 1 0 0
    outer loop
      vertex 23 -7 -23
      vertex 23 20 -7
      vertex 23 -7 -7
    endloop
  endfacet
  facet normal 1 0 0
    outer loop
      vertex 23 20 -7
      vertex 23 -7 -23
      vertex 23 23 -23
    endloop
  endfacet
  facet normal 0 0 1
    outer loop
      vertex 23 23 7
      vertex 4.333333492279053 22 7
      vertex 23 20 7
    endloop
  endfacet
  facet normal 0 0 1
    outer loop
      vertex -7 23 7
      vertex 4.333333492279053 22 7
      vertex 23 23 7
    endloop
  endfacet
  facet normal 0 0 1
    outer loop
      vertex 4.333333492279053 22 7
      vertex -7 23 7
      vertex -7 22 7
    endloop
  endfacet
  facet normal 0 0 1
    outer loop
      vertex 1.9999998807907104 20 7
      vertex 4.333333492279053 22 7
      vertex 3.6991868019104004 21.85365867614746 7
    endloop
  endfacet
  facet normal 0 0 1
    outer loop
      vertex 4.333333492279053 22 7
      vertex 1.9999998807907104 20 7
      vertex 23 20 7
    endloop
  endfacet
  facet normal 0 0 -1
    outer loop
      vertex -7 -3.5832691192626953 -23
      vertex 23 -7 -23
      vertex -4.722179412841797 -7 -23
    endloop
  endfacet
  facet normal 0 0 -1
    outer loop
      vertex 23 -7 -23
      vertex -7 -3.5832691192626953 -23
      vertex 23 23 -23
    endloop
  endfacet
  facet normal 0 0 -1
    outer loop
      vertex 23 23 -23
      vertex -7 -3.5832691192626953 -23
      vertex -7 23 -23
    endloop
  endfacet
  facet normal -1 0 0
    outer loop
      vertex -7 23 -23
      vertex -7 22 -20
      vertex -7 23 7
    endloop
  endfacet
  facet normal -1 0 0
    outer loop
      vertex -7 23 -23
      vertex -7 11 -21
      vertex -7 22 -20
    endloop
  endfacet
  facet normal -1 0 0
    outer loop
      vertex -7 -3.5832691192626953 -23
      vertex -7 11 -21
      vertex -7 23 -23
    endloop
  endfacet
  facet normal -1 0 0
    outer loop
      vertex -7 11 -21
      vertex -7 -3.5832691192626953 -23
      vertex -7 -3.5832691192626953 -21
    endloop
  endfacet
  facet normal -1 0 0
    outer loop
      vertex -7 23 7
      vertex -7 22 -20
      vertex -7 22 7
    endloop
  endfacet
  facet normal -1 0 0
    outer loop
      vertex -7 22 -20
      vertex -7 11 -21
      vertex -7 11 -20
    endloop
  endfacet
  facet normal 0 1 0
    outer loop
      vertex 23 23 -23
      vertex -7 23 7
      vertex 23 23 7
    endloop
  endfacet
  facet normal 0 1 0
    outer loop
      vertex -7 23 7
      vertex 23 23 -23
      vertex -7 23 -23
    endloop
  endfacet
  facet normal 0 -1 0
    outer loop
      vertex 19 -7 -12
      vertex 19 -7 -21
      vertex 21 -7 -12
    endloop
  endfacet
  facet normal 0 -1 0
    outer loop
      vertex 21 -7 -12
      vertex 23 -7 -7
      vertex 21 -7 -7
    endloop
  endfacet
  facet normal 0 -1 0
    outer loop
      vertex 23 -7 -23
      vertex 21 -7 -12
      vertex 19 -7 -21
    endloop
  endfacet
  facet normal 0 -1 0
    outer loop
      vertex 21 -7 -12
      vertex 23 -7 -23
      vertex 23 -7 -7
    endloop
  endfacet
  facet normal 0 -1 0
    outer loop
      vertex 23 -7 -23
      vertex 19 -7 -21
      vertex -4.722179412841797 -7 -23
    endloop
  endfacet
  facet normal 0 -1 0
    outer loop
      vertex -4.722179412841797 -7 -21
      vertex -4.722179412841797 -7 -23
      vertex 19 -7 -21
    endloop
  endfacet
  facet normal 1 0 0
    outer loop
      vertex 8 18 24
      vertex 8 -10 23
      vertex 8 18 23
    endloop
  endfacet
  facet normal 1 0 0
    outer loop
      vertex 8 -12 24
      vertex 8 -10 23
      vertex 8 18 24
    endloop
  endfacet
  facet normal 1 0 0
    outer loop
      vertex 8 -12 22
      vertex 8 -10 23
      vertex 8 -12 24
    endloop
  endfacet
  facet normal 1 0 0
    outer loop
      vertex 8 -10 23
      vertex 8 -12 22
      vertex 8 -10 22
    endloop
  endfacet
  facet normal 0 0 1
    outer loop
      vertex -22 18 24
      vertex 8 -12 24
      vertex 8 18 24
    endloop
  endfacet
  facet normal 0 0 1
    outer loop
      vertex 8 -12 24
      vertex -22 18 24
      vertex -22 -12 24
    endloop
  endfacet
  facet normal 0 0 -1
    outer loop
      vertex -22 -12 -6
      vertex -20 -8 -6
      vertex -20 -12 -6
    endloop
  endfacet
  facet normal 0 0 -1
    outer loop
      vertex -20 -8 -6
      vertex -22 -12 -6
      vertex -22 -8 -6
    endloop
  endfacet
  facet normal -1 0 0
    outer loop
      vertex -22 -8 -6
      vertex -22 -12 -6
      vertex -22 -8 10
    endloop
  endfacet
  facet normal -1 0 0
    outer loop
      vertex -22 -8 10
      vertex -22 18 24
      vertex -22 18 10
    endloop
  endfacet
  facet normal -1 0 0
    outer loop
      vertex -22 -8 10
      vertex -22 -12 24
      vertex -22 18 24
    endloop
  endfacet
  facet normal -1 0 0
    outer loop
      vertex -22 -12 24
      vertex -22 -8 10
      vertex -22 -12 -6
    endloop
  endfacet
  facet normal 0 1 0
    outer loop
      vertex -5 18 23
      vertex 8 18 24
      vertex 8 18 23
    endloop
  endfacet
  facet normal 0 1 0
    outer loop
      vertex 8 18 24
      vertex -5 18 23
      vertex -22 18 24
    endloop
  endfacet
  facet normal 0 1 0
    outer loop
      vertex -22 18 10
      vertex -5 18 23
      vertex -5 18 10
    endloop
  endfacet
  facet normal 0 1 0
    outer loop
      vertex -5 18 23
      vertex -22 18 10
      vertex -22 18 24
    endloop
  endfacet
  facet normal 0 -1 0
    outer loop
      vertex -22 -12 24
      vertex -20 -12 22
      vertex 8 -12 24
    endloop
  endfacet
  facet normal 0 -1 0
    outer loop
      vertex -22 -12 -6
      vertex -20 -12 22
      vertex -22 -12 24
    endloop
  endfacet
  facet normal 0 -1 0
    outer loop
      vertex -20 -12 22
      vertex -22 -12 -6
      vertex -20 -12 -6
    endloop
  endfacet
  facet normal 0 -1 0
    outer loop
      vertex 8 -12 24
      vertex -20 -12 22
      vertex 8 -12 22
    endloop
  endfacet
  facet normal 1 0 0
    outer loop
      vertex 19 -19 -12
      vertex 19 -7 -21
      vertex 19 -7 -12
    endloop
  endfacet
  facet normal 1 0 0
    outer loop
      vertex 19 -7 -21
      vertex 19 -19 -12
      vertex 19 -19 -21
    endloop
  endfacet
  facet normal 0 0 -1
    outer loop
      vertex 19 -19 -21
      vertex -4.722179412841797 -7 -21
      vertex 19 -7 -21
    endloop
  endfacet
  facet normal 0 0 -1
    outer loop
      vertex -11 -19 -21
      vertex -4.722179412841797 -7 -21
      vertex 19 -19 -21
    endloop
  endfacet
  facet normal 0 0 -1
    outer loop
      vertex -11 -19 -21
      vertex -7 -3.5832691192626953 -21
      vertex -4.722179412841797 -7 -21
    endloop
  endfacet
  facet normal 0 0 -1
    outer loop
      vertex -11 11 -21
      vertex -7 -3.5832691192626953 -21
      vertex -11 -19 -21
    endloop
  endfacet
  facet normal 0 0 -1
    outer loop
      vertex -7 -3.5832691192626953 -21
      vertex -11 11 -21
      vertex -7 11 -21
    endloop
  endfacet
  facet normal -1 0 0
    outer loop
      vertex -11 11 -21
      vertex -11 -8 -20
      vertex -11 11 -20
    endloop
  endfacet
  facet normal -1 0 0
    outer loop
      vertex -11 -8 -20
      vertex -11 -15 -15
      vertex -11 -8 -15
    endloop
  endfacet
  facet normal -1 0 0
    outer loop
      vertex -11 -19 -21
      vertex -11 -8 -20
      vertex -11 11 -21
    endloop
  endfacet
  facet normal -1 0 0
    outer loop
      vertex -11 -19 -21
      vertex -11 -15 -15
      vertex -11 -8 -20
    endloop
  endfacet
  facet normal -1 0 0
    outer loop
      vertex -11 -19 -8
      vertex -11 -15 -15
      vertex -11 -19 -21
    endloop
  endfacet
  facet normal -1 0 0
    outer loop
      vertex -11 -15 -15
      vertex -11 -19 -8
      vertex -11 -15 -8
    endloop
  endfacet
  facet normal 0 1 0
    outer loop
      vertex -7 11 -21
      vertex -11 11 -20
      vertex -7 11 -20
    endloop
  endfacet
  facet normal 0 1 0
    outer loop
      vertex -11 11 -20
      vertex -7 11 -21
      vertex -11 11 -21
    endloop
  endfacet
  facet normal 0 -1 0
    outer loop
      vertex -11 -19 -8
      vertex -9 -19 -12
      vertex -9 -19 -8
    endloop
  endfacet
  facet normal 0 -1 0
    outer loop
      vertex -11 -19 -21
      vertex -9 -19 -12
      vertex -11 -19 -8
    endloop
  endfacet
  facet normal 0 -1 0
    outer loop
      vertex 19 -19 -21
      vertex -9 -19 -12
      vertex -11 -19 -21
    endloop
  endfacet
  facet normal 0 -1 0
    outer loop
      vertex -9 -19 -12
      vertex 19 -19 -21
      vertex 19 -19 -12
    endloop
  endfacet
endsolid OpenSCAD_Model
