solid OpenSCAD_Model
  facet normal 0.9969173337331281 0.07845909572784411 0
    outer loop
      vertex 10 0 30
      vertex 9.876883405951379 1.5643446504023086 0
      vertex 9.876883405951379 1.5643446504023086 30
    endloop
  endfacet
  facet normal 0.9969173337331281 0.07845909572784411 0
    outer loop
      vertex 9.876883405951379 1.5643446504023086 0
      vertex 10 0 30
      vertex 10 0 0
    endloop
  endfacet
  facet normal 0.9723699203976762 0.23344536385590686 0
    outer loop
      vertex 9.876883405951379 1.5643446504023086 30
      vertex 9.510565162951535 3.090169943749474 0
      vertex 9.510565162951535 3.090169943749474 30
    endloop
  endfacet
  facet normal 0.9723699203976762 0.23344536385590686 0
    outer loop
      vertex 9.510565162951535 3.090169943749474 0
      vertex 9.876883405951379 1.5643446504023086 30
      vertex 9.876883405951379 1.5643446504023086 0
    endloop
  endfacet
  facet normal 0.923879532511287 0.38268343236508917 0
    outer loop
      vertex 9.510565162951535 3.090169943749474 30
      vertex 8.910065241883679 4.5399049973954675 0
      vertex 8.910065241883679 4.5399049973954675 30
    endloop
  endfacet
  facet normal 0.923879532511287 0.38268343236508917 0
    outer loop
      vertex 8.910065241883679 4.5399049973954675 0
      vertex 9.510565162951535 3.090169943749474 30
      vertex 9.510565162951535 3.090169943749474 0
    endloop
  endfacet
  facet normal 0.8526401643540924 0.5224985647159486 0
    outer loop
      vertex 8.910065241883679 4.5399049973954675 30
      vertex 8.090169943749475 5.877852522924732 0
      vertex 8.090169943749475 5.877852522924732 30
    endloop
  endfacet
  facet normal 0.8526401643540924 0.5224985647159486 0
    outer loop
      vertex 8.090169943749475 5.877852522924732 0
      vertex 8.910065241883679 4.5399049973954675 30
      vertex 8.910065241883679 4.5399049973954675 0
    endloop
  endfacet
  facet normal 0.7604059656000309 0.6494480483301838 0
    outer loop
      vertex 8.090169943749475 5.877852522924732 30
      vertex 7.0710678118654755 7.0710678118654755 0
      vertex 7.0710678118654755 7.0710678118654755 30
    endloop
  endfacet
  facet normal 0.7604059656000309 0.6494480483301838 0
    outer loop
      vertex 7.0710678118654755 7.0710678118654755 0
      vertex 8.090169943749475 5.877852522924732 30
      vertex 8.090169943749475 5.877852522924732 0
    endloop
  endfacet
  facet normal 0.6494480483301838 0.7604059656000309 0
    outer loop
      vertex 7.0710678118654755 7.0710678118654755 0
      vertex 5.877852522924732 8.090169943749475 30
      vertex 7.0710678118654755 7.0710678118654755 30
    endloop
  endfacet
  facet normal 0.6494480483301838 0.7604059656000309 0
    outer loop
      vertex 5.877852522924732 8.090169943749475 30
      vertex 7.0710678118654755 7.0710678118654755 0
      vertex 5.877852522924732 8.090169943749475 0
    endloop
  endfacet
  facet normal 0.5224985647159486 0.8526401643540924 0
    outer loop
      vertex 5.877852522924732 8.090169943749475 0
      vertex 4.5399049973954675 8.910065241883679 30
      vertex 5.877852522924732 8.090169943749475 30
    endloop
  endfacet
  facet normal 0.5224985647159486 0.8526401643540924 0
    outer loop
      vertex 4.5399049973954675 8.910065241883679 30
      vertex 5.877852522924732 8.090169943749475 0
      vertex 4.5399049973954675 8.910065241883679 0
    endloop
  endfacet
  facet normal 0.38268343236508917 0.923879532511287 0
    outer loop
      vertex 4.5399049973954675 8.910065241883679 0
      vertex 3.090169943749474 9.510565162951535 30
      vertex 4.5399049973954675 8.910065241883679 30
    endloop
  endfacet
  facet normal 0.38268343236508917 0.923879532511287 0
    outer loop
      vertex 3.090169943749474 9.510565162951535 30
      vertex 4.5399049973954675 8.910065241883679 0
      vertex 3.090169943749474 9.510565162951535 0
    endloop
  endfacet
  facet normal 0.23344536385590686 0.9723699203976762 0
    outer loop
      vertex 3.090169943749474 9.510565162951535 0
      vertex 1.5643446504023086 9.876883405951379 30
      vertex 3.090169943749474 9.510565162951535 30
    endloop
  endfacet
  facet normal 0.23344536385590686 0.9723699203976762 0
    outer loop
      vertex 1.5643446504023086 9.876883405951379 30
      vertex 3.090169943749474 9.510565162951535 0
      vertex 1.5643446504023086 9.876883405951379 0
    endloop
  endfacet
  facet normal 0.07845909572784411 0.9969173337331281 0
    outer loop
      vertex 1.5643446504023086 9.876883405951379 0
      vertex 0 10 30
      vertex 1.5643446504023086 9.876883405951379 30
    endloop
  endfacet
  facet normal 0.07845909572784411 0.9969173337331281 0
    outer loop
      vertex 0 10 30
      vertex 1.5643446504023086 9.876883405951379 0
      vertex 0 10 0
    endloop
  endfacet
  facet normal -0.07845909572784411 0.9969173337331281 0
    outer loop
      vertex 0 10 0
      vertex -1.5643446504023086 9.876883405951379 30
      vertex 0 10 30
    endloop
  endfacet
  facet normal -0.07845909572784411 0.9969173337331281 0
    outer loop
      vertex -1.5643446504023086 9.876883405951379 30
      vertex 0 10 0
      vertex -1.5643446504023086 9.876883405951379 0
    endloop
  endfacet
  facet normal -0.23344536385590686 0.9723699203976762 0
    outer loop
      vertex -1.5643446504023086 9.876883405951379 0
      vertex -3.090169943749474 9.510565162951535 30
      vertex -1.5643446504023086 9.876883405951379 30
    endloop
  endfacet
  facet normal -0.23344536385590686 0.9723699203976762 0
    outer loop
      vertex -3.090169943749474 9.510565162951535 30
      vertex -1.5643446504023086 9.876883405951379 0
      vertex -3.090169943749474 9.510565162951535 0
    endloop
  endfacet
  facet normal -0.38268343236508917 0.923879532511287 0
    outer loop
      vertex -3.090169943749474 9.510565162951535 0
      vertex -4.5399049973954675 8.910065241883679 30
      vertex -3.090169943749474 9.510565162951535 30
    endloop
  endfacet
  facet normal -0.38268343236508917 0.923879532511287 0
    outer loop
      vertex -4.5399049973954675 8.910065241883679 30
      vertex -3.090169943749474 9.510565162951535 0
      vertex -4.5399049973954675 8.910065241883679 0
    endloop
  endfacet
  facet normal -0.5224985647159486 0.8526401643540924 0
    outer loop
      vertex -4.5399049973954675 8.910065241883679 0
      vertex -5.877852522924732 8.090169943749475 30
      vertex -4.5399049973954675 8.910065241883679 30
    endloop
  endfacet
  facet normal -0.5224985647159486 0.8526401643540924 0
    outer loop
      vertex -5.877852522924732 8.090169943749475 30
      vertex -4.5399049973954675 8.910065241883679 0
      vertex -5.877852522924732 8.090169943749475 0
    endloop
  endfacet
  facet normal -0.6494480483301838 0.7604059656000309 0
    outer loop
      vertex -5.877852522924732 8.090169943749475 0
      vertex -7.0710678118654755 7.0710678118654755 30
      vertex -5.877852522924732 8.090169943749475 30
    endloop
  endfacet
  facet normal -0.6494480483301838 0.7604059656000309 0
    outer loop
      vertex -7.0710678118654755 7.0710678118654755 30
      vertex -5.877852522924732 8.090169943749475 0
      vertex -7.0710678118654755 7.0710678118654755 0
    endloop
  endfacet
  facet normal -0.7604059656000309 0.6494480483301838 0
    outer loop
      vertex -8.090169943749475 5.877852522924732 0
      vertex -7.0710678118654755 7.0710678118654755 30
      vertex -7.0710678118654755 7.0710678118654755 0
    endloop
  endfacet
  facet normal -0.7604059656000309 0.6494480483301838 0
    outer loop
      vertex -7.0710678118654755 7.0710678118654755 30
      vertex -8.090169943749475 5.877852522924732 0
      vertex -8.090169943749475 5.877852522924732 30
    endloop
  endfacet
  facet normal -0.8526401643540924 0.5224985647159486 0
    outer loop
      vertex -8.910065241883679 4.5399049973954675 0
      vertex -8.090169943749475 5.877852522924732 30
      vertex -8.090169943749475 5.877852522924732 0
    endloop
  endfacet
  facet normal -0.8526401643540924 0.5224985647159486 0
    outer loop
      vertex -8.090169943749475 5.877852522924732 30
      vertex -8.910065241883679 4.5399049973954675 0
      vertex -8.910065241883679 4.5399049973954675 30
    endloop
  endfacet
  facet normal -0.923879532511287 0.38268343236508917 0
    outer loop
      vertex -9.510565162951535 3.090169943749474 0
      vertex -8.910065241883679 4.5399049973954675 30
      vertex -8.910065241883679 4.5399049973954675 0
    endloop
  endfacet
  facet normal -0.923879532511287 0.38268343236508917 0
    outer loop
      vertex -8.910065241883679 4.5399049973954675 30
      vertex -9.510565162951535 3.090169943749474 0
      vertex -9.510565162951535 3.090169943749474 30
    endloop
  endfacet
  facet normal -0.9723699203976762 0.23344536385590686 0
    outer loop
      vertex -9.876883405951379 1.5643446504023086 0
      vertex -9.510565162951535 3.090169943749474 30
      vertex -9.510565162951535 3.090169943749474 0
    endloop
  endfacet
  facet normal -0.9723699203976762 0.23344536385590686 0
    outer loop
      vertex -9.510565162951535 3.090169943749474 30
      vertex -9.876883405951379 1.5643446504023086 0
      vertex -9.876883405951379 1.5643446504023086 30
    endloop
  endfacet
  facet normal -0.9969173337331281 0.07845909572784411 0
    outer loop
      vertex -10 0 0
      vertex -9.876883405951379 1.5643446504023086 30
      vertex -9.876883405951379 1.5643446504023086 0
    endloop
  endfacet
  facet normal -0.9969173337331281 0.07845909572784411 0
    outer loop
      vertex -9.876883405951379 1.5643446504023086 30
      vertex -10 0 0
      vertex -10 0 30
    endloop
  endfacet
  facet normal -0.9969173337331281 -0.07845909572784411 0
    outer loop
      vertex -9.876883405951379 -1.5643446504023086 0
      vertex -10 0 30
      vertex -10 0 0
    endloop
  endfacet
  facet normal -0.9969173337331281 -0.07845909572784411 0
    outer loop
      vertex -10 0 30
      vertex -9.876883405951379 -1.5643446504023086 0
      vertex -9.876883405951379 -1.5643446504023086 30
    endloop
  endfacet
  facet normal -0.9723699203976762 -0.23344536385590686 0
    outer loop
      vertex -9.510565162951535 -3.090169943749474 0
      vertex -9.876883405951379 -1.5643446504023086 30
      vertex -9.876883405951379 -1.5643446504023086 0
    endloop
  endfacet
  facet normal -0.9723699203976762 -0.23344536385590686 0
    outer loop
      vertex -9.876883405951379 -1.5643446504023086 30
      vertex -9.510565162951535 -3.090169943749474 0
      vertex -9.510565162951535 -3.090169943749474 30
    endloop
  endfacet
  facet normal -0.923879532511287 -0.38268343236508917 0
    outer loop
      vertex -8.910065241883679 -4.5399049973954675 0
      vertex -9.510565162951535 -3.090169943749474 30
      vertex -9.510565162951535 -3.090169943749474 0
    endloop
  endfacet
  facet normal -0.923879532511287 -0.38268343236508917 0
    outer loop
      vertex -9.510565162951535 -3.090169943749474 30
      vertex -8.910065241883679 -4.5399049973954675 0
      vertex -8.910065241883679 -4.5399049973954675 30
    endloop
  endfacet
  facet normal -0.8526401643540924 -0.5224985647159486 0
    outer loop
      vertex -8.090169943749475 -5.877852522924732 0
      vertex -8.910065241883679 -4.5399049973954675 30
      vertex -8.910065241883679 -4.5399049973954675 0
    endloop
  endfacet
  facet normal -0.8526401643540924 -0.5224985647159486 0
    outer loop
      vertex -8.910065241883679 -4.5399049973954675 30
      vertex -8.090169943749475 -5.877852522924732 0
      vertex -8.090169943749475 -5.877852522924732 30
    endloop
  endfacet
  facet normal -0.7604059656000309 -0.6494480483301838 0
    outer loop
      vertex -7.0710678118654755 -7.0710678118654755 0
      vertex -8.090169943749475 -5.877852522924732 30
      vertex -8.090169943749475 -5.877852522924732 0
    endloop
  endfacet
  facet normal -0.7604059656000309 -0.6494480483301838 0
    outer loop
      vertex -8.090169943749475 -5.877852522924732 30
      vertex -7.0710678118654755 -7.0710678118654755 0
      vertex -7.0710678118654755 -7.0710678118654755 30
    endloop
  endfacet
  facet normal -0.6494480483301838 -0.7604059656000309 0
    outer loop
      vertex -7.0710678118654755 -7.0710678118654755 0
      vertex -5.877852522924732 -8.090169943749475 30
      vertex -7.0710678118654755 -7.0710678118654755 30
    endloop
  endfacet
  facet normal -0.6494480483301838 -0.7604059656000309 0
    outer loop
      vertex -5.877852522924732 -8.090169943749475 30
      vertex -7.0710678118654755 -7.0710678118654755 0
      vertex -5.877852522924732 -8.090169943749475 0
    endloop
  endfacet
  facet normal -0.5224985647159486 -0.8526401643540924 0
    outer loop
      vertex -5.877852522924732 -8.090169943749475 0
      vertex -4.5399049973954675 -8.910065241883679 30
      vertex -5.877852522924732 -8.090169943749475 30
    endloop
  endfacet
  facet normal -0.5224985647159486 -0.8526401643540924 0
    outer loop
      vertex -4.5399049973954675 -8.910065241883679 30
      vertex -5.877852522924732 -8.090169943749475 0
      vertex -4.5399049973954675 -8.910065241883679 0
    endloop
  endfacet
  facet normal -0.38268343236508917 -0.923879532511287 0
    outer loop
      vertex -4.5399049973954675 -8.910065241883679 0
      vertex -3.090169943749474 -9.510565162951535 30
      vertex -4.5399049973954675 -8.910065241883679 30
    endloop
  endfacet
  facet normal -0.38268343236508917 -0.923879532511287 0
    outer loop
      vertex -3.090169943749474 -9.510565162951535 30
      vertex -4.5399049973954675 -8.910065241883679 0
      vertex -3.090169943749474 -9.510565162951535 0
    endloop
  endfacet
  facet normal -0.23344536385590686 -0.9723699203976762 0
    outer loop
      vertex -3.090169943749474 -9.510565162951535 0
      vertex -1.5643446504023086 -9.876883405951379 30
      vertex -3.090169943749474 -9.510565162951535 30
    endloop
  endfacet
  facet normal -0.23344536385590686 -0.9723699203976762 0
    outer loop
      vertex -1.5643446504023086 -9.876883405951379 30
      vertex -3.090169943749474 -9.510565162951535 0
      vertex -1.5643446504023086 -9.876883405951379 0
    endloop
  endfacet
  facet normal -0.07845909572784411 -0.9969173337331281 0
    outer loop
      vertex -1.5643446504023086 -9.876883405951379 0
      vertex 0 -10 30
      vertex -1.5643446504023086 -9.876883405951379 30
    endloop
  endfacet
  facet normal -0.07845909572784411 -0.9969173337331281 0
    outer loop
      vertex 0 -10 30
      vertex -1.5643446504023086 -9.876883405951379 0
      vertex 0 -10 0
    endloop
  endfacet
  facet normal 0.07845909572784411 -0.9969173337331281 0
    outer loop
      vertex 0 -10 0
      vertex 1.5643446504023086 -9.876883405951379 30
      vertex 0 -10 30
    endloop
  endfacet
  facet normal 0.07845909572784411 -0.9969173337331281 0
    outer loop
      vertex 1.5643446504023086 -9.876883405951379 30
      vertex 0 -10 0
      vertex 1.5643446504023086 -9.876883405951379 0
    endloop
  endfacet
  facet normal 0.23344536385590686 -0.9723699203976762 0
    outer loop
      vertex 1.5643446504023086 -9.876883405951379 0
      vertex 3.090169943749474 -9.510565162951535 30
      vertex 1.5643446504023086 -9.876883405951379 30
    endloop
  endfacet
  facet normal 0.23344536385590686 -0.9723699203976762 0
    outer loop
      vertex 3.090169943749474 -9.510565162951535 30
      vertex 1.5643446504023086 -9.876883405951379 0
      vertex 3.090169943749474 -9.510565162951535 0
    endloop
  endfacet
  facet normal 0.38268343236508917 -0.923879532511287 0
    outer loop
      vertex 3.090169943749474 -9.510565162951535 0
      vertex 4.5399049973954675 -8.910065241883679 30
      vertex 3.090169943749474 -9.510565162951535 30
    endloop
  endfacet
  facet normal 0.38268343236508917 -0.923879532511287 0
    outer loop
      vertex 4.5399049973954675 -8.910065241883679 30
      vertex 3.090169943749474 -9.510565162951535 0
      vertex 4.5399049973954675 -8.910065241883679 0
    endloop
  endfacet
  facet normal 0.5224985647159486 -0.8526401643540924 0
    outer loop
      vertex 4.5399049973954675 -8.910065241883679 0
      vertex 5.877852522924732 -8.090169943749475 30
      vertex 4.5399049973954675 -8.910065241883679 30
    endloop
  endfacet
  facet normal 0.5224985647159486 -0.8526401643540924 0
    outer loop
      vertex 5.877852522924732 -8.090169943749475 30
      vertex 4.5399049973954675 -8.910065241883679 0
      vertex 5.877852522924732 -8.090169943749475 0
    endloop
  endfacet
  facet normal 0.6494480483301838 -0.7604059656000309 0
    outer loop
      vertex 5.877852522924732 -8.090169943749475 0
      vertex 7.0710678118654755 -7.0710678118654755 30
      vertex 5.877852522924732 -8.090169943749475 30
    endloop
  endfacet
  facet normal 0.6494480483301838 -0.7604059656000309 0
    outer loop
      vertex 7.0710678118654755 -7.0710678118654755 30
      vertex 5.877852522924732 -8.090169943749475 0
      vertex 7.0710678118654755 -7.0710678118654755 0
    endloop
  endfacet
  facet normal 0.7604059656000309 -0.6494480483301838 0
    outer loop
      vertex 7.0710678118654755 -7.0710678118654755 30
      vertex 8.090169943749475 -5.877852522924732 0
      vertex 8.090169943749475 -5.877852522924732 30
    endloop
  endfacet
  facet normal 0.7604059656000309 -0.6494480483301838 0
    outer loop
      vertex 8.090169943749475 -5.877852522924732 0
      vertex 7.0710678118654755 -7.0710678118654755 30
      vertex 7.0710678118654755 -7.0710678118654755 0
    endloop
  endfacet
  facet normal 0.8526401643540924 -0.5224985647159486 0
    outer loop
      vertex 8.090169943749475 -5.877852522924732 30
      vertex 8.910065241883679 -4.5399049973954675 0
      vertex 8.910065241883679 -4.5399049973954675 30
    endloop
  endfacet
  facet normal 0.8526401643540924 -0.5224985647159486 0
    outer loop
      vertex 8.910065241883679 -4.5399049973954675 0
      vertex 8.090169943749475 -5.877852522924732 30
      vertex 8.090169943749475 -5.877852522924732 0
    endloop
  endfacet
  facet normal 0.923879532511287 -0.38268343236508917 0
    outer loop
      vertex 8.910065241883679 -4.5399049973954675 30
      vertex 9.510565162951535 -3.090169943749474 0
      vertex 9.510565162951535 -3.090169943749474 30
    endloop
  endfacet
  facet normal 0.923879532511287 -0.38268343236508917 0
    outer loop
      vertex 9.510565162951535 -3.090169943749474 0
      vertex 8.910065241883679 -4.5399049973954675 30
      vertex 8.910065241883679 -4.5399049973954675 0
    endloop
  endfacet
  facet normal 0.9723699203976762 -0.23344536385590686 0
    outer loop
      vertex 9.510565162951535 -3.090169943749474 30
      vertex 9.876883405951379 -1.5643446504023086 0
      vertex 9.876883405951379 -1.5643446504023086 30
    endloop
  endfacet
  facet normal 0.9723699203976762 -0.23344536385590686 0
    outer loop
      vertex 9.876883405951379 -1.5643446504023086 0
      vertex 9.510565162951535 -3.090169943749474 30
      vertex 9.510565162951535 -3.090169943749474 0
    endloop
  endfacet
  facet normal 0.9969173337331281 -0.07845909572784411 0
    outer loop
      vertex 9.876883405951379 -1.5643446504023086 30
      vertex 10 0 0
      vertex 10 0 30
    endloop
  endfacet
  facet normal 0.9969173337331281 -0.07845909572784411 0
    outer loop
      vertex 10 0 0
      vertex 9.876883405951379 -1.5643446504023086 30
      vertex 9.876883405951379 -1.5643446504023086 0
    endloop
  endfacet
  facet normal 0 0 -1
    outer loop
      vertex 9.876883405951379 -1.5643446504023086 0
      vertex 9.876883405951379 1.5643446504023086 0
      vertex 10 0 0
    endloop
  endfacet
  facet normal 0 0 -1
    outer loop
      vertex 9.510565162951535 -3.090169943749474 0
      vertex 9.876883405951379 1.5643446504023086 0
      vertex 9.876883405951379 -1.5643446504023086 0
    endloop
  endfacet
  facet normal 0 0 -1
    outer loop
      vertex 9.510565162951535 -3.090169943749474 0
      vertex 9.510565162951535 3.090169943749474 0
      vertex 9.876883405951379 1.5643446504023086 0
    endloop
  endfacet
  facet normal 0 0 -1
    outer loop
      vertex 8.910065241883679 -4.5399049973954675 0
      vertex 9.510565162951535 3.090169943749474 0
      vertex 9.510565162951535 -3.090169943749474 0
    endloop
  endfacet
  facet normal 0 0 -1
    outer loop
      vertex 8.910065241883679 -4.5399049973954675 0
      vertex 8.910065241883679 4.5399049973954675 0
      vertex 9.510565162951535 3.090169943749474 0
    endloop
  endfacet
  facet normal 0 0 -1
    outer loop
      vertex 8.090169943749475 -5.877852522924732 0
      vertex 8.910065241883679 4.5399049973954675 0
      vertex 8.910065241883679 -4.5399049973954675 0
    endloop
  endfacet
  facet normal 0 0 -1
    outer loop
      vertex 8.090169943749475 -5.877852522924732 0
      vertex 8.090169943749475 5.877852522924732 0
      vertex 8.910065241883679 4.5399049973954675 0
    endloop
  endfacet
  facet normal 0 0 -1
    outer loop
      vertex 7.0710678118654755 -7.0710678118654755 0
      vertex 8.090169943749475 5.877852522924732 0
      vertex 8.090169943749475 -5.877852522924732 0
    endloop
  endfacet
  facet normal 0 0 -1
    outer loop
      vertex 7.0710678118654755 -7.0710678118654755 0
      vertex 7.0710678118654755 7.0710678118654755 0
      vertex 8.090169943749475 5.877852522924732 0
    endloop
  endfacet
  facet normal 0 0 -1
    outer loop
      vertex 5.877852522924732 -8.090169943749475 0
      vertex 7.0710678118654755 7.0710678118654755 0
      vertex 7.0710678118654755 -7.0710678118654755 0
    endloop
  endfacet
  facet normal 0 0 -1
    outer loop
      vertex 5.877852522924732 -8.090169943749475 0
      vertex 5.877852522924732 8.090169943749475 0
      vertex 7.0710678118654755 7.0710678118654755 0
    endloop
  endfacet
  facet normal 0 0 -1
    outer loop
      vertex 4.5399049973954675 -8.910065241883679 0
      vertex 5.877852522924732 8.090169943749475 0
      vertex 5.877852522924732 -8.090169943749475 0
    endloop
  endfacet
  facet normal 0 0 -1
    outer loop
      vertex 4.5399049973954675 -8.910065241883679 0
      vertex 4.5399049973954675 8.910065241883679 0
      vertex 5.877852522924732 8.090169943749475 0
    endloop
  endfacet
  facet normal 0 0 -1
    outer loop
      vertex 3.090169943749474 -9.510565162951535 0
      vertex 4.5399049973954675 8.910065241883679 0
      vertex 4.5399049973954675 -8.910065241883679 0
    endloop
  endfacet
  facet normal 0 0 -1
    outer loop
      vertex 3.090169943749474 -9.510565162951535 0
      vertex 3.090169943749474 9.510565162951535 0
      vertex 4.5399049973954675 8.910065241883679 0
    endloop
  endfacet
  facet normal 0 0 -1
    outer loop
      vertex 1.5643446504023086 -9.876883405951379 0
      vertex 3.090169943749474 9.510565162951535 0
      vertex 3.090169943749474 -9.510565162951535 0
    endloop
  endfacet
  facet normal 0 0 -1
    outer loop
      vertex 1.5643446504023086 -9.876883405951379 0
      vertex 1.5643446504023086 9.876883405951379 0
      vertex 3.090169943749474 9.510565162951535 0
    endloop
  endfacet
  facet normal 0 0 -1
    outer loop
      vertex 0 -10 0
      vertex 1.5643446504023086 9.876883405951379 0
      vertex 1.5643446504023086 -9.876883405951379 0
    endloop
  endfacet
  facet normal 0 0 -1
    outer loop
      vertex 0 -10 0
      vertex 0 10 0
      vertex 1.5643446504023086 9.876883405951379 0
    endloop
  endfacet
  facet normal 0 0 -1
    outer loop
      vertex -1.5643446504023086 -9.876883405951379 0
      vertex 0 10 0
      vertex 0 -10 0
    endloop
  endfacet
  facet normal 0 0 -1
    outer loop
      vertex -1.5643446504023086 -9.876883405951379 0
      vertex -1.5643446504023086 9.876883405951379 0
      vertex 0 10 0
    endloop
  endfacet
  facet normal 0 0 -1
    outer loop
      vertex -3.090169943749474 -9.510565162951535 0
      vertex -1.5643446504023086 9.876883405951379 0
      vertex -1.5643446504023086 -9.876883405951379 0
    endloop
  endfacet
  facet normal 0 0 -1
    outer loop
      vertex -3.090169943749474 -9.510565162951535 0
      vertex -3.090169943749474 9.510565162951535 0
      vertex -1.5643446504023086 9.876883405951379 0
    endloop
  endfacet
  facet normal 0 0 -1
    outer loop
      vertex -4.5399049973954675 -8.910065241883679 0
      vertex -3.090169943749474 9.510565162951535 0
      vertex -3.090169943749474 -9.510565162951535 0
    endloop
  endfacet
  facet normal 0 0 -1
    outer loop
      vertex -4.5399049973954675 -8.910065241883679 0
      vertex -4.5399049973954675 8.910065241883679 0
      vertex -3.090169943749474 9.510565162951535 0
    endloop
  endfacet
  facet normal 0 0 -1
    outer loop
      vertex -5.877852522924732 -8.090169943749475 0
      vertex -4.5399049973954675 8.910065241883679 0
      vertex -4.5399049973954675 -8.910065241883679 0
    endloop
  endfacet
  facet normal 0 0 -1
    outer loop
      vertex -5.877852522924732 -8.090169943749475 0
      vertex -5.877852522924732 8.090169943749475 0
      vertex -4.5399049973954675 8.910065241883679 0
    endloop
  endfacet
  facet normal 0 0 -1
    outer loop
      vertex -7.0710678118654755 -7.0710678118654755 0
      vertex -5.877852522924732 8.090169943749475 0
      vertex -5.877852522924732 -8.090169943749475 0
    endloop
  endfacet
  facet normal 0 0 -1
    outer loop
      vertex -7.0710678118654755 -7.0710678118654755 0
      vertex -7.0710678118654755 7.0710678118654755 0
      vertex -5.877852522924732 8.090169943749475 0
    endloop
  endfacet
  facet normal 0 0 -1
    outer loop
      vertex -8.090169943749475 -5.877852522924732 0
      vertex -7.0710678118654755 7.0710678118654755 0
      vertex -7.0710678118654755 -7.0710678118654755 0
    endloop
  endfacet
  facet normal 0 0 -1
    outer loop
      vertex -8.090169943749475 -5.877852522924732 0
      vertex -8.090169943749475 5.877852522924732 0
      vertex -7.0710678118654755 7.0710678118654755 0
    endloop
  endfacet
  facet normal 0 0 -1
    outer loop
      vertex -8.910065241883679 -4.5399049973954675 0
      vertex -8.090169943749475 5.877852522924732 0
      vertex -8.090169943749475 -5.877852522924732 0
    endloop
  endfacet
  facet normal 0 0 -1
    outer loop
      vertex -8.910065241883679 -4.5399049973954675 0
      vertex -8.910065241883679 4.5399049973954675 0
      vertex -8.090169943749475 5.877852522924732 0
    endloop
  endfacet
  facet normal 0 0 -1
    outer loop
      vertex -9.510565162951535 -3.090169943749474 0
      vertex -8.910065241883679 4.5399049973954675 0
      vertex -8.910065241883679 -4.5399049973954675 0
    endloop
  endfacet
  facet normal 0 0 -1
    outer loop
      vertex -9.510565162951535 -3.090169943749474 0
      vertex -9.510565162951535 3.090169943749474 0
      vertex -8.910065241883679 4.5399049973954675 0
    endloop
  endfacet
  facet normal 0 0 -1
    outer loop
      vertex -9.876883405951379 -1.5643446504023086 0
      vertex -9.510565162951535 3.090169943749474 0
      vertex -9.510565162951535 -3.090169943749474 0
    endloop
  endfacet
  facet normal 0 0 -1
    outer loop
      vertex -9.876883405951379 -1.5643446504023086 0
      vertex -9.876883405951379 1.5643446504023086 0
      vertex -9.510565162951535 3.090169943749474 0
    endloop
  endfacet
  facet normal 0 0 -1
    outer loop
      vertex -9.876883405951379 1.5643446504023086 0
      vertex -9.876883405951379 -1.5643446504023086 0
      vertex -10 0 0
    endloop
  endfacet
  facet normal 0 0 1
    outer loop
      vertex 9.876883405951379 1.5643446504023086 30
      vertex 9.876883405951379 -1.5643446504023086 30
      vertex 10 0 30
    endloop
  endfacet
  facet normal 0 0 1
    outer loop
      vertex 9.510565162951535 3.090169943749474 30
      vertex 9.876883405951379 -1.5643446504023086 30
      vertex 9.876883405951379 1.5643446504023086 30
    endloop
  endfacet
  facet normal 0 0 1
    outer loop
      vertex 9.510565162951535 3.090169943749474 30
      vertex 9.510565162951535 -3.090169943749474 30
      vertex 9.876883405951379 -1.5643446504023086 30
    endloop
  endfacet
  facet normal 0 0 1
    outer loop
      vertex 8.910065241883679 4.5399049973954675 30
      vertex 9.510565162951535 -3.090169943749474 30
      vertex 9.510565162951535 3.090169943749474 30
    endloop
  endfacet
  facet normal 0 0 1
    outer loop
      vertex 8.910065241883679 4.5399049973954675 30
      vertex 8.910065241883679 -4.5399049973954675 30
      vertex 9.510565162951535 -3.090169943749474 30
    endloop
  endfacet
  facet normal 0 0 1
    outer loop
      vertex 8.090169943749475 5.877852522924732 30
      vertex 8.910065241883679 -4.5399049973954675 30
      vertex 8.910065241883679 4.5399049973954675 30
    endloop
  endfacet
  facet normal 0 0 1
    outer loop
      vertex 8.090169943749475 5.877852522924732 30
      vertex 8.090169943749475 -5.877852522924732 30
      vertex 8.910065241883679 -4.5399049973954675 30
    endloop
  endfacet
  facet normal 0 0 1
    outer loop
      vertex 7.0710678118654755 7.0710678118654755 30
      vertex 8.090169943749475 -5.877852522924732 30
      vertex 8.090169943749475 5.877852522924732 30
    endloop
  endfacet
  facet normal 0 0 1
    outer loop
      vertex 7.0710678118654755 7.0710678118654755 30
      vertex 7.0710678118654755 -7.0710678118654755 30
      vertex 8.090169943749475 -5.877852522924732 30
    endloop
  endfacet
  facet normal 0 0 1
    outer loop
      vertex 5.877852522924732 8.090169943749475 30
      vertex 7.0710678118654755 -7.0710678118654755 30
      vertex 7.0710678118654755 7.0710678118654755 30
    endloop
  endfacet
  facet normal 0 0 1
    outer loop
      vertex 5.877852522924732 8.090169943749475 30
      vertex 5.877852522924732 -8.090169943749475 30
      vertex 7.0710678118654755 -7.0710678118654755 30
    endloop
  endfacet
  facet normal 0 0 1
    outer loop
      vertex 4.5399049973954675 8.910065241883679 30
      vertex 5.877852522924732 -8.090169943749475 30
      vertex 5.877852522924732 8.090169943749475 30
    endloop
  endfacet
  facet normal 0 0 1
    outer loop
      vertex 4.5399049973954675 8.910065241883679 30
      vertex 4.5399049973954675 -8.910065241883679 30
      vertex 5.877852522924732 -8.090169943749475 30
    endloop
  endfacet
  facet normal 0 0 1
    outer loop
      vertex 3.090169943749474 9.510565162951535 30
      vertex 4.5399049973954675 -8.910065241883679 30
      vertex 4.5399049973954675 8.910065241883679 30
    endloop
  endfacet
  facet normal 0 0 1
    outer loop
      vertex 3.090169943749474 9.510565162951535 30
      vertex 3.090169943749474 -9.510565162951535 30
      vertex 4.5399049973954675 -8.910065241883679 30
    endloop
  endfacet
  facet normal 0 0 1
    outer loop
      vertex 1.5643446504023086 9.876883405951379 30
      vertex 3.090169943749474 -9.510565162951535 30
      vertex 3.090169943749474 9.510565162951535 30
    endloop
  endfacet
  facet normal 0 0 1
    outer loop
      vertex 1.5643446504023086 9.876883405951379 30
      vertex 1.5643446504023086 -9.876883405951379 30
      vertex 3.090169943749474 -9.510565162951535 30
    endloop
  endfacet
  facet normal 0 0 1
    outer loop
      vertex 0 10 30
      vertex 1.5643446504023086 -9.876883405951379 30
      vertex 1.5643446504023086 9.876883405951379 30
    endloop
  endfacet
  facet normal 0 0 1
    outer loop
      vertex 0 10 30
      vertex 0 -10 30
      vertex 1.5643446504023086 -9.876883405951379 30
    endloop
  endfacet
  facet normal 0 0 1
    outer loop
      vertex -1.5643446504023086 9.876883405951379 30
      vertex 0 -10 30
      vertex 0 10 30
    endloop
  endfacet
  facet normal 0 0 1
    outer loop
      vertex -1.5643446504023086 9.876883405951379 30
      vertex -1.5643446504023086 -9.876883405951379 30
      vertex 0 -10 30
    endloop
  endfacet
  facet normal 0 0 1
    outer loop
      vertex -3.090169943749474 9.510565162951535 30
      vertex -1.5643446504023086 -9.876883405951379 30
      vertex -1.5643446504023086 9.876883405951379 30
    endloop
  endfacet
  facet normal 0 0 1
    outer loop
      vertex -3.090169943749474 9.510565162951535 30
      vertex -3.090169943749474 -9.510565162951535 30
      vertex -1.5643446504023086 -9.876883405951379 30
    endloop
  endfacet
  facet normal 0 0 1
    outer loop
      vertex -4.5399049973954675 8.910065241883679 30
      vertex -3.090169943749474 -9.510565162951535 30
      vertex -3.090169943749474 9.510565162951535 30
    endloop
  endfacet
  facet normal 0 0 1
    outer loop
      vertex -4.5399049973954675 8.910065241883679 30
      vertex -4.5399049973954675 -8.910065241883679 30
      vertex -3.090169943749474 -9.510565162951535 30
    endloop
  endfacet
  facet normal 0 0 1
    outer loop
      vertex -5.877852522924732 8.090169943749475 30
      vertex -4.5399049973954675 -8.910065241883679 30
      vertex -4.5399049973954675 8.910065241883679 30
    endloop
  endfacet
  facet normal 0 0 1
    outer loop
      vertex -5.877852522924732 8.090169943749475 30
      vertex -5.877852522924732 -8.090169943749475 30
      vertex -4.5399049973954675 -8.910065241883679 30
    endloop
  endfacet
  facet normal 0 0 1
    outer loop
      vertex -7.0710678118654755 7.0710678118654755 30
      vertex -5.877852522924732 -8.090169943749475 30
      vertex -5.877852522924732 8.090169943749475 30
    endloop
  endfacet
  facet normal 0 0 1
    outer loop
      vertex -7.0710678118654755 7.0710678118654755 30
      vertex -7.0710678118654755 -7.0710678118654755 30
      vertex -5.877852522924732 -8.090169943749475 30
    endloop
  endfacet
  facet normal 0 0 1
    outer loop
      vertex -8.090169943749475 5.877852522924732 30
      vertex -7.0710678118654755 -7.0710678118654755 30
      vertex -7.0710678118654755 7.0710678118654755 30
    endloop
  endfacet
  facet normal 0 0 1
    outer loop
      vertex -8.090169943749475 5.877852522924732 30
      vertex -8.090169943749475 -5.877852522924732 30
      vertex -7.0710678118654755 -7.0710678118654755 30
    endloop
  endfacet
  facet normal 0 0 1
    outer loop
      vertex -8.910065241883679 4.5399049973954675 30
      vertex -8.090169943749475 -5.877852522924732 30
      vertex -8.090169943749475 5.877852522924732 30
    endloop
  endfacet
  facet normal 0 0 1
    outer loop
      vertex -8.910065241883679 4.5399049973954675 30
      vertex -8.910065241883679 -4.5399049973954675 30
      vertex -8.090169943749475 -5.877852522924732 30
    endloop
  endfacet
  facet normal 0 0 1
    outer loop
      vertex -9.510565162951535 3.090169943749474 30
      vertex -8.910065241883679 -4.5399049973954675 30
      vertex -8.910065241883679 4.5399049973954675 30
    endloop
  endfacet
  facet normal 0 0 1
    outer loop
      vertex -9.510565162951535 3.090169943749474 30
      vertex -9.510565162951535 -3.090169943749474 30
      vertex -8.910065241883679 -4.5399049973954675 30
    endloop
  endfacet
  facet normal 0 0 1
    outer loop
      vertex -9.876883405951379 1.5643446504023086 30
      vertex -9.510565162951535 -3.090169943749474 30
      vertex -9.510565162951535 3.090169943749474 30
    endloop
  endfacet
  facet normal 0 0 1
    outer loop
      vertex -9.876883405951379 1.5643446504023086 30
      vertex -9.876883405951379 -1.5643446504023086 30
      vertex -9.510565162951535 -3.090169943749474 30
    endloop
  endfacet
  facet normal 0 0 1
    outer loop
      vertex -9.876883405951379 -1.5643446504023086 30
      vertex -9.876883405951379 1.5643446504023086 30
      vertex -10 0 30
    endloop
  endfacet
endsolid OpenSCAD_Model
