solid OpenSCAD_Model
  facet normal 0 0 -1
    outer loop
      vertex -10 -10 0
      vertex 10 10 0
      vertex 10 -10 0
    endloop
  endfacet
  facet normal 0 0 -1
    outer loop
      vertex 10 10 0
      vertex -10 -10 0
      vertex -10 10 0
    endloop
  endfacet
  facet normal 0 0.8944271909999159 0.4472135954999579
    outer loop
      vertex -10 10 0
      vertex 0 0 20
      vertex 10 10 0
    endloop
  endfacet
  facet normal -0.8944271909999159 0 0.4472135954999579
    outer loop
      vertex -10 -10 0
      vertex 0 0 20
      vertex -10 10 0
    endloop
  endfacet
  facet normal 0 -0.8944271909999159 0.4472135954999579
    outer loop
      vertex 10 -10 0
      vertex 0 0 20
      vertex -10 -10 0
    endloop
  endfacet
  facet normal 0.8944271909999159 0 0.4472135954999579
    outer loop
      vertex 10 10 0
      vertex 0 0 20
      vertex 10 -10 0
    endloop
  endfacet
endsolid OpenSCAD_Model
