solid OpenSCAD_Model
  facet normal 0.38268327242866634 0.9238795987591062 0
    outer loop
      vertex 11.767766952514648 1.7677669525146484 0
      vertex 11.599997520446777 1.837259292602539 5
      vertex 11.767766952514648 1.7677669525146484 5
    endloop
  endfacet
  facet normal 0.38268327242866634 0.9238795987591062 0
    outer loop
      vertex 11.599997520446777 1.837259292602539 5
      vertex 11.767766952514648 1.7677669525146484 0
      vertex 11.599997520446777 1.837259292602539 0
    endloop
  endfacet
  facet normal 0.9238795323932466 0.3826834326500641 0
    outer loop
      vertex 12.5 0 5
      vertex 11.767766952514648 1.7677669525146484 0
      vertex 11.767766952514648 1.7677669525146484 5
    endloop
  endfacet
  facet normal 0.9238795323932466 0.3826834326500641 0
    outer loop
      vertex 11.767766952514648 1.7677669525146484 0
      vertex 12.5 0 5
      vertex 12.5 0 0
    endloop
  endfacet
  facet normal 0 0 -1
    outer loop
      vertex 5.331933498382568 -10.464509010314941 0
      vertex 8.304680824279785 -8.304680824279785 0
      vertex 7.347314834594727 -10.112711906433105 0
    endloop
  endfacet
  facet normal 0 0 -1
    outer loop
      vertex 7.347314834594727 -10.112711906433105 0
      vertex 8.304680824279785 -8.304680824279785 0
      vertex 8.34707260131836 -8.481255531311035 0
    endloop
  endfacet
  facet normal 0 0 -1
    outer loop
      vertex 8.304680824279785 -8.304680824279785 0
      vertex 10.464509010314941 -5.331933498382568 0
      vertex 10.112711906433105 -7.347314834594727 0
    endloop
  endfacet
  facet normal 0 0 -1
    outer loop
      vertex 10.112711906433105 -7.347314834594727 0
      vertex 10.464509010314941 -5.331933498382568 0
      vertex 10.5593900680542 -5.4867658615112305 0
    endloop
  endfacet
  facet normal 0 0 -1
    outer loop
      vertex 11.888205528259277 -3.8627119064331055 0
      vertex 11.599997520446777 -1.837259292602539 0
      vertex 11.738080978393555 -1.9551935195922852 0
    endloop
  endfacet
  facet normal 0 0 -1
    outer loop
      vertex 11.888205528259277 -3.8627119064331055 0
      vertex 10.464509010314941 -5.331933498382568 0
      vertex 11.599997520446777 -1.837259292602539 0
    endloop
  endfacet
  facet normal 0 0 -1
    outer loop
      vertex 10.464509010314941 -5.331933498382568 0
      vertex 11.888205528259277 -3.8627119064331055 0
      vertex 10.645541191101074 -5.317686080932617 0
    endloop
  endfacet
  facet normal 0 0 -1
    outer loop
      vertex 11.599997520446777 -1.837259292602539 0
      vertex 12.5 0 0
      vertex 11.767766952514648 -1.7677669525146484 0
    endloop
  endfacet
  facet normal 0 0 -1
    outer loop
      vertex 11.599997520446777 1.837259292602539 0
      vertex 12.5 0 0
      vertex 11.599997520446777 -1.837259292602539 0
    endloop
  endfacet
  facet normal 0 0 -1
    outer loop
      vertex 12.5 0 0
      vertex 11.599997520446777 1.837259292602539 0
      vertex 11.767766952514648 1.7677669525146484 0
    endloop
  endfacet
  facet normal 0 0 -1
    outer loop
      vertex 11.599997520446777 1.837259292602539 0
      vertex 11.888205528259277 3.8627119064331055 0
      vertex 11.738080978393555 1.9551935195922852 0
    endloop
  endfacet
  facet normal 0 0 -1
    outer loop
      vertex 10.464509010314941 5.331933498382568 0
      vertex 11.888205528259277 3.8627119064331055 0
      vertex 11.599997520446777 1.837259292602539 0
    endloop
  endfacet
  facet normal 0 0 -1
    outer loop
      vertex 11.599997520446777 -1.837259292602539 0
      vertex 10.464509010314941 -5.331933498382568 0
      vertex 11.599997520446777 1.837259292602539 0
    endloop
  endfacet
  facet normal 0 0 -1
    outer loop
      vertex 10.464509010314941 5.331933498382568 0
      vertex 11.599997520446777 1.837259292602539 0
      vertex 10.464509010314941 -5.331933498382568 0
    endloop
  endfacet
  facet normal 0 0 -1
    outer loop
      vertex 11.888205528259277 3.8627119064331055 0
      vertex 10.464509010314941 5.331933498382568 0
      vertex 10.645541191101074 5.317686080932617 0
    endloop
  endfacet
  facet normal 0 0 -1
    outer loop
      vertex 10.464509010314941 5.331933498382568 0
      vertex 10.112711906433105 7.347314834594727 0
      vertex 10.5593900680542 5.4867658615112305 0
    endloop
  endfacet
  facet normal 0 0 -1
    outer loop
      vertex 10.464509010314941 -5.331933498382568 0
      vertex 8.304680824279785 -8.304680824279785 0
      vertex 10.464509010314941 5.331933498382568 0
    endloop
  endfacet
  facet normal 0 0 -1
    outer loop
      vertex 8.304680824279785 -8.304680824279785 0
      vertex 10.112711906433105 -7.347314834594727 0
      vertex 8.481255531311035 -8.34707260131836 0
    endloop
  endfacet
  facet normal 0 0 -1
    outer loop
      vertex 8.304680824279785 8.304680824279785 0
      vertex 10.464509010314941 5.331933498382568 0
      vertex 8.304680824279785 -8.304680824279785 0
    endloop
  endfacet
  facet normal 0 0 -1
    outer loop
      vertex 10.464509010314941 5.331933498382568 0
      vertex 8.304680824279785 8.304680824279785 0
      vertex 10.112711906433105 7.347314834594727 0
    endloop
  endfacet
  facet normal 0 0 -1
    outer loop
      vertex 10.112711906433105 7.347314834594727 0
      vertex 8.304680824279785 8.304680824279785 0
      vertex 8.481255531311035 8.34707260131836 0
    endloop
  endfacet
  facet normal 0 0 -1
    outer loop
      vertex 8.304680824279785 8.304680824279785 0
      vertex 7.347314834594727 10.112711906433105 0
      vertex 8.34707260131836 8.481255531311035 0
    endloop
  endfacet
  facet normal 0 0 -1
    outer loop
      vertex 8.304680824279785 -8.304680824279785 0
      vertex 5.331933498382568 -10.464509010314941 0
      vertex 8.304680824279785 8.304680824279785 0
    endloop
  endfacet
  facet normal 0 0 -1
    outer loop
      vertex 5.331933498382568 -10.464509010314941 0
      vertex 7.347314834594727 -10.112711906433105 0
      vertex 5.4867658615112305 -10.5593900680542 0
    endloop
  endfacet
  facet normal 0 0 -1
    outer loop
      vertex 5.331933498382568 10.464509010314941 0
      vertex 8.304680824279785 8.304680824279785 0
      vertex 5.331933498382568 -10.464509010314941 0
    endloop
  endfacet
  facet normal 0 0 -1
    outer loop
      vertex 8.304680824279785 8.304680824279785 0
      vertex 5.331933498382568 10.464509010314941 0
      vertex 7.347314834594727 10.112711906433105 0
    endloop
  endfacet
  facet normal 0 0 -1
    outer loop
      vertex 7.347314834594727 10.112711906433105 0
      vertex 5.331933498382568 10.464509010314941 0
      vertex 5.4867658615112305 10.5593900680542 0
    endloop
  endfacet
  facet normal 0 0 -1
    outer loop
      vertex 3.8627119064331055 -11.888205528259277 0
      vertex 5.331933498382568 -10.464509010314941 0
      vertex 5.317686080932617 -10.645541191101074 0
    endloop
  endfacet
  facet normal 0 0 -1
    outer loop
      vertex 5.331933498382568 -10.464509010314941 0
      vertex 1.837259292602539 -11.599997520446777 0
      vertex 5.331933498382568 10.464509010314941 0
    endloop
  endfacet
  facet normal 0 0 -1
    outer loop
      vertex 5.331933498382568 -10.464509010314941 0
      vertex 3.8627119064331055 -11.888205528259277 0
      vertex 1.837259292602539 -11.599997520446777 0
    endloop
  endfacet
  facet normal 0 0 -1
    outer loop
      vertex 1.837259292602539 11.599997520446777 0
      vertex 5.331933498382568 10.464509010314941 0
      vertex 1.837259292602539 -11.599997520446777 0
    endloop
  endfacet
  facet normal 0 0 -1
    outer loop
      vertex 1.837259292602539 -11.599997520446777 0
      vertex 3.8627119064331055 -11.888205528259277 0
      vertex 1.9551935195922852 -11.738080978393555 0
    endloop
  endfacet
  facet normal 0 0 -1
    outer loop
      vertex 3.8627119064331055 11.888205528259277 0
      vertex 5.331933498382568 10.464509010314941 0
      vertex 1.837259292602539 11.599997520446777 0
    endloop
  endfacet
  facet normal 0 0 -1
    outer loop
      vertex 5.331933498382568 10.464509010314941 0
      vertex 3.8627119064331055 11.888205528259277 0
      vertex 5.317686080932617 10.645541191101074 0
    endloop
  endfacet
  facet normal 0 0 -1
    outer loop
      vertex 3.8627119064331055 11.888205528259277 0
      vertex 1.837259292602539 11.599997520446777 0
      vertex 1.9551935195922852 11.738080978393555 0
    endloop
  endfacet
  facet normal 0 0 -1
    outer loop
      vertex 0 -12.5 0
      vertex 1.837259292602539 -11.599997520446777 0
      vertex 1.7677669525146484 -11.767766952514648 0
    endloop
  endfacet
  facet normal 0 0 -1
    outer loop
      vertex 1.837259292602539 -11.599997520446777 0
      vertex -1.837259292602539 -11.599997520446777 0
      vertex 1.837259292602539 11.599997520446777 0
    endloop
  endfacet
  facet normal 0 0 -1
    outer loop
      vertex 1.837259292602539 -11.599997520446777 0
      vertex 0 -12.5 0
      vertex -1.837259292602539 -11.599997520446777 0
    endloop
  endfacet
  facet normal 0 0 -1
    outer loop
      vertex -1.837259292602539 11.599997520446777 0
      vertex 1.837259292602539 11.599997520446777 0
      vertex -1.837259292602539 -11.599997520446777 0
    endloop
  endfacet
  facet normal 0 0 -1
    outer loop
      vertex -1.837259292602539 -11.599997520446777 0
      vertex 0 -12.5 0
      vertex -1.7677669525146484 -11.767766952514648 0
    endloop
  endfacet
  facet normal 0 0 -1
    outer loop
      vertex 0 12.5 0
      vertex 1.837259292602539 11.599997520446777 0
      vertex -1.837259292602539 11.599997520446777 0
    endloop
  endfacet
  facet normal 0 0 -1
    outer loop
      vertex 1.837259292602539 11.599997520446777 0
      vertex 0 12.5 0
      vertex 1.7677669525146484 11.767766952514648 0
    endloop
  endfacet
  facet normal 0 0 -1
    outer loop
      vertex 0 12.5 0
      vertex -1.837259292602539 11.599997520446777 0
      vertex -1.7677669525146484 11.767766952514648 0
    endloop
  endfacet
  facet normal 0 0 -1
    outer loop
      vertex -3.8627119064331055 -11.888205528259277 0
      vertex -1.837259292602539 -11.599997520446777 0
      vertex -1.9551935195922852 -11.738080978393555 0
    endloop
  endfacet
  facet normal 0 0 -1
    outer loop
      vertex -1.837259292602539 -11.599997520446777 0
      vertex -5.331933498382568 -10.464509010314941 0
      vertex -1.837259292602539 11.599997520446777 0
    endloop
  endfacet
  facet normal 0 0 -1
    outer loop
      vertex -1.837259292602539 -11.599997520446777 0
      vertex -3.8627119064331055 -11.888205528259277 0
      vertex -5.331933498382568 -10.464509010314941 0
    endloop
  endfacet
  facet normal 0 0 -1
    outer loop
      vertex -5.331933498382568 10.464509010314941 0
      vertex -1.837259292602539 11.599997520446777 0
      vertex -5.331933498382568 -10.464509010314941 0
    endloop
  endfacet
  facet normal 0 0 -1
    outer loop
      vertex -5.331933498382568 -10.464509010314941 0
      vertex -3.8627119064331055 -11.888205528259277 0
      vertex -5.317686080932617 -10.645541191101074 0
    endloop
  endfacet
  facet normal 0 0 -1
    outer loop
      vertex -3.8627119064331055 11.888205528259277 0
      vertex -1.837259292602539 11.599997520446777 0
      vertex -5.331933498382568 10.464509010314941 0
    endloop
  endfacet
  facet normal 0 0 -1
    outer loop
      vertex -1.837259292602539 11.599997520446777 0
      vertex -3.8627119064331055 11.888205528259277 0
      vertex -1.9551935195922852 11.738080978393555 0
    endloop
  endfacet
  facet normal 0 0 -1
    outer loop
      vertex -3.8627119064331055 11.888205528259277 0
      vertex -5.331933498382568 10.464509010314941 0
      vertex -5.317686080932617 10.645541191101074 0
    endloop
  endfacet
  facet normal 0 0 -1
    outer loop
      vertex -7.347314834594727 -10.112711906433105 0
      vertex -5.331933498382568 -10.464509010314941 0
      vertex -5.4867658615112305 -10.5593900680542 0
    endloop
  endfacet
  facet normal 0 0 -1
    outer loop
      vertex -5.331933498382568 -10.464509010314941 0
      vertex -8.304680824279785 -8.304680824279785 0
      vertex -5.331933498382568 10.464509010314941 0
    endloop
  endfacet
  facet normal 0 0 -1
    outer loop
      vertex -5.331933498382568 -10.464509010314941 0
      vertex -7.347314834594727 -10.112711906433105 0
      vertex -8.304680824279785 -8.304680824279785 0
    endloop
  endfacet
  facet normal 0 0 -1
    outer loop
      vertex -8.304680824279785 8.304680824279785 0
      vertex -5.331933498382568 10.464509010314941 0
      vertex -8.304680824279785 -8.304680824279785 0
    endloop
  endfacet
  facet normal 0 0 -1
    outer loop
      vertex -7.347314834594727 10.112711906433105 0
      vertex -5.331933498382568 10.464509010314941 0
      vertex -8.304680824279785 8.304680824279785 0
    endloop
  endfacet
  facet normal 0 0 -1
    outer loop
      vertex -8.304680824279785 -8.304680824279785 0
      vertex -7.347314834594727 -10.112711906433105 0
      vertex -8.34707260131836 -8.481255531311035 0
    endloop
  endfacet
  facet normal 0 0 -1
    outer loop
      vertex -12.5 0 0
      vertex -11.599997520446777 -1.837259292602539 0
      vertex -11.767766952514648 -1.7677669525146484 0
    endloop
  endfacet
  facet normal 0 0 -1
    outer loop
      vertex -11.599997520446777 -1.837259292602539 0
      vertex -12.5 0 0
      vertex -11.599997520446777 1.837259292602539 0
    endloop
  endfacet
  facet normal 0 0 -1
    outer loop
      vertex -11.599997520446777 1.837259292602539 0
      vertex -12.5 0 0
      vertex -11.767766952514648 1.7677669525146484 0
    endloop
  endfacet
  facet normal 0 0 -1
    outer loop
      vertex -11.888205528259277 -3.8627119064331055 0
      vertex -10.464509010314941 -5.331933498382568 0
      vertex -10.645541191101074 -5.317686080932617 0
    endloop
  endfacet
  facet normal 0 0 -1
    outer loop
      vertex -10.464509010314941 -5.331933498382568 0
      vertex -11.599997520446777 -1.837259292602539 0
      vertex -10.464509010314941 5.331933498382568 0
    endloop
  endfacet
  facet normal 0 0 -1
    outer loop
      vertex -11.599997520446777 1.837259292602539 0
      vertex -10.464509010314941 5.331933498382568 0
      vertex -11.599997520446777 -1.837259292602539 0
    endloop
  endfacet
  facet normal 0 0 -1
    outer loop
      vertex -10.464509010314941 -5.331933498382568 0
      vertex -11.888205528259277 -3.8627119064331055 0
      vertex -11.599997520446777 -1.837259292602539 0
    endloop
  endfacet
  facet normal 0 0 -1
    outer loop
      vertex -11.599997520446777 -1.837259292602539 0
      vertex -11.888205528259277 -3.8627119064331055 0
      vertex -11.738080978393555 -1.9551935195922852 0
    endloop
  endfacet
  facet normal 0 0 -1
    outer loop
      vertex -10.112711906433105 -7.347314834594727 0
      vertex -8.304680824279785 -8.304680824279785 0
      vertex -8.481255531311035 -8.34707260131836 0
    endloop
  endfacet
  facet normal 0 0 -1
    outer loop
      vertex -8.304680824279785 -8.304680824279785 0
      vertex -10.464509010314941 -5.331933498382568 0
      vertex -8.304680824279785 8.304680824279785 0
    endloop
  endfacet
  facet normal 0 0 -1
    outer loop
      vertex -8.304680824279785 -8.304680824279785 0
      vertex -10.112711906433105 -7.347314834594727 0
      vertex -10.464509010314941 -5.331933498382568 0
    endloop
  endfacet
  facet normal 0 0 -1
    outer loop
      vertex -10.464509010314941 5.331933498382568 0
      vertex -8.304680824279785 8.304680824279785 0
      vertex -10.464509010314941 -5.331933498382568 0
    endloop
  endfacet
  facet normal 0 0 -1
    outer loop
      vertex -10.112711906433105 7.347314834594727 0
      vertex -8.304680824279785 8.304680824279785 0
      vertex -10.464509010314941 5.331933498382568 0
    endloop
  endfacet
  facet normal 0 0 -1
    outer loop
      vertex -10.464509010314941 -5.331933498382568 0
      vertex -10.112711906433105 -7.347314834594727 0
      vertex -10.5593900680542 -5.4867658615112305 0
    endloop
  endfacet
  facet normal 0 0 -1
    outer loop
      vertex -5.331933498382568 10.464509010314941 0
      vertex -7.347314834594727 10.112711906433105 0
      vertex -5.4867658615112305 10.5593900680542 0
    endloop
  endfacet
  facet normal 0 0 -1
    outer loop
      vertex -7.347314834594727 10.112711906433105 0
      vertex -8.304680824279785 8.304680824279785 0
      vertex -8.34707260131836 8.481255531311035 0
    endloop
  endfacet
  facet normal 0 0 -1
    outer loop
      vertex -8.304680824279785 8.304680824279785 0
      vertex -10.112711906433105 7.347314834594727 0
      vertex -8.481255531311035 8.34707260131836 0
    endloop
  endfacet
  facet normal 0 0 -1
    outer loop
      vertex -10.112711906433105 7.347314834594727 0
      vertex -10.464509010314941 5.331933498382568 0
      vertex -10.5593900680542 5.4867658615112305 0
    endloop
  endfacet
  facet normal 0 0 -1
    outer loop
      vertex -11.888205528259277 3.8627119064331055 0
      vertex -10.464509010314941 5.331933498382568 0
      vertex -11.599997520446777 1.837259292602539 0
    endloop
  endfacet
  facet normal 0 0 -1
    outer loop
      vertex -11.888205528259277 3.8627119064331055 0
      vertex -11.599997520446777 1.837259292602539 0
      vertex -11.738080978393555 1.9551935195922852 0
    endloop
  endfacet
  facet normal 0 0 -1
    outer loop
      vertex -10.464509010314941 5.331933498382568 0
      vertex -11.888205528259277 3.8627119064331055 0
      vertex -10.645541191101074 5.317686080932617 0
    endloop
  endfacet
  facet normal 0 0 1
    outer loop
      vertex 5.331933498382568 10.464509010314941 5
      vertex 8.304680824279785 8.304680824279785 5
      vertex 7.347314834594727 10.112711906433105 5
    endloop
  endfacet
  facet normal 0 0 1
    outer loop
      vertex 7.347314834594727 10.112711906433105 5
      vertex 8.304680824279785 8.304680824279785 5
      vertex 8.34707260131836 8.481255531311035 5
    endloop
  endfacet
  facet normal 0 0 1
    outer loop
      vertex 8.304680824279785 8.304680824279785 5
      vertex 10.464509010314941 5.331933498382568 5
      vertex 10.112711906433105 7.347314834594727 5
    endloop
  endfacet
  facet normal 0 0 1
    outer loop
      vertex 10.112711906433105 7.347314834594727 5
      vertex 10.464509010314941 5.331933498382568 5
      vertex 10.5593900680542 5.4867658615112305 5
    endloop
  endfacet
  facet normal 0 0 1
    outer loop
      vertex 11.888205528259277 3.8627119064331055 5
      vertex 11.599997520446777 1.837259292602539 5
      vertex 11.738080978393555 1.9551935195922852 5
    endloop
  endfacet
  facet normal 0 0 1
    outer loop
      vertex 11.888205528259277 3.8627119064331055 5
      vertex 10.464509010314941 5.331933498382568 5
      vertex 11.599997520446777 1.837259292602539 5
    endloop
  endfacet
  facet normal 0 0 1
    outer loop
      vertex 10.464509010314941 5.331933498382568 5
      vertex 11.888205528259277 3.8627119064331055 5
      vertex 10.645541191101074 5.317686080932617 5
    endloop
  endfacet
  facet normal 0 0 1
    outer loop
      vertex 11.599997520446777 1.837259292602539 5
      vertex 12.5 0 5
      vertex 11.767766952514648 1.7677669525146484 5
    endloop
  endfacet
  facet normal 0 0 1
    outer loop
      vertex 11.599997520446777 -1.837259292602539 5
      vertex 12.5 0 5
      vertex 11.599997520446777 1.837259292602539 5
    endloop
  endfacet
  facet normal 0 0 1
    outer loop
      vertex 12.5 0 5
      vertex 11.599997520446777 -1.837259292602539 5
      vertex 11.767766952514648 -1.7677669525146484 5
    endloop
  endfacet
  facet normal 0 0 1
    outer loop
      vertex 11.599997520446777 -1.837259292602539 5
      vertex 11.888205528259277 -3.8627119064331055 5
      vertex 11.738080978393555 -1.9551935195922852 5
    endloop
  endfacet
  facet normal 0 0 1
    outer loop
      vertex 10.464509010314941 -5.331933498382568 5
      vertex 11.888205528259277 -3.8627119064331055 5
      vertex 11.599997520446777 -1.837259292602539 5
    endloop
  endfacet
  facet normal 0 0 1
    outer loop
      vertex 11.599997520446777 1.837259292602539 5
      vertex 10.464509010314941 5.331933498382568 5
      vertex 11.599997520446777 -1.837259292602539 5
    endloop
  endfacet
  facet normal 0 0 1
    outer loop
      vertex 10.464509010314941 -5.331933498382568 5
      vertex 11.599997520446777 -1.837259292602539 5
      vertex 10.464509010314941 5.331933498382568 5
    endloop
  endfacet
  facet normal 0 0 1
    outer loop
      vertex 11.888205528259277 -3.8627119064331055 5
      vertex 10.464509010314941 -5.331933498382568 5
      vertex 10.645541191101074 -5.317686080932617 5
    endloop
  endfacet
  facet normal 0 0 1
    outer loop
      vertex 10.464509010314941 -5.331933498382568 5
      vertex 10.112711906433105 -7.347314834594727 5
      vertex 10.5593900680542 -5.4867658615112305 5
    endloop
  endfacet
  facet normal 0 0 1
    outer loop
      vertex 10.464509010314941 5.331933498382568 5
      vertex 8.304680824279785 8.304680824279785 5
      vertex 10.464509010314941 -5.331933498382568 5
    endloop
  endfacet
  facet normal 0 0 1
    outer loop
      vertex 8.304680824279785 8.304680824279785 5
      vertex 10.112711906433105 7.347314834594727 5
      vertex 8.481255531311035 8.34707260131836 5
    endloop
  endfacet
  facet normal 0 0 1
    outer loop
      vertex 8.304680824279785 -8.304680824279785 5
      vertex 10.464509010314941 -5.331933498382568 5
      vertex 8.304680824279785 8.304680824279785 5
    endloop
  endfacet
  facet normal 0 0 1
    outer loop
      vertex 10.464509010314941 -5.331933498382568 5
      vertex 8.304680824279785 -8.304680824279785 5
      vertex 10.112711906433105 -7.347314834594727 5
    endloop
  endfacet
  facet normal 0 0 1
    outer loop
      vertex 10.112711906433105 -7.347314834594727 5
      vertex 8.304680824279785 -8.304680824279785 5
      vertex 8.481255531311035 -8.34707260131836 5
    endloop
  endfacet
  facet normal 0 0 1
    outer loop
      vertex 8.304680824279785 -8.304680824279785 5
      vertex 7.347314834594727 -10.112711906433105 5
      vertex 8.34707260131836 -8.481255531311035 5
    endloop
  endfacet
  facet normal 0 0 1
    outer loop
      vertex 8.304680824279785 8.304680824279785 5
      vertex 5.331933498382568 10.464509010314941 5
      vertex 8.304680824279785 -8.304680824279785 5
    endloop
  endfacet
  facet normal 0 0 1
    outer loop
      vertex 5.331933498382568 10.464509010314941 5
      vertex 7.347314834594727 10.112711906433105 5
      vertex 5.4867658615112305 10.5593900680542 5
    endloop
  endfacet
  facet normal 0 0 1
    outer loop
      vertex 5.331933498382568 -10.464509010314941 5
      vertex 8.304680824279785 -8.304680824279785 5
      vertex 5.331933498382568 10.464509010314941 5
    endloop
  endfacet
  facet normal 0 0 1
    outer loop
      vertex 8.304680824279785 -8.304680824279785 5
      vertex 5.331933498382568 -10.464509010314941 5
      vertex 7.347314834594727 -10.112711906433105 5
    endloop
  endfacet
  facet normal 0 0 1
    outer loop
      vertex 7.347314834594727 -10.112711906433105 5
      vertex 5.331933498382568 -10.464509010314941 5
      vertex 5.4867658615112305 -10.5593900680542 5
    endloop
  endfacet
  facet normal 0 0 1
    outer loop
      vertex 3.8627119064331055 11.888205528259277 5
      vertex 5.331933498382568 10.464509010314941 5
      vertex 5.317686080932617 10.645541191101074 5
    endloop
  endfacet
  facet normal 0 0 1
    outer loop
      vertex 5.331933498382568 10.464509010314941 5
      vertex 1.837259292602539 11.599997520446777 5
      vertex 5.331933498382568 -10.464509010314941 5
    endloop
  endfacet
  facet normal 0 0 1
    outer loop
      vertex 5.331933498382568 10.464509010314941 5
      vertex 3.8627119064331055 11.888205528259277 5
      vertex 1.837259292602539 11.599997520446777 5
    endloop
  endfacet
  facet normal 0 0 1
    outer loop
      vertex 1.837259292602539 -11.599997520446777 5
      vertex 5.331933498382568 -10.464509010314941 5
      vertex 1.837259292602539 11.599997520446777 5
    endloop
  endfacet
  facet normal 0 0 1
    outer loop
      vertex 1.837259292602539 11.599997520446777 5
      vertex 3.8627119064331055 11.888205528259277 5
      vertex 1.9551935195922852 11.738080978393555 5
    endloop
  endfacet
  facet normal 0 0 1
    outer loop
      vertex 3.8627119064331055 -11.888205528259277 5
      vertex 5.331933498382568 -10.464509010314941 5
      vertex 1.837259292602539 -11.599997520446777 5
    endloop
  endfacet
  facet normal 0 0 1
    outer loop
      vertex 5.331933498382568 -10.464509010314941 5
      vertex 3.8627119064331055 -11.888205528259277 5
      vertex 5.317686080932617 -10.645541191101074 5
    endloop
  endfacet
  facet normal 0 0 1
    outer loop
      vertex 3.8627119064331055 -11.888205528259277 5
      vertex 1.837259292602539 -11.599997520446777 5
      vertex 1.9551935195922852 -11.738080978393555 5
    endloop
  endfacet
  facet normal 0 0 1
    outer loop
      vertex 0 12.5 5
      vertex 1.837259292602539 11.599997520446777 5
      vertex 1.7677669525146484 11.767766952514648 5
    endloop
  endfacet
  facet normal 0 0 1
    outer loop
      vertex 1.837259292602539 11.599997520446777 5
      vertex -1.837259292602539 11.599997520446777 5
      vertex 1.837259292602539 -11.599997520446777 5
    endloop
  endfacet
  facet normal 0 0 1
    outer loop
      vertex 1.837259292602539 11.599997520446777 5
      vertex 0 12.5 5
      vertex -1.837259292602539 11.599997520446777 5
    endloop
  endfacet
  facet normal 0 0 1
    outer loop
      vertex -1.837259292602539 -11.599997520446777 5
      vertex 1.837259292602539 -11.599997520446777 5
      vertex -1.837259292602539 11.599997520446777 5
    endloop
  endfacet
  facet normal 0 0 1
    outer loop
      vertex -1.837259292602539 11.599997520446777 5
      vertex 0 12.5 5
      vertex -1.7677669525146484 11.767766952514648 5
    endloop
  endfacet
  facet normal 0 0 1
    outer loop
      vertex 0 -12.5 5
      vertex 1.837259292602539 -11.599997520446777 5
      vertex -1.837259292602539 -11.599997520446777 5
    endloop
  endfacet
  facet normal 0 0 1
    outer loop
      vertex 1.837259292602539 -11.599997520446777 5
      vertex 0 -12.5 5
      vertex 1.7677669525146484 -11.767766952514648 5
    endloop
  endfacet
  facet normal 0 0 1
    outer loop
      vertex 0 -12.5 5
      vertex -1.837259292602539 -11.599997520446777 5
      vertex -1.7677669525146484 -11.767766952514648 5
    endloop
  endfacet
  facet normal 0 0 1
    outer loop
      vertex -3.8627119064331055 11.888205528259277 5
      vertex -1.837259292602539 11.599997520446777 5
      vertex -1.9551935195922852 11.738080978393555 5
    endloop
  endfacet
  facet normal 0 0 1
    outer loop
      vertex -1.837259292602539 11.599997520446777 5
      vertex -5.331933498382568 10.464509010314941 5
      vertex -1.837259292602539 -11.599997520446777 5
    endloop
  endfacet
  facet normal 0 0 1
    outer loop
      vertex -1.837259292602539 11.599997520446777 5
      vertex -3.8627119064331055 11.888205528259277 5
      vertex -5.331933498382568 10.464509010314941 5
    endloop
  endfacet
  facet normal 0 0 1
    outer loop
      vertex -5.331933498382568 -10.464509010314941 5
      vertex -1.837259292602539 -11.599997520446777 5
      vertex -5.331933498382568 10.464509010314941 5
    endloop
  endfacet
  facet normal 0 0 1
    outer loop
      vertex -5.331933498382568 10.464509010314941 5
      vertex -3.8627119064331055 11.888205528259277 5
      vertex -5.317686080932617 10.645541191101074 5
    endloop
  endfacet
  facet normal 0 0 1
    outer loop
      vertex -3.8627119064331055 -11.888205528259277 5
      vertex -1.837259292602539 -11.599997520446777 5
      vertex -5.331933498382568 -10.464509010314941 5
    endloop
  endfacet
  facet normal 0 0 1
    outer loop
      vertex -1.837259292602539 -11.599997520446777 5
      vertex -3.8627119064331055 -11.888205528259277 5
      vertex -1.9551935195922852 -11.738080978393555 5
    endloop
  endfacet
  facet normal 0 0 1
    outer loop
      vertex -3.8627119064331055 -11.888205528259277 5
      vertex -5.331933498382568 -10.464509010314941 5
      vertex -5.317686080932617 -10.645541191101074 5
    endloop
  endfacet
  facet normal 0 0 1
    outer loop
      vertex -7.347314834594727 10.112711906433105 5
      vertex -5.331933498382568 10.464509010314941 5
      vertex -5.4867658615112305 10.5593900680542 5
    endloop
  endfacet
  facet normal 0 0 1
    outer loop
      vertex -5.331933498382568 10.464509010314941 5
      vertex -8.304680824279785 8.304680824279785 5
      vertex -5.331933498382568 -10.464509010314941 5
    endloop
  endfacet
  facet normal 0 0 1
    outer loop
      vertex -5.331933498382568 10.464509010314941 5
      vertex -7.347314834594727 10.112711906433105 5
      vertex -8.304680824279785 8.304680824279785 5
    endloop
  endfacet
  facet normal 0 0 1
    outer loop
      vertex -8.304680824279785 -8.304680824279785 5
      vertex -5.331933498382568 -10.464509010314941 5
      vertex -8.304680824279785 8.304680824279785 5
    endloop
  endfacet
  facet normal 0 0 1
    outer loop
      vertex -7.347314834594727 -10.112711906433105 5
      vertex -5.331933498382568 -10.464509010314941 5
      vertex -8.304680824279785 -8.304680824279785 5
    endloop
  endfacet
  facet normal 0 0 1
    outer loop
      vertex -8.304680824279785 8.304680824279785 5
      vertex -7.347314834594727 10.112711906433105 5
      vertex -8.34707260131836 8.481255531311035 5
    endloop
  endfacet
  facet normal 0 0 1
    outer loop
      vertex -12.5 0 5
      vertex -11.599997520446777 1.837259292602539 5
      vertex -11.767766952514648 1.7677669525146484 5
    endloop
  endfacet
  facet normal 0 0 1
    outer loop
      vertex -11.599997520446777 1.837259292602539 5
      vertex -12.5 0 5
      vertex -11.599997520446777 -1.837259292602539 5
    endloop
  endfacet
  facet normal 0 0 1
    outer loop
      vertex -11.599997520446777 -1.837259292602539 5
      vertex -12.5 0 5
      vertex -11.767766952514648 -1.7677669525146484 5
    endloop
  endfacet
  facet normal 0 0 1
    outer loop
      vertex -11.888205528259277 3.8627119064331055 5
      vertex -10.464509010314941 5.331933498382568 5
      vertex -10.645541191101074 5.317686080932617 5
    endloop
  endfacet
  facet normal 0 0 1
    outer loop
      vertex -10.464509010314941 5.331933498382568 5
      vertex -11.599997520446777 1.837259292602539 5
      vertex -10.464509010314941 -5.331933498382568 5
    endloop
  endfacet
  facet normal 0 0 1
    outer loop
      vertex -11.599997520446777 -1.837259292602539 5
      vertex -10.464509010314941 -5.331933498382568 5
      vertex -11.599997520446777 1.837259292602539 5
    endloop
  endfacet
  facet normal 0 0 1
    outer loop
      vertex -10.464509010314941 5.331933498382568 5
      vertex -11.888205528259277 3.8627119064331055 5
      vertex -11.599997520446777 1.837259292602539 5
    endloop
  endfacet
  facet normal 0 0 1
    outer loop
      vertex -11.599997520446777 1.837259292602539 5
      vertex -11.888205528259277 3.8627119064331055 5
      vertex -11.738080978393555 1.9551935195922852 5
    endloop
  endfacet
  facet normal 0 0 1
    outer loop
      vertex -10.112711906433105 7.347314834594727 5
      vertex -8.304680824279785 8.304680824279785 5
      vertex -8.481255531311035 8.34707260131836 5
    endloop
  endfacet
  facet normal 0 0 1
    outer loop
      vertex -8.304680824279785 8.304680824279785 5
      vertex -10.464509010314941 5.331933498382568 5
      vertex -8.304680824279785 -8.304680824279785 5
    endloop
  endfacet
  facet normal 0 0 1
    outer loop
      vertex -8.304680824279785 8.304680824279785 5
      vertex -10.112711906433105 7.347314834594727 5
      vertex -10.464509010314941 5.331933498382568 5
    endloop
  endfacet
  facet normal 0 0 1
    outer loop
      vertex -10.464509010314941 -5.331933498382568 5
      vertex -8.304680824279785 -8.304680824279785 5
      vertex -10.464509010314941 5.331933498382568 5
    endloop
  endfacet
  facet normal 0 0 1
    outer loop
      vertex -10.112711906433105 -7.347314834594727 5
      vertex -8.304680824279785 -8.304680824279785 5
      vertex -10.464509010314941 -5.331933498382568 5
    endloop
  endfacet
  facet normal 0 0 1
    outer loop
      vertex -10.464509010314941 5.331933498382568 5
      vertex -10.112711906433105 7.347314834594727 5
      vertex -10.5593900680542 5.4867658615112305 5
    endloop
  endfacet
  facet normal 0 0 1
    outer loop
      vertex -5.331933498382568 -10.464509010314941 5
      vertex -7.347314834594727 -10.112711906433105 5
      vertex -5.4867658615112305 -10.5593900680542 5
    endloop
  endfacet
  facet normal 0 0 1
    outer loop
      vertex -7.347314834594727 -10.112711906433105 5
      vertex -8.304680824279785 -8.304680824279785 5
      vertex -8.34707260131836 -8.481255531311035 5
    endloop
  endfacet
  facet normal 0 0 1
    outer loop
      vertex -8.304680824279785 -8.304680824279785 5
      vertex -10.112711906433105 -7.347314834594727 5
      vertex -8.481255531311035 -8.34707260131836 5
    endloop
  endfacet
  facet normal 0 0 1
    outer loop
      vertex -10.112711906433105 -7.347314834594727 5
      vertex -10.464509010314941 -5.331933498382568 5
      vertex -10.5593900680542 -5.4867658615112305 5
    endloop
  endfacet
  facet normal 0 0 1
    outer loop
      vertex -11.888205528259277 -3.8627119064331055 5
      vertex -10.464509010314941 -5.331933498382568 5
      vertex -11.599997520446777 -1.837259292602539 5
    endloop
  endfacet
  facet normal 0 0 1
    outer loop
      vertex -11.888205528259277 -3.8627119064331055 5
      vertex -11.599997520446777 -1.837259292602539 5
      vertex -11.738080978393555 -1.9551935195922852 5
    endloop
  endfacet
  facet normal 0 0 1
    outer loop
      vertex -10.464509010314941 -5.331933498382568 5
      vertex -11.888205528259277 -3.8627119064331055 5
      vertex -10.645541191101074 -5.317686080932617 5
    endloop
  endfacet
  facet normal 0.38268327242866634 -0.9238795987591062 0
    outer loop
      vertex 11.599997520446777 -1.837259292602539 0
      vertex 11.767766952514648 -1.7677669525146484 5
      vertex 11.599997520446777 -1.837259292602539 5
    endloop
  endfacet
  facet normal 0.38268327242866634 -0.9238795987591062 0
    outer loop
      vertex 11.767766952514648 -1.7677669525146484 5
      vertex 11.599997520446777 -1.837259292602539 0
      vertex 11.767766952514648 -1.7677669525146484 0
    endloop
  endfacet
  facet normal 0.9238795323932466 -0.3826834326500641 0
    outer loop
      vertex 11.767766952514648 -1.7677669525146484 5
      vertex 12.5 0 0
      vertex 12.5 0 5
    endloop
  endfacet
  facet normal 0.9238795323932466 -0.3826834326500641 0
    outer loop
      vertex 12.5 0 0
      vertex 11.767766952514648 -1.7677669525146484 5
      vertex 11.767766952514648 -1.7677669525146484 0
    endloop
  endfacet
  facet normal 0.07845841616170643 0.9969173872159098 0
    outer loop
      vertex 10.645541191101074 5.317686080932617 0
      vertex 10.464509010314941 5.331933498382568 5
      vertex 10.645541191101074 5.317686080932617 5
    endloop
  endfacet
  facet normal 0.07845841616170643 0.9969173872159098 0
    outer loop
      vertex 10.464509010314941 5.331933498382568 5
      vertex 10.645541191101074 5.317686080932617 0
      vertex 10.464509010314941 5.331933498382568 0
    endloop
  endfacet
  facet normal 0.9969173502061628 -0.07845888641781058 0
    outer loop
      vertex 11.738080978393555 1.9551935195922852 5
      vertex 11.888205528259277 3.8627119064331055 0
      vertex 11.888205528259277 3.8627119064331055 5
    endloop
  endfacet
  facet normal 0.9969173502061628 -0.07845888641781058 0
    outer loop
      vertex 11.888205528259277 3.8627119064331055 0
      vertex 11.738080978393555 1.9551935195922852 5
      vertex 11.738080978393555 1.9551935195922852 0
    endloop
  endfacet
  facet normal 0.7604062245032315 0.6494477451933612 0
    outer loop
      vertex 11.888205528259277 3.8627119064331055 5
      vertex 10.645541191101074 5.317686080932617 0
      vertex 10.645541191101074 5.317686080932617 5
    endloop
  endfacet
  facet normal 0.7604062245032315 0.6494477451933612 0
    outer loop
      vertex 10.645541191101074 5.317686080932617 0
      vertex 11.888205528259277 3.8627119064331055 5
      vertex 11.888205528259277 3.8627119064331055 0
    endloop
  endfacet
  facet normal 0.6494474515396459 -0.7604064753068974 0
    outer loop
      vertex 11.599997520446777 1.837259292602539 0
      vertex 11.738080978393555 1.9551935195922852 5
      vertex 11.599997520446777 1.837259292602539 5
    endloop
  endfacet
  facet normal 0.6494474515396459 -0.7604064753068974 0
    outer loop
      vertex 11.738080978393555 1.9551935195922852 5
      vertex 11.599997520446777 1.837259292602539 0
      vertex 11.738080978393555 1.9551935195922852 0
    endloop
  endfacet
  facet normal -0.2334450540004532 0.9723699947873369 0
    outer loop
      vertex 8.481255531311035 8.34707260131836 0
      vertex 8.304680824279785 8.304680824279785 5
      vertex 8.481255531311035 8.34707260131836 5
    endloop
  endfacet
  facet normal -0.2334450540004532 0.9723699947873369 0
    outer loop
      vertex 8.304680824279785 8.304680824279785 5
      vertex 8.481255531311035 8.34707260131836 0
      vertex 8.304680824279785 8.304680824279785 0
    endloop
  endfacet
  facet normal 0.5224985701236868 0.852640161040226 0
    outer loop
      vertex 10.112711906433105 7.347314834594727 0
      vertex 8.481255531311035 8.34707260131836 5
      vertex 10.112711906433105 7.347314834594727 5
    endloop
  endfacet
  facet normal 0.5224985701236868 0.852640161040226 0
    outer loop
      vertex 8.481255531311035 8.34707260131836 5
      vertex 10.112711906433105 7.347314834594727 0
      vertex 8.481255531311035 8.34707260131836 0
    endloop
  endfacet
  facet normal 0.8526409896902294 -0.5224972178873933 0
    outer loop
      vertex 10.464509010314941 5.331933498382568 5
      vertex 10.5593900680542 5.4867658615112305 0
      vertex 10.5593900680542 5.4867658615112305 5
    endloop
  endfacet
  facet normal 0.8526409896902294 -0.5224972178873933 0
    outer loop
      vertex 10.5593900680542 5.4867658615112305 0
      vertex 10.464509010314941 5.331933498382568 5
      vertex 10.464509010314941 5.331933498382568 0
    endloop
  endfacet
  facet normal 0.9723699354694119 0.23344530107760117 0
    outer loop
      vertex 10.5593900680542 5.4867658615112305 5
      vertex 10.112711906433105 7.347314834594727 0
      vertex 10.112711906433105 7.347314834594727 5
    endloop
  endfacet
  facet normal 0.9723699354694119 0.23344530107760117 0
    outer loop
      vertex 10.112711906433105 7.347314834594727 0
      vertex 10.5593900680542 5.4867658615112305 5
      vertex 10.5593900680542 5.4867658615112305 0
    endloop
  endfacet
  facet normal -0.5224972178873933 0.8526409896902294 0
    outer loop
      vertex 5.4867658615112305 10.5593900680542 0
      vertex 5.331933498382568 10.464509010314941 5
      vertex 5.4867658615112305 10.5593900680542 5
    endloop
  endfacet
  facet normal -0.5224972178873933 0.8526409896902294 0
    outer loop
      vertex 5.331933498382568 10.464509010314941 5
      vertex 5.4867658615112305 10.5593900680542 0
      vertex 5.331933498382568 10.464509010314941 0
    endloop
  endfacet
  facet normal 0.23344530107760117 0.9723699354694119 0
    outer loop
      vertex 7.347314834594727 10.112711906433105 0
      vertex 5.4867658615112305 10.5593900680542 5
      vertex 7.347314834594727 10.112711906433105 5
    endloop
  endfacet
  facet normal 0.23344530107760117 0.9723699354694119 0
    outer loop
      vertex 5.4867658615112305 10.5593900680542 5
      vertex 7.347314834594727 10.112711906433105 0
      vertex 5.4867658615112305 10.5593900680542 0
    endloop
  endfacet
  facet normal 0.9723699947873369 -0.2334450540004532 0
    outer loop
      vertex 8.304680824279785 8.304680824279785 5
      vertex 8.34707260131836 8.481255531311035 0
      vertex 8.34707260131836 8.481255531311035 5
    endloop
  endfacet
  facet normal 0.9723699947873369 -0.2334450540004532 0
    outer loop
      vertex 8.34707260131836 8.481255531311035 0
      vertex 8.304680824279785 8.304680824279785 5
      vertex 8.304680824279785 8.304680824279785 0
    endloop
  endfacet
  facet normal 0.852640161040226 0.5224985701236868 0
    outer loop
      vertex 8.34707260131836 8.481255531311035 5
      vertex 7.347314834594727 10.112711906433105 0
      vertex 7.347314834594727 10.112711906433105 5
    endloop
  endfacet
  facet normal 0.852640161040226 0.5224985701236868 0
    outer loop
      vertex 7.347314834594727 10.112711906433105 0
      vertex 8.34707260131836 8.481255531311035 5
      vertex 8.34707260131836 8.481255531311035 0
    endloop
  endfacet
  facet normal -0.7604064753068974 0.6494474515396459 0
    outer loop
      vertex 1.837259292602539 11.599997520446777 0
      vertex 1.9551935195922852 11.738080978393555 5
      vertex 1.9551935195922852 11.738080978393555 0
    endloop
  endfacet
  facet normal -0.7604064753068974 0.6494474515396459 0
    outer loop
      vertex 1.9551935195922852 11.738080978393555 5
      vertex 1.837259292602539 11.599997520446777 0
      vertex 1.837259292602539 11.599997520446777 5
    endloop
  endfacet
  facet normal -0.07845888641781058 0.9969173502061628 0
    outer loop
      vertex 3.8627119064331055 11.888205528259277 0
      vertex 1.9551935195922852 11.738080978393555 5
      vertex 3.8627119064331055 11.888205528259277 5
    endloop
  endfacet
  facet normal -0.07845888641781058 0.9969173502061628 0
    outer loop
      vertex 1.9551935195922852 11.738080978393555 5
      vertex 3.8627119064331055 11.888205528259277 0
      vertex 1.9551935195922852 11.738080978393555 0
    endloop
  endfacet
  facet normal 0.6494477451933612 0.7604062245032315 0
    outer loop
      vertex 5.317686080932617 10.645541191101074 0
      vertex 3.8627119064331055 11.888205528259277 5
      vertex 5.317686080932617 10.645541191101074 5
    endloop
  endfacet
  facet normal 0.6494477451933612 0.7604062245032315 0
    outer loop
      vertex 3.8627119064331055 11.888205528259277 5
      vertex 5.317686080932617 10.645541191101074 0
      vertex 3.8627119064331055 11.888205528259277 0
    endloop
  endfacet
  facet normal 0.9969173872159098 0.07845841616170643 0
    outer loop
      vertex 5.331933498382568 10.464509010314941 5
      vertex 5.317686080932617 10.645541191101074 0
      vertex 5.317686080932617 10.645541191101074 5
    endloop
  endfacet
  facet normal 0.9969173872159098 0.07845841616170643 0
    outer loop
      vertex 5.317686080932617 10.645541191101074 0
      vertex 5.331933498382568 10.464509010314941 5
      vertex 5.331933498382568 10.464509010314941 0
    endloop
  endfacet
  facet normal -0.9238795987591062 0.38268327242866634 0
    outer loop
      vertex -1.837259292602539 11.599997520446777 0
      vertex -1.7677669525146484 11.767766952514648 5
      vertex -1.7677669525146484 11.767766952514648 0
    endloop
  endfacet
  facet normal -0.9238795987591062 0.38268327242866634 0
    outer loop
      vertex -1.7677669525146484 11.767766952514648 5
      vertex -1.837259292602539 11.599997520446777 0
      vertex -1.837259292602539 11.599997520446777 5
    endloop
  endfacet
  facet normal -0.3826834326500641 0.9238795323932466 0
    outer loop
      vertex 0 12.5 0
      vertex -1.7677669525146484 11.767766952514648 5
      vertex 0 12.5 5
    endloop
  endfacet
  facet normal -0.3826834326500641 0.9238795323932466 0
    outer loop
      vertex -1.7677669525146484 11.767766952514648 5
      vertex 0 12.5 0
      vertex -1.7677669525146484 11.767766952514648 0
    endloop
  endfacet
  facet normal 0.3826834326500641 0.9238795323932466 0
    outer loop
      vertex 1.7677669525146484 11.767766952514648 0
      vertex 0 12.5 5
      vertex 1.7677669525146484 11.767766952514648 5
    endloop
  endfacet
  facet normal 0.3826834326500641 0.9238795323932466 0
    outer loop
      vertex 0 12.5 5
      vertex 1.7677669525146484 11.767766952514648 0
      vertex 0 12.5 0
    endloop
  endfacet
  facet normal 0.9238795987591062 0.38268327242866634 0
    outer loop
      vertex 1.837259292602539 11.599997520446777 5
      vertex 1.7677669525146484 11.767766952514648 0
      vertex 1.7677669525146484 11.767766952514648 5
    endloop
  endfacet
  facet normal 0.9238795987591062 0.38268327242866634 0
    outer loop
      vertex 1.7677669525146484 11.767766952514648 0
      vertex 1.837259292602539 11.599997520446777 5
      vertex 1.837259292602539 11.599997520446777 0
    endloop
  endfacet
  facet normal -0.9969173872159098 0.07845841616170643 0
    outer loop
      vertex -5.331933498382568 10.464509010314941 0
      vertex -5.317686080932617 10.645541191101074 5
      vertex -5.317686080932617 10.645541191101074 0
    endloop
  endfacet
  facet normal -0.9969173872159098 0.07845841616170643 0
    outer loop
      vertex -5.317686080932617 10.645541191101074 5
      vertex -5.331933498382568 10.464509010314941 0
      vertex -5.331933498382568 10.464509010314941 5
    endloop
  endfacet
  facet normal -0.6494477451933612 0.7604062245032315 0
    outer loop
      vertex -3.8627119064331055 11.888205528259277 0
      vertex -5.317686080932617 10.645541191101074 5
      vertex -3.8627119064331055 11.888205528259277 5
    endloop
  endfacet
  facet normal -0.6494477451933612 0.7604062245032315 0
    outer loop
      vertex -5.317686080932617 10.645541191101074 5
      vertex -3.8627119064331055 11.888205528259277 0
      vertex -5.317686080932617 10.645541191101074 0
    endloop
  endfacet
  facet normal 0.07845888641781058 0.9969173502061628 0
    outer loop
      vertex -1.9551935195922852 11.738080978393555 0
      vertex -3.8627119064331055 11.888205528259277 5
      vertex -1.9551935195922852 11.738080978393555 5
    endloop
  endfacet
  facet normal 0.07845888641781058 0.9969173502061628 0
    outer loop
      vertex -3.8627119064331055 11.888205528259277 5
      vertex -1.9551935195922852 11.738080978393555 0
      vertex -3.8627119064331055 11.888205528259277 0
    endloop
  endfacet
  facet normal 0.7604064753068974 0.6494474515396459 0
    outer loop
      vertex -1.837259292602539 11.599997520446777 5
      vertex -1.9551935195922852 11.738080978393555 0
      vertex -1.9551935195922852 11.738080978393555 5
    endloop
  endfacet
  facet normal 0.7604064753068974 0.6494474515396459 0
    outer loop
      vertex -1.9551935195922852 11.738080978393555 0
      vertex -1.837259292602539 11.599997520446777 5
      vertex -1.837259292602539 11.599997520446777 0
    endloop
  endfacet
  facet normal -0.852640161040226 0.5224985701236868 0
    outer loop
      vertex -8.34707260131836 8.481255531311035 0
      vertex -7.347314834594727 10.112711906433105 5
      vertex -7.347314834594727 10.112711906433105 0
    endloop
  endfacet
  facet normal -0.852640161040226 0.5224985701236868 0
    outer loop
      vertex -7.347314834594727 10.112711906433105 5
      vertex -8.34707260131836 8.481255531311035 0
      vertex -8.34707260131836 8.481255531311035 5
    endloop
  endfacet
  facet normal -0.23344530107760117 0.9723699354694119 0
    outer loop
      vertex -5.4867658615112305 10.5593900680542 0
      vertex -7.347314834594727 10.112711906433105 5
      vertex -5.4867658615112305 10.5593900680542 5
    endloop
  endfacet
  facet normal -0.23344530107760117 0.9723699354694119 0
    outer loop
      vertex -7.347314834594727 10.112711906433105 5
      vertex -5.4867658615112305 10.5593900680542 0
      vertex -7.347314834594727 10.112711906433105 0
    endloop
  endfacet
  facet normal -0.9723699947873369 -0.2334450540004532 0
    outer loop
      vertex -8.304680824279785 8.304680824279785 0
      vertex -8.34707260131836 8.481255531311035 5
      vertex -8.34707260131836 8.481255531311035 0
    endloop
  endfacet
  facet normal -0.9723699947873369 -0.2334450540004532 0
    outer loop
      vertex -8.34707260131836 8.481255531311035 5
      vertex -8.304680824279785 8.304680824279785 0
      vertex -8.304680824279785 8.304680824279785 5
    endloop
  endfacet
  facet normal 0.5224972178873933 0.8526409896902294 0
    outer loop
      vertex -5.331933498382568 10.464509010314941 0
      vertex -5.4867658615112305 10.5593900680542 5
      vertex -5.331933498382568 10.464509010314941 5
    endloop
  endfacet
  facet normal 0.5224972178873933 0.8526409896902294 0
    outer loop
      vertex -5.4867658615112305 10.5593900680542 5
      vertex -5.331933498382568 10.464509010314941 0
      vertex -5.4867658615112305 10.5593900680542 0
    endloop
  endfacet
  facet normal -0.9723699354694119 0.23344530107760117 0
    outer loop
      vertex -10.5593900680542 5.4867658615112305 0
      vertex -10.112711906433105 7.347314834594727 5
      vertex -10.112711906433105 7.347314834594727 0
    endloop
  endfacet
  facet normal -0.9723699354694119 0.23344530107760117 0
    outer loop
      vertex -10.112711906433105 7.347314834594727 5
      vertex -10.5593900680542 5.4867658615112305 0
      vertex -10.5593900680542 5.4867658615112305 5
    endloop
  endfacet
  facet normal -0.5224985701236868 0.852640161040226 0
    outer loop
      vertex -8.481255531311035 8.34707260131836 0
      vertex -10.112711906433105 7.347314834594727 5
      vertex -8.481255531311035 8.34707260131836 5
    endloop
  endfacet
  facet normal -0.5224985701236868 0.852640161040226 0
    outer loop
      vertex -10.112711906433105 7.347314834594727 5
      vertex -8.481255531311035 8.34707260131836 0
      vertex -10.112711906433105 7.347314834594727 0
    endloop
  endfacet
  facet normal -0.8526409896902294 -0.5224972178873933 0
    outer loop
      vertex -10.464509010314941 5.331933498382568 0
      vertex -10.5593900680542 5.4867658615112305 5
      vertex -10.5593900680542 5.4867658615112305 0
    endloop
  endfacet
  facet normal -0.8526409896902294 -0.5224972178873933 0
    outer loop
      vertex -10.5593900680542 5.4867658615112305 5
      vertex -10.464509010314941 5.331933498382568 0
      vertex -10.464509010314941 5.331933498382568 5
    endloop
  endfacet
  facet normal 0.2334450540004532 0.9723699947873369 0
    outer loop
      vertex -8.304680824279785 8.304680824279785 0
      vertex -8.481255531311035 8.34707260131836 5
      vertex -8.304680824279785 8.304680824279785 5
    endloop
  endfacet
  facet normal 0.2334450540004532 0.9723699947873369 0
    outer loop
      vertex -8.481255531311035 8.34707260131836 5
      vertex -8.304680824279785 8.304680824279785 0
      vertex -8.481255531311035 8.34707260131836 0
    endloop
  endfacet
  facet normal -0.6494474515396459 -0.7604064753068974 0
    outer loop
      vertex -11.738080978393555 1.9551935195922852 0
      vertex -11.599997520446777 1.837259292602539 5
      vertex -11.738080978393555 1.9551935195922852 5
    endloop
  endfacet
  facet normal -0.6494474515396459 -0.7604064753068974 0
    outer loop
      vertex -11.599997520446777 1.837259292602539 5
      vertex -11.738080978393555 1.9551935195922852 0
      vertex -11.599997520446777 1.837259292602539 0
    endloop
  endfacet
  facet normal -0.9969173502061628 -0.07845888641781058 0
    outer loop
      vertex -11.738080978393555 1.9551935195922852 0
      vertex -11.888205528259277 3.8627119064331055 5
      vertex -11.888205528259277 3.8627119064331055 0
    endloop
  endfacet
  facet normal -0.9969173502061628 -0.07845888641781058 0
    outer loop
      vertex -11.888205528259277 3.8627119064331055 5
      vertex -11.738080978393555 1.9551935195922852 0
      vertex -11.738080978393555 1.9551935195922852 5
    endloop
  endfacet
  facet normal -0.7604062245032315 0.6494477451933612 0
    outer loop
      vertex -11.888205528259277 3.8627119064331055 0
      vertex -10.645541191101074 5.317686080932617 5
      vertex -10.645541191101074 5.317686080932617 0
    endloop
  endfacet
  facet normal -0.7604062245032315 0.6494477451933612 0
    outer loop
      vertex -10.645541191101074 5.317686080932617 5
      vertex -11.888205528259277 3.8627119064331055 0
      vertex -11.888205528259277 3.8627119064331055 5
    endloop
  endfacet
  facet normal -0.07845841616170643 0.9969173872159098 0
    outer loop
      vertex -10.464509010314941 5.331933498382568 0
      vertex -10.645541191101074 5.317686080932617 5
      vertex -10.464509010314941 5.331933498382568 5
    endloop
  endfacet
  facet normal -0.07845841616170643 0.9969173872159098 0
    outer loop
      vertex -10.645541191101074 5.317686080932617 5
      vertex -10.464509010314941 5.331933498382568 0
      vertex -10.645541191101074 5.317686080932617 0
    endloop
  endfacet
  facet normal -0.9238795323932466 -0.3826834326500641 0
    outer loop
      vertex -11.767766952514648 -1.7677669525146484 0
      vertex -12.5 0 5
      vertex -12.5 0 0
    endloop
  endfacet
  facet normal -0.9238795323932466 -0.3826834326500641 0
    outer loop
      vertex -12.5 0 5
      vertex -11.767766952514648 -1.7677669525146484 0
      vertex -11.767766952514648 -1.7677669525146484 5
    endloop
  endfacet
  facet normal -0.38268327242866634 -0.9238795987591062 0
    outer loop
      vertex -11.767766952514648 -1.7677669525146484 0
      vertex -11.599997520446777 -1.837259292602539 5
      vertex -11.767766952514648 -1.7677669525146484 5
    endloop
  endfacet
  facet normal -0.38268327242866634 -0.9238795987591062 0
    outer loop
      vertex -11.599997520446777 -1.837259292602539 5
      vertex -11.767766952514648 -1.7677669525146484 0
      vertex -11.599997520446777 -1.837259292602539 0
    endloop
  endfacet
  facet normal -0.38268327242866634 0.9238795987591062 0
    outer loop
      vertex -11.599997520446777 1.837259292602539 0
      vertex -11.767766952514648 1.7677669525146484 5
      vertex -11.599997520446777 1.837259292602539 5
    endloop
  endfacet
  facet normal -0.38268327242866634 0.9238795987591062 0
    outer loop
      vertex -11.767766952514648 1.7677669525146484 5
      vertex -11.599997520446777 1.837259292602539 0
      vertex -11.767766952514648 1.7677669525146484 0
    endloop
  endfacet
  facet normal -0.9238795323932466 0.3826834326500641 0
    outer loop
      vertex -12.5 0 0
      vertex -11.767766952514648 1.7677669525146484 5
      vertex -11.767766952514648 1.7677669525146484 0
    endloop
  endfacet
  facet normal -0.9238795323932466 0.3826834326500641 0
    outer loop
      vertex -11.767766952514648 1.7677669525146484 5
      vertex -12.5 0 0
      vertex -12.5 0 5
    endloop
  endfacet
  facet normal -0.7604062245032315 -0.6494477451933612 0
    outer loop
      vertex -10.645541191101074 -5.317686080932617 0
      vertex -11.888205528259277 -3.8627119064331055 5
      vertex -11.888205528259277 -3.8627119064331055 0
    endloop
  endfacet
  facet normal -0.7604062245032315 -0.6494477451933612 0
    outer loop
      vertex -11.888205528259277 -3.8627119064331055 5
      vertex -10.645541191101074 -5.317686080932617 0
      vertex -10.645541191101074 -5.317686080932617 5
    endloop
  endfacet
  facet normal -0.6494474515396459 0.7604064753068974 0
    outer loop
      vertex -11.599997520446777 -1.837259292602539 0
      vertex -11.738080978393555 -1.9551935195922852 5
      vertex -11.599997520446777 -1.837259292602539 5
    endloop
  endfacet
  facet normal -0.6494474515396459 0.7604064753068974 0
    outer loop
      vertex -11.738080978393555 -1.9551935195922852 5
      vertex -11.599997520446777 -1.837259292602539 0
      vertex -11.738080978393555 -1.9551935195922852 0
    endloop
  endfacet
  facet normal -0.9969173502061628 0.07845888641781058 0
    outer loop
      vertex -11.888205528259277 -3.8627119064331055 0
      vertex -11.738080978393555 -1.9551935195922852 5
      vertex -11.738080978393555 -1.9551935195922852 0
    endloop
  endfacet
  facet normal -0.9969173502061628 0.07845888641781058 0
    outer loop
      vertex -11.738080978393555 -1.9551935195922852 5
      vertex -11.888205528259277 -3.8627119064331055 0
      vertex -11.888205528259277 -3.8627119064331055 5
    endloop
  endfacet
  facet normal -0.07845841616170643 -0.9969173872159098 0
    outer loop
      vertex -10.645541191101074 -5.317686080932617 0
      vertex -10.464509010314941 -5.331933498382568 5
      vertex -10.645541191101074 -5.317686080932617 5
    endloop
  endfacet
  facet normal -0.07845841616170643 -0.9969173872159098 0
    outer loop
      vertex -10.464509010314941 -5.331933498382568 5
      vertex -10.645541191101074 -5.317686080932617 0
      vertex -10.464509010314941 -5.331933498382568 0
    endloop
  endfacet
  facet normal -0.5224985701236868 -0.852640161040226 0
    outer loop
      vertex -10.112711906433105 -7.347314834594727 0
      vertex -8.481255531311035 -8.34707260131836 5
      vertex -10.112711906433105 -7.347314834594727 5
    endloop
  endfacet
  facet normal -0.5224985701236868 -0.852640161040226 0
    outer loop
      vertex -8.481255531311035 -8.34707260131836 5
      vertex -10.112711906433105 -7.347314834594727 0
      vertex -8.481255531311035 -8.34707260131836 0
    endloop
  endfacet
  facet normal 0.2334450540004532 -0.9723699947873369 0
    outer loop
      vertex -8.481255531311035 -8.34707260131836 0
      vertex -8.304680824279785 -8.304680824279785 5
      vertex -8.481255531311035 -8.34707260131836 5
    endloop
  endfacet
  facet normal 0.2334450540004532 -0.9723699947873369 0
    outer loop
      vertex -8.304680824279785 -8.304680824279785 5
      vertex -8.481255531311035 -8.34707260131836 0
      vertex -8.304680824279785 -8.304680824279785 0
    endloop
  endfacet
  facet normal -0.8526409896902294 0.5224972178873933 0
    outer loop
      vertex -10.5593900680542 -5.4867658615112305 0
      vertex -10.464509010314941 -5.331933498382568 5
      vertex -10.464509010314941 -5.331933498382568 0
    endloop
  endfacet
  facet normal -0.8526409896902294 0.5224972178873933 0
    outer loop
      vertex -10.464509010314941 -5.331933498382568 5
      vertex -10.5593900680542 -5.4867658615112305 0
      vertex -10.5593900680542 -5.4867658615112305 5
    endloop
  endfacet
  facet normal -0.9723699354694119 -0.23344530107760117 0
    outer loop
      vertex -10.112711906433105 -7.347314834594727 0
      vertex -10.5593900680542 -5.4867658615112305 5
      vertex -10.5593900680542 -5.4867658615112305 0
    endloop
  endfacet
  facet normal -0.9723699354694119 -0.23344530107760117 0
    outer loop
      vertex -10.5593900680542 -5.4867658615112305 5
      vertex -10.112711906433105 -7.347314834594727 0
      vertex -10.112711906433105 -7.347314834594727 5
    endloop
  endfacet
  facet normal -0.23344530107760117 -0.9723699354694119 0
    outer loop
      vertex -7.347314834594727 -10.112711906433105 0
      vertex -5.4867658615112305 -10.5593900680542 5
      vertex -7.347314834594727 -10.112711906433105 5
    endloop
  endfacet
  facet normal -0.23344530107760117 -0.9723699354694119 0
    outer loop
      vertex -5.4867658615112305 -10.5593900680542 5
      vertex -7.347314834594727 -10.112711906433105 0
      vertex -5.4867658615112305 -10.5593900680542 0
    endloop
  endfacet
  facet normal 0.5224972178873933 -0.8526409896902294 0
    outer loop
      vertex -5.4867658615112305 -10.5593900680542 0
      vertex -5.331933498382568 -10.464509010314941 5
      vertex -5.4867658615112305 -10.5593900680542 5
    endloop
  endfacet
  facet normal 0.5224972178873933 -0.8526409896902294 0
    outer loop
      vertex -5.331933498382568 -10.464509010314941 5
      vertex -5.4867658615112305 -10.5593900680542 0
      vertex -5.331933498382568 -10.464509010314941 0
    endloop
  endfacet
  facet normal -0.9723699947873369 0.2334450540004532 0
    outer loop
      vertex -8.34707260131836 -8.481255531311035 0
      vertex -8.304680824279785 -8.304680824279785 5
      vertex -8.304680824279785 -8.304680824279785 0
    endloop
  endfacet
  facet normal -0.9723699947873369 0.2334450540004532 0
    outer loop
      vertex -8.304680824279785 -8.304680824279785 5
      vertex -8.34707260131836 -8.481255531311035 0
      vertex -8.34707260131836 -8.481255531311035 5
    endloop
  endfacet
  facet normal -0.852640161040226 -0.5224985701236868 0
    outer loop
      vertex -7.347314834594727 -10.112711906433105 0
      vertex -8.34707260131836 -8.481255531311035 5
      vertex -8.34707260131836 -8.481255531311035 0
    endloop
  endfacet
  facet normal -0.852640161040226 -0.5224985701236868 0
    outer loop
      vertex -8.34707260131836 -8.481255531311035 5
      vertex -7.347314834594727 -10.112711906433105 0
      vertex -7.347314834594727 -10.112711906433105 5
    endloop
  endfacet
  facet normal 0.07845888641781058 -0.9969173502061628 0
    outer loop
      vertex -3.8627119064331055 -11.888205528259277 0
      vertex -1.9551935195922852 -11.738080978393555 5
      vertex -3.8627119064331055 -11.888205528259277 5
    endloop
  endfacet
  facet normal 0.07845888641781058 -0.9969173502061628 0
    outer loop
      vertex -1.9551935195922852 -11.738080978393555 5
      vertex -3.8627119064331055 -11.888205528259277 0
      vertex -1.9551935195922852 -11.738080978393555 0
    endloop
  endfacet
  facet normal -0.6494477451933612 -0.7604062245032315 0
    outer loop
      vertex -5.317686080932617 -10.645541191101074 0
      vertex -3.8627119064331055 -11.888205528259277 5
      vertex -5.317686080932617 -10.645541191101074 5
    endloop
  endfacet
  facet normal -0.6494477451933612 -0.7604062245032315 0
    outer loop
      vertex -3.8627119064331055 -11.888205528259277 5
      vertex -5.317686080932617 -10.645541191101074 0
      vertex -3.8627119064331055 -11.888205528259277 0
    endloop
  endfacet
  facet normal -0.9969173872159098 -0.07845841616170643 0
    outer loop
      vertex -5.317686080932617 -10.645541191101074 0
      vertex -5.331933498382568 -10.464509010314941 5
      vertex -5.331933498382568 -10.464509010314941 0
    endloop
  endfacet
  facet normal -0.9969173872159098 -0.07845841616170643 0
    outer loop
      vertex -5.331933498382568 -10.464509010314941 5
      vertex -5.317686080932617 -10.645541191101074 0
      vertex -5.317686080932617 -10.645541191101074 5
    endloop
  endfacet
  facet normal 0.7604064753068974 -0.6494474515396459 0
    outer loop
      vertex -1.9551935195922852 -11.738080978393555 5
      vertex -1.837259292602539 -11.599997520446777 0
      vertex -1.837259292602539 -11.599997520446777 5
    endloop
  endfacet
  facet normal 0.7604064753068974 -0.6494474515396459 0
    outer loop
      vertex -1.837259292602539 -11.599997520446777 0
      vertex -1.9551935195922852 -11.738080978393555 5
      vertex -1.9551935195922852 -11.738080978393555 0
    endloop
  endfacet
  facet normal 0.3826834326500641 -0.9238795323932466 0
    outer loop
      vertex 0 -12.5 0
      vertex 1.7677669525146484 -11.767766952514648 5
      vertex 0 -12.5 5
    endloop
  endfacet
  facet normal 0.3826834326500641 -0.9238795323932466 0
    outer loop
      vertex 1.7677669525146484 -11.767766952514648 5
      vertex 0 -12.5 0
      vertex 1.7677669525146484 -11.767766952514648 0
    endloop
  endfacet
  facet normal -0.9238795987591062 -0.38268327242866634 0
    outer loop
      vertex -1.7677669525146484 -11.767766952514648 0
      vertex -1.837259292602539 -11.599997520446777 5
      vertex -1.837259292602539 -11.599997520446777 0
    endloop
  endfacet
  facet normal -0.9238795987591062 -0.38268327242866634 0
    outer loop
      vertex -1.837259292602539 -11.599997520446777 5
      vertex -1.7677669525146484 -11.767766952514648 0
      vertex -1.7677669525146484 -11.767766952514648 5
    endloop
  endfacet
  facet normal 0.9238795987591062 -0.38268327242866634 0
    outer loop
      vertex 1.7677669525146484 -11.767766952514648 5
      vertex 1.837259292602539 -11.599997520446777 0
      vertex 1.837259292602539 -11.599997520446777 5
    endloop
  endfacet
  facet normal 0.9238795987591062 -0.38268327242866634 0
    outer loop
      vertex 1.837259292602539 -11.599997520446777 0
      vertex 1.7677669525146484 -11.767766952514648 5
      vertex 1.7677669525146484 -11.767766952514648 0
    endloop
  endfacet
  facet normal -0.3826834326500641 -0.9238795323932466 0
    outer loop
      vertex -1.7677669525146484 -11.767766952514648 0
      vertex 0 -12.5 5
      vertex -1.7677669525146484 -11.767766952514648 5
    endloop
  endfacet
  facet normal -0.3826834326500641 -0.9238795323932466 0
    outer loop
      vertex 0 -12.5 5
      vertex -1.7677669525146484 -11.767766952514648 0
      vertex 0 -12.5 0
    endloop
  endfacet
  facet normal 0.9969173872159098 -0.07845841616170643 0
    outer loop
      vertex 5.317686080932617 -10.645541191101074 5
      vertex 5.331933498382568 -10.464509010314941 0
      vertex 5.331933498382568 -10.464509010314941 5
    endloop
  endfacet
  facet normal 0.9969173872159098 -0.07845841616170643 0
    outer loop
      vertex 5.331933498382568 -10.464509010314941 0
      vertex 5.317686080932617 -10.645541191101074 5
      vertex 5.317686080932617 -10.645541191101074 0
    endloop
  endfacet
  facet normal 0.6494477451933612 -0.7604062245032315 0
    outer loop
      vertex 3.8627119064331055 -11.888205528259277 0
      vertex 5.317686080932617 -10.645541191101074 5
      vertex 3.8627119064331055 -11.888205528259277 5
    endloop
  endfacet
  facet normal 0.6494477451933612 -0.7604062245032315 0
    outer loop
      vertex 5.317686080932617 -10.645541191101074 5
      vertex 3.8627119064331055 -11.888205528259277 0
      vertex 5.317686080932617 -10.645541191101074 0
    endloop
  endfacet
  facet normal -0.07845888641781058 -0.9969173502061628 0
    outer loop
      vertex 1.9551935195922852 -11.738080978393555 0
      vertex 3.8627119064331055 -11.888205528259277 5
      vertex 1.9551935195922852 -11.738080978393555 5
    endloop
  endfacet
  facet normal -0.07845888641781058 -0.9969173502061628 0
    outer loop
      vertex 3.8627119064331055 -11.888205528259277 5
      vertex 1.9551935195922852 -11.738080978393555 0
      vertex 3.8627119064331055 -11.888205528259277 0
    endloop
  endfacet
  facet normal -0.7604064753068974 -0.6494474515396459 0
    outer loop
      vertex 1.9551935195922852 -11.738080978393555 0
      vertex 1.837259292602539 -11.599997520446777 5
      vertex 1.837259292602539 -11.599997520446777 0
    endloop
  endfacet
  facet normal -0.7604064753068974 -0.6494474515396459 0
    outer loop
      vertex 1.837259292602539 -11.599997520446777 5
      vertex 1.9551935195922852 -11.738080978393555 0
      vertex 1.9551935195922852 -11.738080978393555 5
    endloop
  endfacet
  facet normal 0.9723699947873369 0.2334450540004532 0
    outer loop
      vertex 8.34707260131836 -8.481255531311035 5
      vertex 8.304680824279785 -8.304680824279785 0
      vertex 8.304680824279785 -8.304680824279785 5
    endloop
  endfacet
  facet normal 0.9723699947873369 0.2334450540004532 0
    outer loop
      vertex 8.304680824279785 -8.304680824279785 0
      vertex 8.34707260131836 -8.481255531311035 5
      vertex 8.34707260131836 -8.481255531311035 0
    endloop
  endfacet
  facet normal 0.852640161040226 -0.5224985701236868 0
    outer loop
      vertex 7.347314834594727 -10.112711906433105 5
      vertex 8.34707260131836 -8.481255531311035 0
      vertex 8.34707260131836 -8.481255531311035 5
    endloop
  endfacet
  facet normal 0.852640161040226 -0.5224985701236868 0
    outer loop
      vertex 8.34707260131836 -8.481255531311035 0
      vertex 7.347314834594727 -10.112711906433105 5
      vertex 7.347314834594727 -10.112711906433105 0
    endloop
  endfacet
  facet normal -0.5224972178873933 -0.8526409896902294 0
    outer loop
      vertex 5.331933498382568 -10.464509010314941 0
      vertex 5.4867658615112305 -10.5593900680542 5
      vertex 5.331933498382568 -10.464509010314941 5
    endloop
  endfacet
  facet normal -0.5224972178873933 -0.8526409896902294 0
    outer loop
      vertex 5.4867658615112305 -10.5593900680542 5
      vertex 5.331933498382568 -10.464509010314941 0
      vertex 5.4867658615112305 -10.5593900680542 0
    endloop
  endfacet
  facet normal 0.23344530107760117 -0.9723699354694119 0
    outer loop
      vertex 5.4867658615112305 -10.5593900680542 0
      vertex 7.347314834594727 -10.112711906433105 5
      vertex 5.4867658615112305 -10.5593900680542 5
    endloop
  endfacet
  facet normal 0.23344530107760117 -0.9723699354694119 0
    outer loop
      vertex 7.347314834594727 -10.112711906433105 5
      vertex 5.4867658615112305 -10.5593900680542 0
      vertex 7.347314834594727 -10.112711906433105 0
    endloop
  endfacet
  facet normal 0.8526409896902294 0.5224972178873933 0
    outer loop
      vertex 10.5593900680542 -5.4867658615112305 5
      vertex 10.464509010314941 -5.331933498382568 0
      vertex 10.464509010314941 -5.331933498382568 5
    endloop
  endfacet
  facet normal 0.8526409896902294 0.5224972178873933 0
    outer loop
      vertex 10.464509010314941 -5.331933498382568 0
      vertex 10.5593900680542 -5.4867658615112305 5
      vertex 10.5593900680542 -5.4867658615112305 0
    endloop
  endfacet
  facet normal 0.9723699354694119 -0.23344530107760117 0
    outer loop
      vertex 10.112711906433105 -7.347314834594727 5
      vertex 10.5593900680542 -5.4867658615112305 0
      vertex 10.5593900680542 -5.4867658615112305 5
    endloop
  endfacet
  facet normal 0.9723699354694119 -0.23344530107760117 0
    outer loop
      vertex 10.5593900680542 -5.4867658615112305 0
      vertex 10.112711906433105 -7.347314834594727 5
      vertex 10.112711906433105 -7.347314834594727 0
    endloop
  endfacet
  facet normal -0.2334450540004532 -0.9723699947873369 0
    outer loop
      vertex 8.304680824279785 -8.304680824279785 0
      vertex 8.481255531311035 -8.34707260131836 5
      vertex 8.304680824279785 -8.304680824279785 5
    endloop
  endfacet
  facet normal -0.2334450540004532 -0.9723699947873369 0
    outer loop
      vertex 8.481255531311035 -8.34707260131836 5
      vertex 8.304680824279785 -8.304680824279785 0
      vertex 8.481255531311035 -8.34707260131836 0
    endloop
  endfacet
  facet normal 0.5224985701236868 -0.852640161040226 0
    outer loop
      vertex 8.481255531311035 -8.34707260131836 0
      vertex 10.112711906433105 -7.347314834594727 5
      vertex 8.481255531311035 -8.34707260131836 5
    endloop
  endfacet
  facet normal 0.5224985701236868 -0.852640161040226 0
    outer loop
      vertex 10.112711906433105 -7.347314834594727 5
      vertex 8.481255531311035 -8.34707260131836 0
      vertex 10.112711906433105 -7.347314834594727 0
    endloop
  endfacet
  facet normal 0.6494474515396459 0.7604064753068974 0
    outer loop
      vertex 11.738080978393555 -1.9551935195922852 0
      vertex 11.599997520446777 -1.837259292602539 5
      vertex 11.738080978393555 -1.9551935195922852 5
    endloop
  endfacet
  facet normal 0.6494474515396459 0.7604064753068974 0
    outer loop
      vertex 11.599997520446777 -1.837259292602539 5
      vertex 11.738080978393555 -1.9551935195922852 0
      vertex 11.599997520446777 -1.837259292602539 0
    endloop
  endfacet
  facet normal 0.9969173502061628 0.07845888641781058 0
    outer loop
      vertex 11.888205528259277 -3.8627119064331055 5
      vertex 11.738080978393555 -1.9551935195922852 0
      vertex 11.738080978393555 -1.9551935195922852 5
    endloop
  endfacet
  facet normal 0.9969173502061628 0.07845888641781058 0
    outer loop
      vertex 11.738080978393555 -1.9551935195922852 0
      vertex 11.888205528259277 -3.8627119064331055 5
      vertex 11.888205528259277 -3.8627119064331055 0
    endloop
  endfacet
  facet normal 0.7604062245032315 -0.6494477451933612 0
    outer loop
      vertex 10.645541191101074 -5.317686080932617 5
      vertex 11.888205528259277 -3.8627119064331055 0
      vertex 11.888205528259277 -3.8627119064331055 5
    endloop
  endfacet
  facet normal 0.7604062245032315 -0.6494477451933612 0
    outer loop
      vertex 11.888205528259277 -3.8627119064331055 0
      vertex 10.645541191101074 -5.317686080932617 5
      vertex 10.645541191101074 -5.317686080932617 0
    endloop
  endfacet
  facet normal 0.07845841616170643 -0.9969173872159098 0
    outer loop
      vertex 10.464509010314941 -5.331933498382568 0
      vertex 10.645541191101074 -5.317686080932617 5
      vertex 10.464509010314941 -5.331933498382568 5
    endloop
  endfacet
  facet normal 0.07845841616170643 -0.9969173872159098 0
    outer loop
      vertex 10.645541191101074 -5.317686080932617 5
      vertex 10.464509010314941 -5.331933498382568 0
      vertex 10.645541191101074 -5.317686080932617 0
    endloop
  endfacet
endsolid OpenSCAD_Model
