solid OpenSCAD_Model
  facet normal 1 0 0
    outer loop
      vertex 8 0 5.857863426208496
      vertex 8 8 0
      vertex 8 8 5.857863426208496
    endloop
  endfacet
  facet normal 1 0 0
    outer loop
      vertex 8 8 0
      vertex 8 0 5.857863426208496
      vertex 8 0 0
    endloop
  endfacet
  facet normal 0 0 1
    outer loop
      vertex 0 8 5.857863426208496
      vertex 8 0 5.857863426208496
      vertex 8 8 5.857863426208496
    endloop
  endfacet
  facet normal 0 0 1
    outer loop
      vertex 8 0 5.857863426208496
      vertex 0 8 5.857863426208496
      vertex 0 0 5.857863426208496
    endloop
  endfacet
  facet normal 0 0 -1
    outer loop
      vertex 0 0 0
      vertex 8 8 0
      vertex 8 0 0
    endloop
  endfacet
  facet normal 0 0 -1
    outer loop
      vertex 8 8 0
      vertex 0 0 0
      vertex 0 8 0
    endloop
  endfacet
  facet normal -1 0 0
    outer loop
      vertex 0 0 0
      vertex 0 8 5.857863426208496
      vertex 0 8 0
    endloop
  endfacet
  facet normal -1 0 0
    outer loop
      vertex 0 8 5.857863426208496
      vertex 0 0 0
      vertex 0 0 5.857863426208496
    endloop
  endfacet
  facet normal 0 1 0
    outer loop
      vertex 8 8 0
      vertex 0 8 5.857863426208496
      vertex 8 8 5.857863426208496
    endloop
  endfacet
  facet normal 0 1 0
    outer loop
      vertex 0 8 5.857863426208496
      vertex 8 8 0
      vertex 0 8 0
    endloop
  endfacet
  facet normal 0 -1 0
    outer loop
      vertex 0 0 0
      vertex 8 0 5.857863426208496
      vertex 0 0 5.857863426208496
    endloop
  endfacet
  facet normal 0 -1 0
    outer loop
      vertex 8 0 5.857863426208496
      vertex 0 0 0
      vertex 8 0 0
    endloop
  endfacet
  facet normal 1 0 0
    outer loop
      vertex 18 0 9.459074020385742
      vertex 18 8 0
      vertex 18 8 9.459074020385742
    endloop
  endfacet
  facet normal 1 0 0
    outer loop
      vertex 18 8 0
      vertex 18 0 9.459074020385742
      vertex 18 0 0
    endloop
  endfacet
  facet normal 0 0 1
    outer loop
      vertex 10 8 9.459074020385742
      vertex 18 0 9.459074020385742
      vertex 18 8 9.459074020385742
    endloop
  endfacet
  facet normal 0 0 1
    outer loop
      vertex 18 0 9.459074020385742
      vertex 10 8 9.459074020385742
      vertex 10 0 9.459074020385742
    endloop
  endfacet
  facet normal 0 0 -1
    outer loop
      vertex 10 0 0
      vertex 18 8 0
      vertex 18 0 0
    endloop
  endfacet
  facet normal 0 0 -1
    outer loop
      vertex 18 8 0
      vertex 10 0 0
      vertex 10 8 0
    endloop
  endfacet
  facet normal -1 0 0
    outer loop
      vertex 10 0 0
      vertex 10 8 9.459074020385742
      vertex 10 8 0
    endloop
  endfacet
  facet normal -1 0 0
    outer loop
      vertex 10 8 9.459074020385742
      vertex 10 0 0
      vertex 10 0 9.459074020385742
    endloop
  endfacet
  facet normal 0 1 0
    outer loop
      vertex 18 8 0
      vertex 10 8 9.459074020385742
      vertex 18 8 9.459074020385742
    endloop
  endfacet
  facet normal 0 1 0
    outer loop
      vertex 10 8 9.459074020385742
      vertex 18 8 0
      vertex 10 8 0
    endloop
  endfacet
  facet normal 0 -1 0
    outer loop
      vertex 10 0 0
      vertex 18 0 9.459074020385742
      vertex 10 0 9.459074020385742
    endloop
  endfacet
  facet normal 0 -1 0
    outer loop
      vertex 18 0 9.459074020385742
      vertex 10 0 0
      vertex 18 0 0
    endloop
  endfacet
  facet normal 1 0 0
    outer loop
      vertex 28 0 9.459074020385742
      vertex 28 8 0
      vertex 28 8 9.459074020385742
    endloop
  endfacet
  facet normal 1 0 0
    outer loop
      vertex 28 8 0
      vertex 28 0 9.459074020385742
      vertex 28 0 0
    endloop
  endfacet
  facet normal 0 0 1
    outer loop
      vertex 20 8 9.459074020385742
      vertex 28 0 9.459074020385742
      vertex 28 8 9.459074020385742
    endloop
  endfacet
  facet normal 0 0 1
    outer loop
      vertex 28 0 9.459074020385742
      vertex 20 8 9.459074020385742
      vertex 20 0 9.459074020385742
    endloop
  endfacet
  facet normal 0 0 -1
    outer loop
      vertex 20 0 0
      vertex 28 8 0
      vertex 28 0 0
    endloop
  endfacet
  facet normal 0 0 -1
    outer loop
      vertex 28 8 0
      vertex 20 0 0
      vertex 20 8 0
    endloop
  endfacet
  facet normal -1 0 0
    outer loop
      vertex 20 0 0
      vertex 20 8 9.459074020385742
      vertex 20 8 0
    endloop
  endfacet
  facet normal -1 0 0
    outer loop
      vertex 20 8 9.459074020385742
      vertex 20 0 0
      vertex 20 0 9.459074020385742
    endloop
  endfacet
  facet normal 0 1 0
    outer loop
      vertex 28 8 0
      vertex 20 8 9.459074020385742
      vertex 28 8 9.459074020385742
    endloop
  endfacet
  facet normal 0 1 0
    outer loop
      vertex 20 8 9.459074020385742
      vertex 28 8 0
      vertex 20 8 0
    endloop
  endfacet
  facet normal 0 -1 0
    outer loop
      vertex 20 0 0
      vertex 28 0 9.459074020385742
      vertex 20 0 9.459074020385742
    endloop
  endfacet
  facet normal 0 -1 0
    outer loop
      vertex 28 0 9.459074020385742
      vertex 20 0 0
      vertex 28 0 0
    endloop
  endfacet
  facet normal 1 0 0
    outer loop
      vertex 38 0 5.857863426208496
      vertex 38 8 0
      vertex 38 8 5.857863426208496
    endloop
  endfacet
  facet normal 1 0 0
    outer loop
      vertex 38 8 0
      vertex 38 0 5.857863426208496
      vertex 38 0 0
    endloop
  endfacet
  facet normal 0 0 1
    outer loop
      vertex 30 8 5.857863426208496
      vertex 38 0 5.857863426208496
      vertex 38 8 5.857863426208496
    endloop
  endfacet
  facet normal 0 0 1
    outer loop
      vertex 38 0 5.857863426208496
      vertex 30 8 5.857863426208496
      vertex 30 0 5.857863426208496
    endloop
  endfacet
  facet normal 0 0 -1
    outer loop
      vertex 30 0 0
      vertex 38 8 0
      vertex 38 0 0
    endloop
  endfacet
  facet normal 0 0 -1
    outer loop
      vertex 38 8 0
      vertex 30 0 0
      vertex 30 8 0
    endloop
  endfacet
  facet normal -1 0 0
    outer loop
      vertex 30 0 0
      vertex 30 8 5.857863426208496
      vertex 30 8 0
    endloop
  endfacet
  facet normal -1 0 0
    outer loop
      vertex 30 8 5.857863426208496
      vertex 30 0 0
      vertex 30 0 5.857863426208496
    endloop
  endfacet
  facet normal 0 1 0
    outer loop
      vertex 38 8 0
      vertex 30 8 5.857863426208496
      vertex 38 8 5.857863426208496
    endloop
  endfacet
  facet normal 0 1 0
    outer loop
      vertex 30 8 5.857863426208496
      vertex 38 8 0
      vertex 30 8 0
    endloop
  endfacet
  facet normal 0 -1 0
    outer loop
      vertex 30 0 0
      vertex 38 0 5.857863426208496
      vertex 30 0 5.857863426208496
    endloop
  endfacet
  facet normal 0 -1 0
    outer loop
      vertex 38 0 5.857863426208496
      vertex 30 0 0
      vertex 38 0 0
    endloop
  endfacet
  facet normal 1 0 0
    outer loop
      vertex 8 10 9.459074020385742
      vertex 8 18 0
      vertex 8 18 9.459074020385742
    endloop
  endfacet
  facet normal 1 0 0
    outer loop
      vertex 8 18 0
      vertex 8 10 9.459074020385742
      vertex 8 10 0
    endloop
  endfacet
  facet normal 0 0 1
    outer loop
      vertex 0 18 9.459074020385742
      vertex 8 10 9.459074020385742
      vertex 8 18 9.459074020385742
    endloop
  endfacet
  facet normal 0 0 1
    outer loop
      vertex 8 10 9.459074020385742
      vertex 0 18 9.459074020385742
      vertex 0 10 9.459074020385742
    endloop
  endfacet
  facet normal 0 0 -1
    outer loop
      vertex 0 10 0
      vertex 8 18 0
      vertex 8 10 0
    endloop
  endfacet
  facet normal 0 0 -1
    outer loop
      vertex 8 18 0
      vertex 0 10 0
      vertex 0 18 0
    endloop
  endfacet
  facet normal -1 0 0
    outer loop
      vertex 0 10 0
      vertex 0 18 9.459074020385742
      vertex 0 18 0
    endloop
  endfacet
  facet normal -1 0 0
    outer loop
      vertex 0 18 9.459074020385742
      vertex 0 10 0
      vertex 0 10 9.459074020385742
    endloop
  endfacet
  facet normal 0 1 0
    outer loop
      vertex 8 18 0
      vertex 0 18 9.459074020385742
      vertex 8 18 9.459074020385742
    endloop
  endfacet
  facet normal 0 1 0
    outer loop
      vertex 0 18 9.459074020385742
      vertex 8 18 0
      vertex 0 18 0
    endloop
  endfacet
  facet normal 0 -1 0
    outer loop
      vertex 0 10 0
      vertex 8 10 9.459074020385742
      vertex 0 10 9.459074020385742
    endloop
  endfacet
  facet normal 0 -1 0
    outer loop
      vertex 8 10 9.459074020385742
      vertex 0 10 0
      vertex 8 10 0
    endloop
  endfacet
  facet normal 1 0 0
    outer loop
      vertex 18 10 15.285954475402832
      vertex 18 18 0
      vertex 18 18 15.285954475402832
    endloop
  endfacet
  facet normal 1 0 0
    outer loop
      vertex 18 18 0
      vertex 18 10 15.285954475402832
      vertex 18 10 0
    endloop
  endfacet
  facet normal 0 0 1
    outer loop
      vertex 10 18 15.285954475402832
      vertex 18 10 15.285954475402832
      vertex 18 18 15.285954475402832
    endloop
  endfacet
  facet normal 0 0 1
    outer loop
      vertex 18 10 15.285954475402832
      vertex 10 18 15.285954475402832
      vertex 10 10 15.285954475402832
    endloop
  endfacet
  facet normal 0 0 -1
    outer loop
      vertex 10 10 0
      vertex 18 18 0
      vertex 18 10 0
    endloop
  endfacet
  facet normal 0 0 -1
    outer loop
      vertex 18 18 0
      vertex 10 10 0
      vertex 10 18 0
    endloop
  endfacet
  facet normal -1 0 0
    outer loop
      vertex 10 10 0
      vertex 10 18 15.285954475402832
      vertex 10 18 0
    endloop
  endfacet
  facet normal -1 0 0
    outer loop
      vertex 10 18 15.285954475402832
      vertex 10 10 0
      vertex 10 10 15.285954475402832
    endloop
  endfacet
  facet normal 0 1 0
    outer loop
      vertex 18 18 0
      vertex 10 18 15.285954475402832
      vertex 18 18 15.285954475402832
    endloop
  endfacet
  facet normal 0 1 0
    outer loop
      vertex 10 18 15.285954475402832
      vertex 18 18 0
      vertex 10 18 0
    endloop
  endfacet
  facet normal 0 -1 0
    outer loop
      vertex 10 10 0
      vertex 18 10 15.285954475402832
      vertex 10 10 15.285954475402832
    endloop
  endfacet
  facet normal 0 -1 0
    outer loop
      vertex 18 10 15.285954475402832
      vertex 10 10 0
      vertex 18 10 0
    endloop
  endfacet
  facet normal 1 0 0
    outer loop
      vertex 28 10 15.285954475402832
      vertex 28 18 0
      vertex 28 18 15.285954475402832
    endloop
  endfacet
  facet normal 1 0 0
    outer loop
      vertex 28 18 0
      vertex 28 10 15.285954475402832
      vertex 28 10 0
    endloop
  endfacet
  facet normal 0 0 1
    outer loop
      vertex 20 18 15.285954475402832
      vertex 28 10 15.285954475402832
      vertex 28 18 15.285954475402832
    endloop
  endfacet
  facet normal 0 0 1
    outer loop
      vertex 28 10 15.285954475402832
      vertex 20 18 15.285954475402832
      vertex 20 10 15.285954475402832
    endloop
  endfacet
  facet normal 0 0 -1
    outer loop
      vertex 20 10 0
      vertex 28 18 0
      vertex 28 10 0
    endloop
  endfacet
  facet normal 0 0 -1
    outer loop
      vertex 28 18 0
      vertex 20 10 0
      vertex 20 18 0
    endloop
  endfacet
  facet normal -1 0 0
    outer loop
      vertex 20 10 0
      vertex 20 18 15.285954475402832
      vertex 20 18 0
    endloop
  endfacet
  facet normal -1 0 0
    outer loop
      vertex 20 18 15.285954475402832
      vertex 20 10 0
      vertex 20 10 15.285954475402832
    endloop
  endfacet
  facet normal 0 1 0
    outer loop
      vertex 28 18 0
      vertex 20 18 15.285954475402832
      vertex 28 18 15.285954475402832
    endloop
  endfacet
  facet normal 0 1 0
    outer loop
      vertex 20 18 15.285954475402832
      vertex 28 18 0
      vertex 20 18 0
    endloop
  endfacet
  facet normal 0 -1 0
    outer loop
      vertex 20 10 0
      vertex 28 10 15.285954475402832
      vertex 20 10 15.285954475402832
    endloop
  endfacet
  facet normal 0 -1 0
    outer loop
      vertex 28 10 15.285954475402832
      vertex 20 10 0
      vertex 28 10 0
    endloop
  endfacet
  facet normal 1 0 0
    outer loop
      vertex 38 10 9.459074020385742
      vertex 38 18 0
      vertex 38 18 9.459074020385742
    endloop
  endfacet
  facet normal 1 0 0
    outer loop
      vertex 38 18 0
      vertex 38 10 9.459074020385742
      vertex 38 10 0
    endloop
  endfacet
  facet normal 0 0 1
    outer loop
      vertex 30 18 9.459074020385742
      vertex 38 10 9.459074020385742
      vertex 38 18 9.459074020385742
    endloop
  endfacet
  facet normal 0 0 1
    outer loop
      vertex 38 10 9.459074020385742
      vertex 30 18 9.459074020385742
      vertex 30 10 9.459074020385742
    endloop
  endfacet
  facet normal 0 0 -1
    outer loop
      vertex 30 10 0
      vertex 38 18 0
      vertex 38 10 0
    endloop
  endfacet
  facet normal 0 0 -1
    outer loop
      vertex 38 18 0
      vertex 30 10 0
      vertex 30 18 0
    endloop
  endfacet
  facet normal -1 0 0
    outer loop
      vertex 30 10 0
      vertex 30 18 9.459074020385742
      vertex 30 18 0
    endloop
  endfacet
  facet normal -1 0 0
    outer loop
      vertex 30 18 9.459074020385742
      vertex 30 10 0
      vertex 30 10 9.459074020385742
    endloop
  endfacet
  facet normal 0 1 0
    outer loop
      vertex 38 18 0
      vertex 30 18 9.459074020385742
      vertex 38 18 9.459074020385742
    endloop
  endfacet
  facet normal 0 1 0
    outer loop
      vertex 30 18 9.459074020385742
      vertex 38 18 0
      vertex 30 18 0
    endloop
  endfacet
  facet normal 0 -1 0
    outer loop
      vertex 30 10 0
      vertex 38 10 9.459074020385742
      vertex 30 10 9.459074020385742
    endloop
  endfacet
  facet normal 0 -1 0
    outer loop
      vertex 38 10 9.459074020385742
      vertex 30 10 0
      vertex 38 10 0
    endloop
  endfacet
  facet normal 1 0 0
    outer loop
      vertex 8 20 9.459074020385742
      vertex 8 28 0
      vertex 8 28 9.459074020385742
    endloop
  endfacet
  facet normal 1 0 0
    outer loop
      vertex 8 28 0
      vertex 8 20 9.459074020385742
      vertex 8 20 0
    endloop
  endfacet
  facet normal 0 0 1
    outer loop
      vertex 0 28 9.459074020385742
      vertex 8 20 9.459074020385742
      vertex 8 28 9.459074020385742
    endloop
  endfacet
  facet normal 0 0 1
    outer loop
      vertex 8 20 9.459074020385742
      vertex 0 28 9.459074020385742
      vertex 0 20 9.459074020385742
    endloop
  endfacet
  facet normal 0 0 -1
    outer loop
      vertex 0 20 0
      vertex 8 28 0
      vertex 8 20 0
    endloop
  endfacet
  facet normal 0 0 -1
    outer loop
      vertex 8 28 0
      vertex 0 20 0
      vertex 0 28 0
    endloop
  endfacet
  facet normal -1 0 0
    outer loop
      vertex 0 20 0
      vertex 0 28 9.459074020385742
      vertex 0 28 0
    endloop
  endfacet
  facet normal -1 0 0
    outer loop
      vertex 0 28 9.459074020385742
      vertex 0 20 0
      vertex 0 20 9.459074020385742
    endloop
  endfacet
  facet normal 0 1 0
    outer loop
      vertex 8 28 0
      vertex 0 28 9.459074020385742
      vertex 8 28 9.459074020385742
    endloop
  endfacet
  facet normal 0 1 0
    outer loop
      vertex 0 28 9.459074020385742
      vertex 8 28 0
      vertex 0 28 0
    endloop
  endfacet
  facet normal 0 -1 0
    outer loop
      vertex 0 20 0
      vertex 8 20 9.459074020385742
      vertex 0 20 9.459074020385742
    endloop
  endfacet
  facet normal 0 -1 0
    outer loop
      vertex 8 20 9.459074020385742
      vertex 0 20 0
      vertex 8 20 0
    endloop
  endfacet
  facet normal 1 0 0
    outer loop
      vertex 18 20 15.285954475402832
      vertex 18 28 0
      vertex 18 28 15.285954475402832
    endloop
  endfacet
  facet normal 1 0 0
    outer loop
      vertex 18 28 0
      vertex 18 20 15.285954475402832
      vertex 18 20 0
    endloop
  endfacet
  facet normal 0 0 1
    outer loop
      vertex 10 28 15.285954475402832
      vertex 18 20 15.285954475402832
      vertex 18 28 15.285954475402832
    endloop
  endfacet
  facet normal 0 0 1
    outer loop
      vertex 18 20 15.285954475402832
      vertex 10 28 15.285954475402832
      vertex 10 20 15.285954475402832
    endloop
  endfacet
  facet normal 0 0 -1
    outer loop
      vertex 10 20 0
      vertex 18 28 0
      vertex 18 20 0
    endloop
  endfacet
  facet normal 0 0 -1
    outer loop
      vertex 18 28 0
      vertex 10 20 0
      vertex 10 28 0
    endloop
  endfacet
  facet normal -1 0 0
    outer loop
      vertex 10 20 0
      vertex 10 28 15.285954475402832
      vertex 10 28 0
    endloop
  endfacet
  facet normal -1 0 0
    outer loop
      vertex 10 28 15.285954475402832
      vertex 10 20 0
      vertex 10 20 15.285954475402832
    endloop
  endfacet
  facet normal 0 1 0
    outer loop
      vertex 18 28 0
      vertex 10 28 15.285954475402832
      vertex 18 28 15.285954475402832
    endloop
  endfacet
  facet normal 0 1 0
    outer loop
      vertex 10 28 15.285954475402832
      vertex 18 28 0
      vertex 10 28 0
    endloop
  endfacet
  facet normal 0 -1 0
    outer loop
      vertex 10 20 0
      vertex 18 20 15.285954475402832
      vertex 10 20 15.285954475402832
    endloop
  endfacet
  facet normal 0 -1 0
    outer loop
      vertex 18 20 15.285954475402832
      vertex 10 20 0
      vertex 18 20 0
    endloop
  endfacet
  facet normal 1 0 0
    outer loop
      vertex 28 20 15.285954475402832
      vertex 28 28 0
      vertex 28 28 15.285954475402832
    endloop
  endfacet
  facet normal 1 0 0
    outer loop
      vertex 28 28 0
      vertex 28 20 15.285954475402832
      vertex 28 20 0
    endloop
  endfacet
  facet normal 0 0 1
    outer loop
      vertex 20 28 15.285954475402832
      vertex 28 20 15.285954475402832
      vertex 28 28 15.285954475402832
    endloop
  endfacet
  facet normal 0 0 1
    outer loop
      vertex 28 20 15.285954475402832
      vertex 20 28 15.285954475402832
      vertex 20 20 15.285954475402832
    endloop
  endfacet
  facet normal 0 0 -1
    outer loop
      vertex 20 20 0
      vertex 28 28 0
      vertex 28 20 0
    endloop
  endfacet
  facet normal 0 0 -1
    outer loop
      vertex 28 28 0
      vertex 20 20 0
      vertex 20 28 0
    endloop
  endfacet
  facet normal -1 0 0
    outer loop
      vertex 20 20 0
      vertex 20 28 15.285954475402832
      vertex 20 28 0
    endloop
  endfacet
  facet normal -1 0 0
    outer loop
      vertex 20 28 15.285954475402832
      vertex 20 20 0
      vertex 20 20 15.285954475402832
    endloop
  endfacet
  facet normal 0 1 0
    outer loop
      vertex 28 28 0
      vertex 20 28 15.285954475402832
      vertex 28 28 15.285954475402832
    endloop
  endfacet
  facet normal 0 1 0
    outer loop
      vertex 20 28 15.285954475402832
      vertex 28 28 0
      vertex 20 28 0
    endloop
  endfacet
  facet normal 0 -1 0
    outer loop
      vertex 20 20 0
      vertex 28 20 15.285954475402832
      vertex 20 20 15.285954475402832
    endloop
  endfacet
  facet normal 0 -1 0
    outer loop
      vertex 28 20 15.285954475402832
      vertex 20 20 0
      vertex 28 20 0
    endloop
  endfacet
  facet normal 1 0 0
    outer loop
      vertex 38 20 9.459074020385742
      vertex 38 28 0
      vertex 38 28 9.459074020385742
    endloop
  endfacet
  facet normal 1 0 0
    outer loop
      vertex 38 28 0
      vertex 38 20 9.459074020385742
      vertex 38 20 0
    endloop
  endfacet
  facet normal 0 0 1
    outer loop
      vertex 30 28 9.459074020385742
      vertex 38 20 9.459074020385742
      vertex 38 28 9.459074020385742
    endloop
  endfacet
  facet normal 0 0 1
    outer loop
      vertex 38 20 9.459074020385742
      vertex 30 28 9.459074020385742
      vertex 30 20 9.459074020385742
    endloop
  endfacet
  facet normal 0 0 -1
    outer loop
      vertex 30 20 0
      vertex 38 28 0
      vertex 38 20 0
    endloop
  endfacet
  facet normal 0 0 -1
    outer loop
      vertex 38 28 0
      vertex 30 20 0
      vertex 30 28 0
    endloop
  endfacet
  facet normal -1 0 0
    outer loop
      vertex 30 20 0
      vertex 30 28 9.459074020385742
      vertex 30 28 0
    endloop
  endfacet
  facet normal -1 0 0
    outer loop
      vertex 30 28 9.459074020385742
      vertex 30 20 0
      vertex 30 20 9.459074020385742
    endloop
  endfacet
  facet normal 0 1 0
    outer loop
      vertex 38 28 0
      vertex 30 28 9.459074020385742
      vertex 38 28 9.459074020385742
    endloop
  endfacet
  facet normal 0 1 0
    outer loop
      vertex 30 28 9.459074020385742
      vertex 38 28 0
      vertex 30 28 0
    endloop
  endfacet
  facet normal 0 -1 0
    outer loop
      vertex 30 20 0
      vertex 38 20 9.459074020385742
      vertex 30 20 9.459074020385742
    endloop
  endfacet
  facet normal 0 -1 0
    outer loop
      vertex 38 20 9.459074020385742
      vertex 30 20 0
      vertex 38 20 0
    endloop
  endfacet
  facet normal 1 0 0
    outer loop
      vertex 8 30 5.857863426208496
      vertex 8 38 0
      vertex 8 38 5.857863426208496
    endloop
  endfacet
  facet normal 1 0 0
    outer loop
      vertex 8 38 0
      vertex 8 30 5.857863426208496
      vertex 8 30 0
    endloop
  endfacet
  facet normal 0 0 1
    outer loop
      vertex 0 38 5.857863426208496
      vertex 8 30 5.857863426208496
      vertex 8 38 5.857863426208496
    endloop
  endfacet
  facet normal 0 0 1
    outer loop
      vertex 8 30 5.857863426208496
      vertex 0 38 5.857863426208496
      vertex 0 30 5.857863426208496
    endloop
  endfacet
  facet normal 0 0 -1
    outer loop
      vertex 0 30 0
      vertex 8 38 0
      vertex 8 30 0
    endloop
  endfacet
  facet normal 0 0 -1
    outer loop
      vertex 8 38 0
      vertex 0 30 0
      vertex 0 38 0
    endloop
  endfacet
  facet normal -1 0 0
    outer loop
      vertex 0 30 0
      vertex 0 38 5.857863426208496
      vertex 0 38 0
    endloop
  endfacet
  facet normal -1 0 0
    outer loop
      vertex 0 38 5.857863426208496
      vertex 0 30 0
      vertex 0 30 5.857863426208496
    endloop
  endfacet
  facet normal 0 1 0
    outer loop
      vertex 8 38 0
      vertex 0 38 5.857863426208496
      vertex 8 38 5.857863426208496
    endloop
  endfacet
  facet normal 0 1 0
    outer loop
      vertex 0 38 5.857863426208496
      vertex 8 38 0
      vertex 0 38 0
    endloop
  endfacet
  facet normal 0 -1 0
    outer loop
      vertex 0 30 0
      vertex 8 30 5.857863426208496
      vertex 0 30 5.857863426208496
    endloop
  endfacet
  facet normal 0 -1 0
    outer loop
      vertex 8 30 5.857863426208496
      vertex 0 30 0
      vertex 8 30 0
    endloop
  endfacet
  facet normal 1 0 0
    outer loop
      vertex 18 30 9.459074020385742
      vertex 18 38 0
      vertex 18 38 9.459074020385742
    endloop
  endfacet
  facet normal 1 0 0
    outer loop
      vertex 18 38 0
      vertex 18 30 9.459074020385742
      vertex 18 30 0
    endloop
  endfacet
  facet normal 0 0 1
    outer loop
      vertex 10 38 9.459074020385742
      vertex 18 30 9.459074020385742
      vertex 18 38 9.459074020385742
    endloop
  endfacet
  facet normal 0 0 1
    outer loop
      vertex 18 30 9.459074020385742
      vertex 10 38 9.459074020385742
      vertex 10 30 9.459074020385742
    endloop
  endfacet
  facet normal 0 0 -1
    outer loop
      vertex 10 30 0
      vertex 18 38 0
      vertex 18 30 0
    endloop
  endfacet
  facet normal 0 0 -1
    outer loop
      vertex 18 38 0
      vertex 10 30 0
      vertex 10 38 0
    endloop
  endfacet
  facet normal -1 0 0
    outer loop
      vertex 10 30 0
      vertex 10 38 9.459074020385742
      vertex 10 38 0
    endloop
  endfacet
  facet normal -1 0 0
    outer loop
      vertex 10 38 9.459074020385742
      vertex 10 30 0
      vertex 10 30 9.459074020385742
    endloop
  endfacet
  facet normal 0 1 0
    outer loop
      vertex 18 38 0
      vertex 10 38 9.459074020385742
      vertex 18 38 9.459074020385742
    endloop
  endfacet
  facet normal 0 1 0
    outer loop
      vertex 10 38 9.459074020385742
      vertex 18 38 0
      vertex 10 38 0
    endloop
  endfacet
  facet normal 0 -1 0
    outer loop
      vertex 10 30 0
      vertex 18 30 9.459074020385742
      vertex 10 30 9.459074020385742
    endloop
  endfacet
  facet normal 0 -1 0
    outer loop
      vertex 18 30 9.459074020385742
      vertex 10 30 0
      vertex 18 30 0
    endloop
  endfacet
  facet normal 1 0 0
    outer loop
      vertex 28 30 9.459074020385742
      vertex 28 38 0
      vertex 28 38 9.459074020385742
    endloop
  endfacet
  facet normal 1 0 0
    outer loop
      vertex 28 38 0
      vertex 28 30 9.459074020385742
      vertex 28 30 0
    endloop
  endfacet
  facet normal 0 0 1
    outer loop
      vertex 20 38 9.459074020385742
      vertex 28 30 9.459074020385742
      vertex 28 38 9.459074020385742
    endloop
  endfacet
  facet normal 0 0 1
    outer loop
      vertex 28 30 9.459074020385742
      vertex 20 38 9.459074020385742
      vertex 20 30 9.459074020385742
    endloop
  endfacet
  facet normal 0 0 -1
    outer loop
      vertex 20 30 0
      vertex 28 38 0
      vertex 28 30 0
    endloop
  endfacet
  facet normal 0 0 -1
    outer loop
      vertex 28 38 0
      vertex 20 30 0
      vertex 20 38 0
    endloop
  endfacet
  facet normal -1 0 0
    outer loop
      vertex 20 30 0
      vertex 20 38 9.459074020385742
      vertex 20 38 0
    endloop
  endfacet
  facet normal -1 0 0
    outer loop
      vertex 20 38 9.459074020385742
      vertex 20 30 0
      vertex 20 30 9.459074020385742
    endloop
  endfacet
  facet normal 0 1 0
    outer loop
      vertex 28 38 0
      vertex 20 38 9.459074020385742
      vertex 28 38 9.459074020385742
    endloop
  endfacet
  facet normal 0 1 0
    outer loop
      vertex 20 38 9.459074020385742
      vertex 28 38 0
      vertex 20 38 0
    endloop
  endfacet
  facet normal 0 -1 0
    outer loop
      vertex 20 30 0
      vertex 28 30 9.459074020385742
      vertex 20 30 9.459074020385742
    endloop
  endfacet
  facet normal 0 -1 0
    outer loop
      vertex 28 30 9.459074020385742
      vertex 20 30 0
      vertex 28 30 0
    endloop
  endfacet
  facet normal 1 0 0
    outer loop
      vertex 38 30 5.857863426208496
      vertex 38 38 0
      vertex 38 38 5.857863426208496
    endloop
  endfacet
  facet normal 1 0 0
    outer loop
      vertex 38 38 0
      vertex 38 30 5.857863426208496
      vertex 38 30 0
    endloop
  endfacet
  facet normal 0 0 1
    outer loop
      vertex 30 38 5.857863426208496
      vertex 38 30 5.857863426208496
      vertex 38 38 5.857863426208496
    endloop
  endfacet
  facet normal 0 0 1
    outer loop
      vertex 38 30 5.857863426208496
      vertex 30 38 5.857863426208496
      vertex 30 30 5.857863426208496
    endloop
  endfacet
  facet normal 0 0 -1
    outer loop
      vertex 30 30 0
      vertex 38 38 0
      vertex 38 30 0
    endloop
  endfacet
  facet normal 0 0 -1
    outer loop
      vertex 38 38 0
      vertex 30 30 0
      vertex 30 38 0
    endloop
  endfacet
  facet normal -1 0 0
    outer loop
      vertex 30 30 0
      vertex 30 38 5.857863426208496
      vertex 30 38 0
    endloop
  endfacet
  facet normal -1 0 0
    outer loop
      vertex 30 38 5.857863426208496
      vertex 30 30 0
      vertex 30 30 5.857863426208496
    endloop
  endfacet
  facet normal 0 1 0
    outer loop
      vertex 38 38 0
      vertex 30 38 5.857863426208496
      vertex 38 38 5.857863426208496
    endloop
  endfacet
  facet normal 0 1 0
    outer loop
      vertex 30 38 5.857863426208496
      vertex 38 38 0
      vertex 30 38 0
    endloop
  endfacet
  facet normal 0 -1 0
    outer loop
      vertex 30 30 0
      vertex 38 30 5.857863426208496
      vertex 30 30 5.857863426208496
    endloop
  endfacet
  facet normal 0 -1 0
    outer loop
      vertex 38 30 5.857863426208496
      vertex 30 30 0
      vertex 38 30 0
    endloop
  endfacet
endsolid OpenSCAD_Model
