solid OpenSCAD_Model
  facet normal 0 0 1
    outer loop
      vertex -20.070709228515625 20 0.0707101821899414
      vertex -19.929288864135742 20 0.0707101821899414
      vertex -20 20.070709228515625 0.0707101821899414
    endloop
  endfacet
  facet normal 0 0 1
    outer loop
      vertex -19.929288864135742 20 0.0707101821899414
      vertex -20.070709228515625 20 0.0707101821899414
      vertex -19.929288864135742 -20 0.0707101821899414
    endloop
  endfacet
  facet normal 0 0 1
    outer loop
      vertex -20.070709228515625 -20 0.0707101821899414
      vertex -19.929288864135742 -20 0.0707101821899414
      vertex -20.070709228515625 20 0.0707101821899414
    endloop
  endfacet
  facet normal 0 0 1
    outer loop
      vertex -19.929288864135742 -20 0.0707101821899414
      vertex -20.070709228515625 -20 0.0707101821899414
      vertex -20 -20.070709228515625 0.0707101821899414
    endloop
  endfacet
  facet normal -1 0 0
    outer loop
      vertex -20.070709228515625 -20 -2.0707101821899414
      vertex -20.070709228515625 20 0.0707101821899414
      vertex -20.070709228515625 20 -2.0707101821899414
    endloop
  endfacet
  facet normal -1 0 0
    outer loop
      vertex -20.070709228515625 20 0.0707101821899414
      vertex -20.070709228515625 -20 -2.0707101821899414
      vertex -20.070709228515625 -20 0.0707101821899414
    endloop
  endfacet
  facet normal 0 0 -1
    outer loop
      vertex -20.070709228515625 -20 -2.0707101821899414
      vertex -19.929288864135742 -20 -2.0707101821899414
      vertex -20 -20.070709228515625 -2.0707101821899414
    endloop
  endfacet
  facet normal 0 0 -1
    outer loop
      vertex -19.929288864135742 -20 -2.0707101821899414
      vertex -20.070709228515625 -20 -2.0707101821899414
      vertex -19.929288864135742 20 -2.0707101821899414
    endloop
  endfacet
  facet normal 0 0 -1
    outer loop
      vertex -20.070709228515625 20 -2.0707101821899414
      vertex -19.929288864135742 20 -2.0707101821899414
      vertex -20.070709228515625 -20 -2.0707101821899414
    endloop
  endfacet
  facet normal 0 0 -1
    outer loop
      vertex -19.929288864135742 20 -2.0707101821899414
      vertex -20.070709228515625 20 -2.0707101821899414
      vertex -20 20.070709228515625 -2.0707101821899414
    endloop
  endfacet
  facet normal 1 0 0
    outer loop
      vertex -19.929288864135742 -20 0.0707101821899414
      vertex -19.929288864135742 20 -2.0707101821899414
      vertex -19.929288864135742 20 0.0707101821899414
    endloop
  endfacet
  facet normal 1 0 0
    outer loop
      vertex -19.929288864135742 20 -2.0707101821899414
      vertex -19.929288864135742 -20 0.0707101821899414
      vertex -19.929288864135742 -20 -2.0707101821899414
    endloop
  endfacet
  facet normal -0.7071067811865476 -0.7071067811865476 0
    outer loop
      vertex -20 -20.070709228515625 -2.0707101821899414
      vertex -20.070709228515625 -20 0.0707101821899414
      vertex -20.070709228515625 -20 -2.0707101821899414
    endloop
  endfacet
  facet normal -0.7071067811865476 -0.7071067811865476 0
    outer loop
      vertex -20.070709228515625 -20 0.0707101821899414
      vertex -20 -20.070709228515625 -2.0707101821899414
      vertex -20 -20.070709228515625 0.0707101821899414
    endloop
  endfacet
  facet normal 0.7070972443121861 -0.7071163179322852 0
    outer loop
      vertex -20 -20.070709228515625 -2.0707101821899414
      vertex -19.929288864135742 -20 0.0707101821899414
      vertex -20 -20.070709228515625 0.0707101821899414
    endloop
  endfacet
  facet normal 0.7070972443121861 -0.7071163179322852 0
    outer loop
      vertex -19.929288864135742 -20 0.0707101821899414
      vertex -20 -20.070709228515625 -2.0707101821899414
      vertex -19.929288864135742 -20 -2.0707101821899414
    endloop
  endfacet
  facet normal 0 0 1
    outer loop
      vertex 19.929288864135742 20 0.0707101821899414
      vertex 20.070709228515625 20 0.0707101821899414
      vertex 20 20.070709228515625 0.0707101821899414
    endloop
  endfacet
  facet normal 0 0 1
    outer loop
      vertex 20.070709228515625 20 0.0707101821899414
      vertex 19.929288864135742 20 0.0707101821899414
      vertex 20.070709228515625 -20 0.0707101821899414
    endloop
  endfacet
  facet normal 0 0 1
    outer loop
      vertex 19.929288864135742 -20 0.0707101821899414
      vertex 20.070709228515625 -20 0.0707101821899414
      vertex 19.929288864135742 20 0.0707101821899414
    endloop
  endfacet
  facet normal 0 0 1
    outer loop
      vertex 20.070709228515625 -20 0.0707101821899414
      vertex 19.929288864135742 -20 0.0707101821899414
      vertex 20 -20.070709228515625 0.0707101821899414
    endloop
  endfacet
  facet normal -1 0 0
    outer loop
      vertex 19.929288864135742 -20 -2.0707101821899414
      vertex 19.929288864135742 20 0.0707101821899414
      vertex 19.929288864135742 20 -2.0707101821899414
    endloop
  endfacet
  facet normal -1 0 0
    outer loop
      vertex 19.929288864135742 20 0.0707101821899414
      vertex 19.929288864135742 -20 -2.0707101821899414
      vertex 19.929288864135742 -20 0.0707101821899414
    endloop
  endfacet
  facet normal 0 0 -1
    outer loop
      vertex 19.929288864135742 -20 -2.0707101821899414
      vertex 20.070709228515625 -20 -2.0707101821899414
      vertex 20 -20.070709228515625 -2.0707101821899414
    endloop
  endfacet
  facet normal 0 0 -1
    outer loop
      vertex 20.070709228515625 -20 -2.0707101821899414
      vertex 19.929288864135742 -20 -2.0707101821899414
      vertex 20.070709228515625 20 -2.0707101821899414
    endloop
  endfacet
  facet normal 0 0 -1
    outer loop
      vertex 19.929288864135742 20 -2.0707101821899414
      vertex 20.070709228515625 20 -2.0707101821899414
      vertex 19.929288864135742 -20 -2.0707101821899414
    endloop
  endfacet
  facet normal 0 0 -1
    outer loop
      vertex 20.070709228515625 20 -2.0707101821899414
      vertex 19.929288864135742 20 -2.0707101821899414
      vertex 20 20.070709228515625 -2.0707101821899414
    endloop
  endfacet
  facet normal 1 0 0
    outer loop
      vertex 20.070709228515625 -20 0.0707101821899414
      vertex 20.070709228515625 20 -2.0707101821899414
      vertex 20.070709228515625 20 0.0707101821899414
    endloop
  endfacet
  facet normal 1 0 0
    outer loop
      vertex 20.070709228515625 20 -2.0707101821899414
      vertex 20.070709228515625 -20 0.0707101821899414
      vertex 20.070709228515625 -20 -2.0707101821899414
    endloop
  endfacet
  facet normal -0.7070972443121861 -0.7071163179322852 0
    outer loop
      vertex 19.929288864135742 -20 -2.0707101821899414
      vertex 20 -20.070709228515625 0.0707101821899414
      vertex 19.929288864135742 -20 0.0707101821899414
    endloop
  endfacet
  facet normal -0.7070972443121861 -0.7071163179322852 0
    outer loop
      vertex 20 -20.070709228515625 0.0707101821899414
      vertex 19.929288864135742 -20 -2.0707101821899414
      vertex 20 -20.070709228515625 -2.0707101821899414
    endloop
  endfacet
  facet normal 0.7071067811865476 -0.7071067811865476 0
    outer loop
      vertex 20 -20.070709228515625 0.0707101821899414
      vertex 20.070709228515625 -20 -2.0707101821899414
      vertex 20.070709228515625 -20 0.0707101821899414
    endloop
  endfacet
  facet normal 0.7071067811865476 -0.7071067811865476 0
    outer loop
      vertex 20.070709228515625 -20 -2.0707101821899414
      vertex 20 -20.070709228515625 0.0707101821899414
      vertex 20 -20.070709228515625 -2.0707101821899414
    endloop
  endfacet
  facet normal -0.7071067811865476 0.7071067811865476 0
    outer loop
      vertex -20.070709228515625 20 -2.0707101821899414
      vertex -20 20.070709228515625 0.0707101821899414
      vertex -20 20.070709228515625 -2.0707101821899414
    endloop
  endfacet
  facet normal -0.7071067811865476 0.7071067811865476 0
    outer loop
      vertex -20 20.070709228515625 0.0707101821899414
      vertex -20.070709228515625 20 -2.0707101821899414
      vertex -20.070709228515625 20 0.0707101821899414
    endloop
  endfacet
  facet normal 0.7070972443121861 0.7071163179322852 0
    outer loop
      vertex -19.929288864135742 20 -2.0707101821899414
      vertex -20 20.070709228515625 0.0707101821899414
      vertex -19.929288864135742 20 0.0707101821899414
    endloop
  endfacet
  facet normal 0.7070972443121861 0.7071163179322852 0
    outer loop
      vertex -20 20.070709228515625 0.0707101821899414
      vertex -19.929288864135742 20 -2.0707101821899414
      vertex -20 20.070709228515625 -2.0707101821899414
    endloop
  endfacet
  facet normal -0.7070972443121861 0.7071163179322852 0
    outer loop
      vertex 20 20.070709228515625 -2.0707101821899414
      vertex 19.929288864135742 20 0.0707101821899414
      vertex 20 20.070709228515625 0.0707101821899414
    endloop
  endfacet
  facet normal -0.7070972443121861 0.7071163179322852 0
    outer loop
      vertex 19.929288864135742 20 0.0707101821899414
      vertex 20 20.070709228515625 -2.0707101821899414
      vertex 19.929288864135742 20 -2.0707101821899414
    endloop
  endfacet
  facet normal 0.7071067811865476 0.7071067811865476 0
    outer loop
      vertex 20.070709228515625 20 0.0707101821899414
      vertex 20 20.070709228515625 -2.0707101821899414
      vertex 20 20.070709228515625 0.0707101821899414
    endloop
  endfacet
  facet normal 0.7071067811865476 0.7071067811865476 0
    outer loop
      vertex 20 20.070709228515625 -2.0707101821899414
      vertex 20.070709228515625 20 0.0707101821899414
      vertex 20.070709228515625 20 -2.0707101821899414
    endloop
  endfacet
endsolid OpenSCAD_Model
