solid OpenSCAD_Model
  facet normal 0 0 -1
    outer loop
      vertex 0 20 0
      vertex 20 20 0
      vertex 0 0 0
    endloop
  endfacet
  facet normal -1 0 0
    outer loop
      vertex -20 20 31
      vertex -20 20 30
      vertex -20 0 31
    endloop
  endfacet
  facet normal 0 1 0
    outer loop
      vertex 0 20 31
      vertex -20 20 30
      vertex -20 20 31
    endloop
  endfacet
  facet normal 0 1 0
    outer loop
      vertex 20 20 1
      vertex -20 20 30
      vertex 0 20 31
    endloop
  endfacet
  facet normal 0 0 1
    outer loop
      vertex -20 20 31
      vertex -20 0 31
      vertex 0 20 31
    endloop
  endfacet
  facet normal 0.8320502943378437 0 0.5547001962252291
    outer loop
      vertex 20 20 1
      vertex 0 20 31
      vertex 20 0 1
    endloop
  endfacet
  facet normal 0 1 0
    outer loop
      vertex 20 20 0
      vertex -20 20 30
      vertex 20 20 1
    endloop
  endfacet
  facet normal 0 -1 0
    outer loop
      vertex 0 0 31
      vertex -20 0 30
      vertex 20 0 1
    endloop
  endfacet
  facet normal 1 0 0
    outer loop
      vertex 20 0 1
      vertex 20 20 0
      vertex 20 20 1
    endloop
  endfacet
  facet normal 0 -1 0
    outer loop
      vertex -20 0 31
      vertex -20 0 30
      vertex 0 0 31
    endloop
  endfacet
  facet normal 1 0 0
    outer loop
      vertex 20 0 0
      vertex 20 20 0
      vertex 20 0 1
    endloop
  endfacet
  facet normal 0 0 -1
    outer loop
      vertex 0 0 0
      vertex 20 20 0
      vertex 20 0 0
    endloop
  endfacet
  facet normal 0 0 1
    outer loop
      vertex 0 20 31
      vertex -20 0 31
      vertex 0 0 31
    endloop
  endfacet
  facet normal 0.8320502943378437 0 0.5547001962252291
    outer loop
      vertex 20 0 1
      vertex 0 20 31
      vertex 0 0 31
    endloop
  endfacet
  facet normal 0 -1 0
    outer loop
      vertex 20 0 0
      vertex -20 0 30
      vertex 0 0 0
    endloop
  endfacet
  facet normal 0 -1 0
    outer loop
      vertex 20 0 1
      vertex -20 0 30
      vertex 20 0 0
    endloop
  endfacet
  facet normal -0.8320502943378437 0 -0.5547001962252291
    outer loop
      vertex -20 0 30
      vertex -20 20 30
      vertex 0 0 0
    endloop
  endfacet
  facet normal -1 0 0
    outer loop
      vertex -20 0 31
      vertex -20 20 30
      vertex -20 0 30
    endloop
  endfacet
  facet normal 0 1 0
    outer loop
      vertex 0 20 0
      vertex -20 20 30
      vertex 20 20 0
    endloop
  endfacet
  facet normal -0.8320502943378437 0 -0.5547001962252291
    outer loop
      vertex 0 0 0
      vertex -20 20 30
      vertex 0 20 0
    endloop
  endfacet
endsolid OpenSCAD_Model
