solid OpenSCAD_Model
  facet normal 0.32832989328963963 -0.9445631165636387 0
    outer loop
      vertex 20 0 0
      vertex 6.472135953605175 -4.702282018959522 10
      vertex 6.472135953605175 -4.702282018959522 0
    endloop
  endfacet
  facet normal 0.32832989328963963 -0.9445631165636387 0
    outer loop
      vertex 20 0 0
      vertex 20 0 10
      vertex 6.472135953605175 -4.702282018959522 10
    endloop
  endfacet
  facet normal 0.32832989328963963 0.9445631165636387 0
    outer loop
      vertex 6.472135953605175 4.702282018959522 0
      vertex 20 0 10
      vertex 20 0 0
    endloop
  endfacet
  facet normal 0.32832989328963963 0.9445631165636387 0
    outer loop
      vertex 6.472135953605175 4.702282018959522 0
      vertex 6.472135953605175 4.702282018959522 10
      vertex 20 0 10
    endloop
  endfacet
  facet normal 0.9997924238501336 0.020374229111175972 0
    outer loop
      vertex 6.180339887738228 19.021130323410034 0
      vertex 6.472135953605175 4.702282018959522 10
      vertex 6.472135953605175 4.702282018959522 0
    endloop
  endfacet
  facet normal 0.9997924238501336 0.020374229111175972 0
    outer loop
      vertex 6.180339887738228 19.021130323410034 0
      vertex 6.180339887738228 19.021130323410034 10
      vertex 6.472135953605175 4.702282018959522 10
    endloop
  endfacet
  facet normal -0.7968733901642574 0.604146339927772 0
    outer loop
      vertex -2.472135953605175 7.608452133834362 0
      vertex 6.180339887738228 19.021130323410034 10
      vertex 6.180339887738228 19.021130323410034 0
    endloop
  endfacet
  facet normal -0.7968733901642574 0.604146339927772 0
    outer loop
      vertex -2.472135953605175 7.608452133834362 0
      vertex -2.472135953605175 7.608452133834362 10
      vertex 6.180339887738228 19.021130323410034 10
    endloop
  endfacet
  facet normal 0.2895758059584365 0.957155082838472 0
    outer loop
      vertex -16.180339887738228 11.755705043673515 0
      vertex -2.472135953605175 7.608452133834362 10
      vertex -2.472135953605175 7.608452133834362 0
    endloop
  endfacet
  facet normal 0.2895758059584365 0.957155082838472 0
    outer loop
      vertex -16.180339887738228 11.755705043673515 0
      vertex -16.180339887738228 11.755705043673515 10
      vertex -2.472135953605175 7.608452133834362 10
    endloop
  endfacet
  facet normal -0.8208247331456668 -0.5711801444871355 0
    outer loop
      vertex -8 0 0
      vertex -16.180339887738228 11.755705043673515 10
      vertex -16.180339887738228 11.755705043673515 0
    endloop
  endfacet
  facet normal -0.8208247331456668 -0.5711801444871355 0
    outer loop
      vertex -8 0 0
      vertex -8 0 10
      vertex -16.180339887738228 11.755705043673515 10
    endloop
  endfacet
  facet normal -0.8208247331456668 0.5711801444871355 0
    outer loop
      vertex -16.180339887738228 -11.755705043673515 0
      vertex -8 0 10
      vertex -8 0 0
    endloop
  endfacet
  facet normal -0.8208247331456668 0.5711801444871355 0
    outer loop
      vertex -16.180339887738228 -11.755705043673515 0
      vertex -16.180339887738228 -11.755705043673515 10
      vertex -8 0 10
    endloop
  endfacet
  facet normal 0.2895758059584365 -0.957155082838472 0
    outer loop
      vertex -2.472135953605175 -7.608452133834362 0
      vertex -16.180339887738228 -11.755705043673515 10
      vertex -16.180339887738228 -11.755705043673515 0
    endloop
  endfacet
  facet normal 0.2895758059584365 -0.957155082838472 0
    outer loop
      vertex -2.472135953605175 -7.608452133834362 0
      vertex -2.472135953605175 -7.608452133834362 10
      vertex -16.180339887738228 -11.755705043673515 10
    endloop
  endfacet
  facet normal -0.7968733901642574 -0.604146339927772 0
    outer loop
      vertex 6.180339887738228 -19.021130323410034 0
      vertex -2.472135953605175 -7.608452133834362 10
      vertex -2.472135953605175 -7.608452133834362 0
    endloop
  endfacet
  facet normal -0.7968733901642574 -0.604146339927772 0
    outer loop
      vertex 6.180339887738228 -19.021130323410034 0
      vertex 6.180339887738228 -19.021130323410034 10
      vertex -2.472135953605175 -7.608452133834362 10
    endloop
  endfacet
  facet normal 0.9997924238501336 -0.020374229111175972 0
    outer loop
      vertex 6.472135953605175 -4.702282018959522 0
      vertex 6.180339887738228 -19.021130323410034 10
      vertex 6.180339887738228 -19.021130323410034 0
    endloop
  endfacet
  facet normal 0.9997924238501336 -0.020374229111175972 0
    outer loop
      vertex 6.472135953605175 -4.702282018959522 0
      vertex 6.472135953605175 -4.702282018959522 10
      vertex 6.180339887738228 -19.021130323410034 10
    endloop
  endfacet
  facet normal 0 0 -1
    outer loop
      vertex 6.472135953605175 4.702282018959522 0
      vertex 20 0 0
      vertex 6.472135953605175 -4.702282018959522 0
    endloop
  endfacet
  facet normal 0 0 -1
    outer loop
      vertex 6.472135953605175 4.702282018959522 0
      vertex -2.472135953605175 7.608452133834362 0
      vertex 6.180339887738228 19.021130323410034 0
    endloop
  endfacet
  facet normal 0 0 -1
    outer loop
      vertex -8 0 0
      vertex -2.472135953605175 7.608452133834362 0
      vertex 6.472135953605175 4.702282018959522 0
    endloop
  endfacet
  facet normal 0 0 -1
    outer loop
      vertex -8 0 0
      vertex -16.180339887738228 11.755705043673515 0
      vertex -2.472135953605175 7.608452133834362 0
    endloop
  endfacet
  facet normal 0 0 -1
    outer loop
      vertex 6.472135953605175 -4.702282018959522 0
      vertex -8 0 0
      vertex 6.472135953605175 4.702282018959522 0
    endloop
  endfacet
  facet normal 0 0 -1
    outer loop
      vertex -2.472135953605175 -7.608452133834362 0
      vertex -16.180339887738228 -11.755705043673515 0
      vertex -8 0 0
    endloop
  endfacet
  facet normal 0 0 -1
    outer loop
      vertex 6.472135953605175 -4.702282018959522 0
      vertex -2.472135953605175 -7.608452133834362 0
      vertex -8 0 0
    endloop
  endfacet
  facet normal 0 0 -1
    outer loop
      vertex 6.472135953605175 -4.702282018959522 0
      vertex 6.180339887738228 -19.021130323410034 0
      vertex -2.472135953605175 -7.608452133834362 0
    endloop
  endfacet
  facet normal 0 0 1
    outer loop
      vertex 6.472135953605175 -4.702282018959522 10
      vertex 20 0 10
      vertex 6.472135953605175 4.702282018959522 10
    endloop
  endfacet
  facet normal 0 0 1
    outer loop
      vertex 6.180339887738228 19.021130323410034 10
      vertex -2.472135953605175 7.608452133834362 10
      vertex 6.472135953605175 4.702282018959522 10
    endloop
  endfacet
  facet normal 0 0 1
    outer loop
      vertex 6.472135953605175 4.702282018959522 10
      vertex -2.472135953605175 7.608452133834362 10
      vertex -8 0 10
    endloop
  endfacet
  facet normal 0 0 1
    outer loop
      vertex -2.472135953605175 7.608452133834362 10
      vertex -16.180339887738228 11.755705043673515 10
      vertex -8 0 10
    endloop
  endfacet
  facet normal 0 0 1
    outer loop
      vertex 6.472135953605175 4.702282018959522 10
      vertex -8 0 10
      vertex 6.472135953605175 -4.702282018959522 10
    endloop
  endfacet
  facet normal 0 0 1
    outer loop
      vertex -8 0 10
      vertex -16.180339887738228 -11.755705043673515 10
      vertex -2.472135953605175 -7.608452133834362 10
    endloop
  endfacet
  facet normal 0 0 1
    outer loop
      vertex -8 0 10
      vertex -2.472135953605175 -7.608452133834362 10
      vertex 6.472135953605175 -4.702282018959522 10
    endloop
  endfacet
  facet normal 0 0 1
    outer loop
      vertex -2.472135953605175 -7.608452133834362 10
      vertex 6.180339887738228 -19.021130323410034 10
      vertex 6.472135953605175 -4.702282018959522 10
    endloop
  endfacet
endsolid OpenSCAD_Model
